
<!DOCTYPE svg PUBLIC "-//W3C//DTD SVG 1.1//EN" "http://www.w3.org/Graphics/SVG/1.1/DTD/svg11.dtd">
<svg xmlns="http://www.w3.org/2000/svg" xmlns:xlink="http://www.w3.org/1999/xlink" version="1.1" width="1080" height="1080" viewBox="0 0 1080 1080" xml:space="preserve">
<desc>Created with Fabric.js 5.2.4</desc>
<defs>
</defs>
<rect x="0" y="0" width="100%" height="100%" fill="transparent"></rect>
<g transform="matrix(1 0 0 1 540 540)" id="f60ded28-dd0e-4c3b-b2b9-fa2cb2adad96"  >
</g>
<g transform="matrix(1 0 0 1 540 540)" id="cb22892f-40c3-4db9-963e-57f33d4187ab"  >
<rect style="stroke: none; stroke-width: 1; stroke-dasharray: none; stroke-linecap: butt; stroke-dashoffset: 0; stroke-linejoin: miter; stroke-miterlimit: 4; fill: rgb(255,255,255); fill-rule: nonzero; opacity: 1; visibility: hidden;" vector-effect="non-scaling-stroke"  x="-540" y="-540" rx="0" ry="0" width="1080" height="1080" />
</g>
<g transform="matrix(0 0 0 0 0 0)"  >
<g style=""   >
</g>
</g>
<g transform="matrix(1.3 0 0 1.3 434.98 695.43)"  >
<g style="" vector-effect="non-scaling-stroke"   >
		<g transform="matrix(1.33 0 0 1.33 106.31 -102.05)"  >
<path style="stroke: none; stroke-width: 1; stroke-dasharray: none; stroke-linecap: butt; stroke-dashoffset: 0; stroke-linejoin: miter; stroke-miterlimit: 4; fill: rgb(155,107,67); fill-rule: nonzero; opacity: 1;" vector-effect="non-scaling-stroke"  transform=" translate(-349.9, -286.36)" d="M 468.44 229.6 C 466.4244 212.409 439.6 185.362 412.44 159.096 C 407.2877 154.0569 401.913 148.905 400.401 147.112 C 399.1705 141.905 393.85020000000003 112.61599999999999 390.15500000000003 92.007 L 390.15109400000006 92.007 C 394.83859400000006 89.7218 397.7526940000001 84.9015 397.6002940000001 79.68700000000001 C 397.33467400000006 76.52680000000001 396.01049400000005 73.55030000000001 393.8463940000001 71.23000000000002 C 395.7643940000001 68.65970000000002 396.6627940000001 65.46830000000001 396.3658940000001 62.27300000000002 C 395.4127640000001 54.769100000000016 389.1978940000001 49.222000000000016 378.9518940000001 47.488000000000014 C 373.79959400000007 46.64816000000001 343.6158940000001 46.534880000000015 343.2798940000001 46.534880000000015 C 342.94389400000017 46.534880000000015 312.75989400000014 46.534880000000015 307.6078940000001 47.488000000000014 C 297.5848940000001 49.222400000000015 291.1428940000001 54.76920000000001 290.3618940000001 62.21500000000002 L 290.35798800000015 62.21500000000002 C 290.08064800000017 65.41810000000002 290.99860800000016 68.60950000000001 292.93608800000015 71.17590000000001 C 290.7251880000002 73.46500000000002 289.39698800000014 76.46110000000002 289.18218800000017 79.6329 C 288.95171800000014 83.64460000000001 290.76418800000016 87.5001 293.99858800000015 89.8789 C 293.38920800000017 91.3906 293.08452800000015 93.0117 293.1040580000002 94.6406 C 293.1040580000002 97.1601 283.4712580000002 97.27340000000001 278.31905800000015 97.3828 L 271.26435800000013 97.3828 C 261.2413580000001 97.3828 242.64735800000014 97.3828 238.72935800000013 112.3908 C 234.36215800000014 128.6288 229.71375800000013 151.5898 232.23325800000012 168.8398 C 233.7996580000001 179.5348 246.28825800000013 187.8788 253.51425800000013 191.2378 L 253.51035200000013 191.2378 C 252.41265200000012 192.7378 251.21735200000012 194.1597 249.92835200000013 195.4956 C 248.75255200000012 196.7847 247.57675200000014 198.1831 246.40105200000013 199.5854 L 246.39714600000013 199.5854 C 239.09634600000012 208.1323 234.25614600000014 218.51139999999998 232.39714600000013 229.60139999999998 C 230.66274600000014 241.4724 230.54944600000013 385.3914 230.60414600000013 470.1214 L 230.60414600000013 473.8753 C 230.60414600000013 485.4103 231.44398600000014 498.6293 241.13114600000011 509.8283 C 250.0334460000001 520.1333 265.9941460000001 521.5903000000001 290.1861460000001 523.8833 L 291.2486460000001 523.8833 C 306.2016460000001 525.2817 330.8426460000001 526.1802 354.0806460000001 526.1802 C 383.5926460000001 526.1802 407.6156460000001 524.5552 416.52164600000015 523.8833 L 421.0568460000001 523.5473599999999 C 440.0958460000001 522.0903599999999 447.2638460000001 521.5864599999999 456.56084600000014 511.3403599999999 L 456.5647520000001 511.33645399999995 C 464.49445200000014 501.46535399999993 468.6777520000001 489.1064539999999 468.3807520000001 476.44945399999995 L 468.3807520000001 461.2194539999999 C 469.5018520000001 313.5994539999999 469.4471520000001 237.94945399999992 468.4393460000001 229.59945399999992 z M 303.57 77.28 C 305.82 76.67844 307.4606 74.7527 307.695 72.4362 C 307.93327999999997 70.1237 306.71452999999997 67.905 304.6364 66.862 C 303.74187 66.41278 301.39029999999997 64.6237 301.49969999999996 63.3347 C 301.49969999999996 60.5925 306.652 59.0222 309.50749999999994 58.573 C 312.3629999999999 58.1238 337.50749999999994 57.73316 343.1094999999999 57.73316 C 348.71109999999993 57.73316 373.5744999999999 57.73316 376.7114999999999 58.573 C 379.8481999999999 59.41284 384.4380999999999 60.5886 384.71929999999986 63.3347 C 384.71929999999986 64.6238 382.70369999999986 66.3035 381.58259999999984 66.862 C 379.48489999999987 67.9011 378.2583999999998 70.13539999999999 378.50059999999985 72.4636 C 378.75059999999985 74.7722 380.39899999999983 76.6863 382.64509999999984 77.28 C 382.64509999999984 77.28 385.72319999999985 78.17453 385.89119999999986 80.5847 C 384.8208999999999 81.9245 383.35209999999984 82.8855 381.69199999999984 83.3269 L 304.69199999999984 83.3269 C 303.0357999999998 82.88548999999999 301.56309999999985 81.9246 300.4927999999998 80.5847 C 300.5474869999998 78.3972 303.3482999999998 77.3894 303.5708999999998 77.28 z M 457.4 461.15999999999997 L 457.4 476.50399999999996 C 457.68125 486.42979999999994 454.5172 496.145 448.443 503.99999999999994 C 442.2828 510.77729999999997 439.03679999999997 511.16799999999995 420.443 512.5663999999999 L 415.9078 512.9570199999999 C 407.1148 513.6288999999999 383.4278 515.1953199999999 354.30580000000003 515.1953199999999 C 331.9078 515.1953199999999 306.93080000000003 514.3007899999999 292.70380000000006 512.9570199999999 L 291.58270000000005 512.9570199999999 C 270.13370000000003 510.94141999999994 255.96570000000006 509.59761999999995 249.97370000000004 502.71101999999996 C 243.98150000000004 495.82431999999994 242.18850000000003 486.52701999999994 242.18850000000003 474.09401999999994 L 242.18850000000003 470.34011999999996 C 242.18850000000003 328.77011999999996 242.69241000000002 239.45011999999997 243.86820000000003 231.50011999999995 L 243.87210600000003 231.50402599999995 C 245.32130600000002 222.44932599999996 249.19240600000003 213.95302599999997 255.07110600000004 206.92202599999996 C 256.078906 205.69152599999995 257.20000600000003 204.45722599999996 258.26250600000003 203.28142599999995 C 262.407006 198.63302599999994 266.32500600000003 194.32052599999994 265.207806 188.89042599999996 L 265.207806 188.88651999999996 C 264.239056 185.41381999999996 261.653106 182.62091999999996 258.266406 181.38261999999997 C 251.60230600000003 178.41382 243.985406 172.31231999999997 243.31340600000001 167.60562 C 241.520406 155.67561999999998 243.762626 137.25361999999998 249.528206 115.69561999999999 C 251.153206 109.64872 261.17620600000004 109.03151999999999 271.31320600000004 108.97681999999999 L 278.19990600000006 108.97681999999999 C 288.33690600000006 108.97681999999999 303.62590600000004 108.52759999999999 303.90290600000003 95.03181999999998 L 379.11390600000004 95.03181999999998 C 382.137306 111.83281999999998 388.57870600000007 148.06282 389.69990600000006 151.42281999999997 C 390.53974600000004 153.88761999999997 392.66870600000004 156.12591999999998 404.53990600000003 167.49281999999997 C 421.340906 183.45381999999998 455.609906 216.60581999999997 457.29390600000005 231.27781999999996 C 458.23921600000006 238.67231999999996 458.23921600000006 316.12181999999996 457.3993760000001 461.15781999999996 z" stroke-linecap="round" />
</g>
		<g transform="matrix(1.33 0 0 1.33 13.49 -286.54)"  >
<path style="stroke: none; stroke-width: 1; stroke-dasharray: none; stroke-linecap: butt; stroke-dashoffset: 0; stroke-linejoin: miter; stroke-miterlimit: 4; fill: rgb(155,107,67); fill-rule: nonzero; opacity: 1;" vector-effect="non-scaling-stroke"  transform=" translate(-280.05, -147.46)" d="M 286.95 175.89 C 283.3641 175.89 265.11 175.10484 258.16499999999996 166.4252 C 253.40329999999997 160.433 255.08689999999996 151.69819999999999 256.87589999999994 142.3472 L 257.21183999999994 140.7222 C 259.4501399999999 128.85119999999998 260.1806399999999 125.66019999999999 264.26653999999996 122.46419999999999 C 270.87593999999996 117.2572 290.41853999999995 119.21809999999999 298.53954 120.33529999999999 L 298.53954 120.33920599999999 C 300.71924 120.64779599999999 302.51614 122.20250599999999 303.13334 124.315806 C 305.20754 132.151706 305.58644 140.342806 304.25054 148.338806 C 302.60994 158.284106 297.86774 167.455806 290.69954 174.545806 C 289.65654 175.440336 288.32064 175.916906 286.94954 175.889606 z M 280.28589999999997 130.249 L 280.28589999999997 130.252906 C 277.14529999999996 130.010716 273.989 130.370096 270.989 131.315406 C 269.61789999999996 135.030206 268.6413 138.877906 268.07489999999996 142.79540599999999 L 267.73895999999996 144.47510599999998 C 266.78583999999995 149.68210599999998 265.27415999999994 157.52210599999998 266.78583999999995 159.42810599999999 C 269.13743999999997 162.338306 277.98483999999996 164.131206 284.64883999999995 164.58040599999998 L 284.652747 164.58040599999998 C 289.00044699999995 159.27570599999999 291.930047 152.95540599999998 293.164447 146.20940599999997 C 294.019917 141.17030599999998 294.019917 136.01840599999997 293.164447 130.97940599999998 C 288.88714699999997 130.50284599999998 284.586347 130.26065599999998 280.285447 130.25284599999998 z" stroke-linecap="round" />
</g>
		<g transform="matrix(1.33 0 0 1.33 -253.09 361.98)"  >
<path style="stroke: none; stroke-width: 1; stroke-dasharray: none; stroke-linecap: butt; stroke-dashoffset: 0; stroke-linejoin: miter; stroke-miterlimit: 4; fill: rgb(155,107,67); fill-rule: nonzero; opacity: 1;" vector-effect="non-scaling-stroke"  transform=" translate(-10.08, 10.2)" d="M 18.766 -1.125 C 17.79725 -0.625 16.7855 -0.25 15.734799999999998 0 C 14.691799999999999 0.25781 13.598099999999999 0.39062 12.453599999999998 0.39062 C 9.055199999999997 0.39062 6.363799999999998 -0.5546899999999999 4.375499999999999 -2.4531799999999997 C 2.383299999999999 -4.35938 1.391099999999999 -6.93758 1.391099999999999 -10.18758 C 1.391099999999999 -13.44538 2.383289999999999 -16.02348 4.375499999999999 -17.92198 C 6.363799999999999 -19.82818 9.0552 -20.781380000000002 12.453599999999998 -20.781380000000002 C 13.598099999999999 -20.781380000000002 14.691899999999999 -20.648570000000003 15.734799999999998 -20.390760000000004 C 16.7856 -20.140760000000004 17.7973 -19.765760000000004 18.766 -19.265760000000004 L 18.766 -15.046960000000004 C 17.785529999999998 -15.703210000000004 16.8207 -16.187560000000005 15.875399999999999 -16.500060000000005 C 14.926179999999999 -16.812560000000005 13.9262 -16.968810000000005 12.875399999999999 -16.968810000000005 C 11.000399999999999 -16.968810000000005 9.5238 -16.363340000000004 8.453499999999998 -15.156310000000005 C 7.379299999999998 -13.957110000000005 6.844099999999998 -12.300810000000006 6.844099999999998 -10.187510000000005 C 6.844099999999998 -8.082010000000004 7.379259999999999 -6.425810000000006 8.453499999999998 -5.218710000000005 C 9.523799999999998 -4.019510000000005 11.000399999999999 -3.421810000000005 12.875399999999999 -3.421810000000005 C 13.9262 -3.421810000000005 14.9262 -3.570250000000005 15.875399999999999 -3.8749300000000053 C 16.82071 -4.187430000000005 17.7856 -4.675710000000006 18.766 -5.343730000000005 z" stroke-linecap="round" />
</g>
		<g transform="matrix(1.33 0 0 1.33 -228.39 365.13)"  >
<path style="stroke: none; stroke-width: 1; stroke-dasharray: none; stroke-linecap: butt; stroke-dashoffset: 0; stroke-linejoin: miter; stroke-miterlimit: 4; fill: rgb(155,107,67); fill-rule: nonzero; opacity: 1;" vector-effect="non-scaling-stroke"  transform=" translate(-8.05, 7.84)" d="M 13.734 -11.141 C 13.2965 -11.33631 12.86291 -11.48475 12.437100000000001 -11.5785 C 12.01913 -11.68006 11.59726 -11.73475 11.171500000000002 -11.73475 C 9.909800000000002 -11.73475 8.941000000000003 -11.3285 8.265300000000002 -10.51595 C 7.585610000000002 -9.71126 7.249700000000002 -8.562850000000001 7.249700000000002 -7.06285 L 7.249700000000002 -0.0003500000000000725 L 2.3591000000000015 -0.0003500000000000725 L 2.3591000000000015 -15.312349999999999 L 7.249700000000002 -15.312349999999999 L 7.249700000000002 -12.79675 C 7.874700000000002 -13.79675 8.593500000000002 -14.523349999999999 9.405900000000003 -14.98425 C 10.226210000000002 -15.453 11.206700000000003 -15.68737 12.343400000000003 -15.68737 C 12.507460000000002 -15.68737 12.687150000000003 -15.675651 12.874650000000003 -15.65612 C 13.069960000000002 -15.644401 13.351210000000002 -15.617058 13.718400000000003 -15.577995 z" stroke-linecap="round" />
</g>
		<g transform="matrix(1.33 0 0 1.33 -208.15 365.39)"  >
<path style="stroke: none; stroke-width: 1; stroke-dasharray: none; stroke-linecap: butt; stroke-dashoffset: 0; stroke-linejoin: miter; stroke-miterlimit: 4; fill: rgb(155,107,67); fill-rule: nonzero; opacity: 1;" vector-effect="non-scaling-stroke"  transform=" translate(-9.42, 7.65)" d="M 17.641 -7.7031 L 17.641 -6.2969 L 6.187999999999999 -6.2969 C 6.312999999999999 -5.1485 6.727059999999999 -4.2890999999999995 7.437999999999999 -3.7188 C 8.145029999999998 -3.14458 9.141099999999998 -2.85942 10.4224 -2.85942 C 11.4536 -2.85942 12.5044 -3.00786 13.5786 -3.3125400000000003 C 14.6606 -3.6250400000000003 15.77 -4.08598 16.9067 -4.70314 L 16.9067 -0.9375400000000003 C 15.7505 -0.5000400000000003 14.5942 -0.1719200000000003 13.4379 0.04683999999999977 C 12.2817 0.27339999999999975 11.1254 0.39058999999999977 9.969100000000001 0.39058999999999977 C 7.1957 0.39058999999999977 5.0394000000000005 -0.3125300000000002 3.500300000000001 -1.7188100000000002 C 1.9691000000000012 -3.12501 1.2034000000000011 -5.09771 1.2034000000000011 -7.64071 C 1.2034000000000011 -10.14071 1.957310000000001 -12.10161 3.469000000000001 -13.531310000000001 C 4.976800000000001 -14.968810000000001 7.051000000000001 -15.687510000000001 9.687800000000001 -15.687510000000001 C 12.094000000000001 -15.687510000000001 14.0198 -14.957040000000001 15.469000000000001 -13.500010000000001 C 16.9143 -12.050810000000002 17.640900000000002 -10.117210000000002 17.640900000000002 -7.7031100000000015 z M 12.609799999999998 -9.3281 C 12.609799999999998 -10.253879999999999 12.336359999999997 -11 11.797299999999998 -11.5625 C 11.254329999999998 -12.13281 10.547299999999998 -12.42188 9.672299999999998 -12.42188 C 8.723079999999998 -12.42188 7.953499999999998 -12.15626 7.359799999999998 -11.625 C 6.766099999999998 -11.09374 6.394959999999998 -10.3281 6.250399999999998 -9.3281 z" stroke-linecap="round" />
</g>
		<g transform="matrix(1.33 0 0 1.33 -183.46 365.39)"  >
<path style="stroke: none; stroke-width: 1; stroke-dasharray: none; stroke-linecap: butt; stroke-dashoffset: 0; stroke-linejoin: miter; stroke-miterlimit: 4; fill: rgb(155,107,67); fill-rule: nonzero; opacity: 1;" vector-effect="non-scaling-stroke"  transform=" translate(-8.95, 7.65)" d="M 9.2188 -6.8906 C 8.1954 -6.8906 7.4258 -6.71872 6.9063 -6.37498 C 6.3945799999999995 -6.03123 6.14068 -5.51951 6.14068 -4.84378 C 6.14068 -4.21878 6.347709999999999 -3.72658 6.76568 -3.37498 C 7.17974 -3.03123 7.753959999999999 -2.8593599999999997 8.48448 -2.8593599999999997 C 9.41026 -2.8593599999999997 10.18758 -3.18748 10.81258 -3.8437399999999995 C 11.44539 -4.5078 11.7657 -5.335939999999999 11.7657 -6.328139999999999 L 11.7657 -6.890639999999999 z M 16.6876 -8.7344 L 16.6876 0 L 11.765699999999999 0 L 11.765699999999999 -2.2656 C 11.109449999999999 -1.3359100000000002 10.367299999999998 -0.6601000000000001 9.546899999999999 -0.23439999999999994 C 8.722679999999999 0.17966000000000004 7.722699999999999 0.39060000000000006 6.546899999999999 0.39060000000000006 C 4.9609999999999985 0.39060000000000006 3.675799999999999 -0.06642999999999993 2.687499999999999 -0.9843999999999999 C 1.6953099999999992 -1.91018 1.2030999999999992 -3.1132999999999997 1.2030999999999992 -4.5938 C 1.2030999999999992 -6.382899999999999 1.8163799999999992 -7.695399999999999 3.046899999999999 -8.5313 C 4.285199999999999 -9.37505 6.2265999999999995 -9.7969 8.875 -9.7969 L 11.7656 -9.7969 L 11.7656 -10.187520000000001 C 11.7656 -10.95705 11.457009999999999 -11.519520000000002 10.84372 -11.875020000000001 C 10.226529999999999 -12.2383 9.27342 -12.4219 7.984319999999999 -12.4219 C 6.92962 -12.4219 5.953119999999999 -12.31643 5.046819999999999 -12.1094 C 4.1483799999999995 -11.89846 3.3163199999999993 -11.58596 2.5468199999999994 -11.1719 L 2.5468199999999994 -14.906300000000002 C 3.5859199999999993 -15.156300000000002 4.632719999999999 -15.347710000000001 5.6874199999999995 -15.484420000000002 C 6.7499199999999995 -15.617230000000001 7.8124199999999995 -15.687540000000002 8.87492 -15.687540000000002 C 11.632719999999999 -15.687540000000002 13.62492 -15.140660000000002 14.84372 -14.046940000000003 C 16.07032 -12.961040000000002 16.68752 -11.191440000000004 16.68752 -8.734440000000003 z" stroke-linecap="round" />
</g>
		<g transform="matrix(1.33 0 0 1.33 -161.44 362.47)"  >
<path style="stroke: none; stroke-width: 1; stroke-dasharray: none; stroke-linecap: butt; stroke-dashoffset: 0; stroke-linejoin: miter; stroke-miterlimit: 4; fill: rgb(155,107,67); fill-rule: nonzero; opacity: 1;" vector-effect="non-scaling-stroke"  transform=" translate(-6.56, 9.83)" d="M 7.7031 -19.656 L 7.7031 -15.312199999999999 L 12.75 -15.312199999999999 L 12.75 -11.812199999999999 L 7.7031 -11.812199999999999 L 7.7031 -5.312199999999999 C 7.7031 -4.601259999999999 7.84372 -4.124699999999999 8.12498 -3.874699999999999 C 8.40624 -3.624699999999999 8.960920000000002 -3.499699999999999 9.796880000000002 -3.499699999999999 L 12.31248 -3.499699999999999 L 12.31248 0.0003000000000010772 L 8.12498 0.0003000000000010772 C 6.187480000000001 0.0003000000000010772 4.812480000000001 -0.39813999999999894 3.9999800000000008 -1.202799999999999 C 3.195290000000001 -2.015299999999999 2.7968800000000007 -3.382499999999999 2.7968800000000007 -5.312199999999999 L 2.7968800000000007 -11.812199999999999 L 0.37498000000000076 -11.812199999999999 L 0.37498000000000076 -15.312199999999999 L 2.7968800000000007 -15.312199999999999 L 2.7968800000000007 -19.656 z" stroke-linecap="round" />
</g>
		<g transform="matrix(1.33 0 0 1.33 -139.79 365.39)"  >
<path style="stroke: none; stroke-width: 1; stroke-dasharray: none; stroke-linecap: butt; stroke-dashoffset: 0; stroke-linejoin: miter; stroke-miterlimit: 4; fill: rgb(155,107,67); fill-rule: nonzero; opacity: 1;" vector-effect="non-scaling-stroke"  transform=" translate(-9.42, 7.65)" d="M 17.641 -7.7031 L 17.641 -6.2969 L 6.187999999999999 -6.2969 C 6.312999999999999 -5.1485 6.727059999999999 -4.2890999999999995 7.437999999999999 -3.7188 C 8.145029999999998 -3.14458 9.141099999999998 -2.85942 10.4224 -2.85942 C 11.4536 -2.85942 12.5044 -3.00786 13.5786 -3.3125400000000003 C 14.6606 -3.6250400000000003 15.77 -4.08598 16.9067 -4.70314 L 16.9067 -0.9375400000000003 C 15.7505 -0.5000400000000003 14.5942 -0.1719200000000003 13.4379 0.04683999999999977 C 12.2817 0.27339999999999975 11.1254 0.39058999999999977 9.969100000000001 0.39058999999999977 C 7.1957 0.39058999999999977 5.0394000000000005 -0.3125300000000002 3.500300000000001 -1.7188100000000002 C 1.9691000000000012 -3.12501 1.2034000000000011 -5.09771 1.2034000000000011 -7.64071 C 1.2034000000000011 -10.14071 1.957310000000001 -12.10161 3.469000000000001 -13.531310000000001 C 4.976800000000001 -14.968810000000001 7.051000000000001 -15.687510000000001 9.687800000000001 -15.687510000000001 C 12.094000000000001 -15.687510000000001 14.0198 -14.957040000000001 15.469000000000001 -13.500010000000001 C 16.9143 -12.050810000000002 17.640900000000002 -10.117210000000002 17.640900000000002 -7.7031100000000015 z M 12.609799999999998 -9.3281 C 12.609799999999998 -10.253879999999999 12.336359999999997 -11 11.797299999999998 -11.5625 C 11.254329999999998 -12.13281 10.547299999999998 -12.42188 9.672299999999998 -12.42188 C 8.723079999999998 -12.42188 7.953499999999998 -12.15626 7.359799999999998 -11.625 C 6.766099999999998 -11.09374 6.394959999999998 -10.3281 6.250399999999998 -9.3281 z" stroke-linecap="round" />
</g>
		<g transform="matrix(1.33 0 0 1.33 -114.4 361.65)"  >
<path style="stroke: none; stroke-width: 1; stroke-dasharray: none; stroke-linecap: butt; stroke-dashoffset: 0; stroke-linejoin: miter; stroke-miterlimit: 4; fill: rgb(155,107,67); fill-rule: nonzero; opacity: 1;" vector-effect="non-scaling-stroke"  transform=" translate(-9.48, 10.45)" d="M 12.766 -13.078 L 12.766 -21.2811 L 17.6879 -21.2811 L 17.6879 -0.00009999999999976694 L 12.765999999999998 -0.00009999999999976694 L 12.765999999999998 -2.2188999999999997 C 12.098029999999998 -1.3126499999999997 11.359799999999998 -0.6485999999999996 10.547199999999998 -0.2344999999999997 C 9.734599999999999 0.1796000000000002 8.789399999999999 0.3905000000000003 7.719099999999998 0.3905000000000003 C 5.832399999999998 0.3905000000000003 4.285499999999998 -0.3594999999999997 3.0784999999999982 -1.8594999999999997 C 1.8675999999999982 -3.3594999999999997 1.2659999999999982 -5.285299999999999 1.2659999999999982 -7.6407 C 1.2659999999999982 -10.004 1.8675599999999983 -11.9376 3.0784999999999982 -13.4376 C 4.285499999999998 -14.9376 5.832399999999998 -15.6876 7.719099999999998 -15.6876 C 8.781599999999997 -15.6876 9.719099999999997 -15.47276 10.531599999999997 -15.04698 C 11.351909999999997 -14.617289999999999 12.097999999999997 -13.961079999999999 12.765999999999998 -13.07818 z M 9.5472 -3.1560999999999986 C 10.5863 -3.1560999999999986 11.3831 -3.5350099999999984 11.9378 -4.296699999999999 C 12.488579999999999 -5.066229999999999 12.76592 -6.179499999999999 12.76592 -7.6404999999999985 C 12.76592 -9.097499999999998 12.488579999999999 -10.206899999999997 11.9378 -10.968599999999999 C 11.383109999999999 -11.738129999999998 10.5862 -12.124799999999999 9.5472 -12.124799999999999 C 8.5042 -12.124799999999999 7.7074 -11.738079999999998 7.1566 -10.968599999999999 C 6.60191 -10.206879999999998 6.32848 -9.097499999999998 6.32848 -7.6404999999999985 C 6.32848 -6.179599999999999 6.60192 -5.066299999999998 7.1566 -4.296699999999999 C 7.707380000000001 -3.5349799999999987 8.5043 -3.1560999999999986 9.5472 -3.1560999999999986 z" stroke-linecap="round" />
</g>
		<g transform="matrix(1.33 0 0 1.33 -73.21 361.65)"  >
<path style="stroke: none; stroke-width: 1; stroke-dasharray: none; stroke-linecap: butt; stroke-dashoffset: 0; stroke-linejoin: miter; stroke-miterlimit: 4; fill: rgb(155,107,67); fill-rule: nonzero; opacity: 1;" vector-effect="non-scaling-stroke"  transform=" translate(-10.57, 10.45)" d="M 10.5 -3.1562 C 11.5508 -3.1562 12.3516 -3.53511 12.9062 -4.2968 C 13.45698 -5.066330000000001 13.73432 -6.179600000000001 13.73432 -7.6406 C 13.73432 -9.0976 13.45698 -10.207 12.9062 -10.9687 C 12.35151 -11.73823 11.5507 -12.1249 10.5 -12.1249 C 9.4453 -12.1249 8.6406 -11.73818 8.0781 -10.9687 C 7.523409999999999 -10.19526 7.249979999999999 -9.0859 7.249979999999999 -7.6406 C 7.249979999999999 -6.1914 7.523419999999999 -5.082 8.0781 -4.3125 C 8.6406 -3.53906 9.4453 -3.1563 10.5 -3.1563 z M 7.25 -13.078100000000001 C 7.92578 -13.96091 8.6719 -14.6172 9.4844 -15.0469 C 10.30471 -15.47268 11.25 -15.687520000000001 12.3125 -15.687520000000001 C 14.207 -15.687520000000001 15.7578 -14.937520000000001 16.9687 -13.437520000000001 C 18.1757 -11.937520000000001 18.7812 -10.00392 18.7812 -7.640620000000001 C 18.7812 -5.285120000000001 18.175729999999998 -3.359420000000001 16.9687 -1.859420000000001 C 15.757799999999998 -0.35942000000000096 14.206999999999999 0.39057999999999904 12.312499999999998 0.39057999999999904 C 11.249999999999998 0.39057999999999904 10.304699999999999 0.17963999999999905 9.484399999999997 -0.23442000000000096 C 8.671899999999997 -0.660200000000001 7.925799999999997 -1.320320000000001 7.249999999999997 -2.218820000000001 L 7.249999999999997 -0.000020000000001019203 L 2.3593999999999973 -0.000020000000001019203 L 2.3593999999999973 -21.281019999999998 L 7.249999999999997 -21.281019999999998 z" stroke-linecap="round" />
</g>
		<g transform="matrix(1.33 0 0 1.33 -48.52 369.4)"  >
<path style="stroke: none; stroke-width: 1; stroke-dasharray: none; stroke-linecap: butt; stroke-dashoffset: 0; stroke-linejoin: miter; stroke-miterlimit: 4; fill: rgb(155,107,67); fill-rule: nonzero; opacity: 1;" vector-effect="non-scaling-stroke"  transform=" translate(-9.05, 4.63)" d="M 0.34375 -15.312 L 5.23435 -15.312 L 9.35935 -4.920999999999999 L 12.85935 -15.312 L 17.74995 -15.312 L 11.312449999999998 1.4539999999999988 C 10.664009999999998 3.149299999999999 9.910149999999998 4.336799999999998 9.04685 5.016499999999999 C 8.179659999999998 5.703999999999999 7.046849999999999 6.047699999999999 5.640649999999999 6.047699999999999 L 2.796849999999999 6.047699999999999 L 2.796849999999999 2.828899999999999 L 4.328049999999999 2.828899999999999 C 5.160079999999999 2.828899999999999 5.765549999999999 2.692179999999999 6.140549999999999 2.422649999999999 C 6.523359999999999 2.160929999999999 6.820239999999999 1.6921799999999991 7.0311699999999995 1.0164499999999992 L 7.17179 0.5945699999999992 z" stroke-linecap="round" />
</g>
		<g transform="matrix(1.33 0 0 1.33 -10.15 361.97)"  >
<path style="stroke: none; stroke-width: 1; stroke-dasharray: none; stroke-linecap: butt; stroke-dashoffset: 0; stroke-linejoin: miter; stroke-miterlimit: 4; fill: rgb(155,107,67); fill-rule: nonzero; opacity: 1;" vector-effect="non-scaling-stroke"  transform=" translate(-9.83, 10.2)" d="M 2.5781 -20.406 L 16.7811 -20.406 L 16.7811 -16.437199999999997 L 7.827999999999999 -16.437199999999997 L 7.827999999999999 -12.640299999999996 L 16.2499 -12.640299999999996 L 16.2499 -8.655899999999995 L 7.827999999999999 -8.655899999999995 L 7.827999999999999 -3.9839999999999955 L 17.078 -3.9839999999999955 L 17.078 0.00040000000000439684 L 2.5779999999999994 0.00040000000000439684 z" stroke-linecap="round" />
</g>
		<g transform="matrix(1.33 0 0 1.33 21.77 365.12)"  >
<path style="stroke: none; stroke-width: 1; stroke-dasharray: none; stroke-linecap: butt; stroke-dashoffset: 0; stroke-linejoin: miter; stroke-miterlimit: 4; fill: rgb(155,107,67); fill-rule: nonzero; opacity: 1;" vector-effect="non-scaling-stroke"  transform=" translate(-14.65, 7.84)" d="M 16.547 -12.766 C 17.16028 -13.71131 17.8947 -14.437899999999999 18.7501 -14.937899999999999 C 19.60166 -15.437899999999999 20.5392 -15.687899999999999 21.5626 -15.687899999999999 C 23.3204 -15.687899999999999 24.6603 -15.14102 25.5782 -14.0473 C 26.50398 -12.9614 26.968799999999998 -11.3911 26.968799999999998 -9.3285 L 26.968799999999998 -0.0004000000000008441 L 22.046899999999997 -0.0004000000000008441 L 22.046899999999997 -7.984800000000001 L 22.046899999999997 -8.344180000000001 C 22.054712999999996 -8.47699 22.062524999999997 -8.66449 22.062524999999997 -8.906680000000001 C 22.062524999999997 -9.988680000000002 21.898464999999998 -10.769980000000002 21.578144999999996 -11.250480000000001 C 21.265644999999996 -11.738760000000001 20.753924999999995 -11.984860000000001 20.046944999999997 -11.984860000000001 C 19.117254999999997 -11.984860000000001 18.398545 -11.59814 17.890744999999995 -10.828660000000001 C 17.379024999999995 -10.06694 17.117304999999995 -8.96146 17.109494999999995 -7.516160000000001 L 17.109494999999995 -0.0005600000000010041 L 12.187594999999995 -0.0005600000000010041 L 12.187594999999995 -7.984960000000001 C 12.187594999999995 -9.68026 12.039154999999994 -10.77016 11.750094999999995 -11.25056 C 11.457124999999994 -11.73884 10.937594999999995 -11.98494 10.187594999999995 -11.98494 C 9.250094999999995 -11.98494 8.523494999999995 -11.59822 8.015694999999994 -10.82874 C 7.503974999999993 -10.06702 7.250074999999994 -8.969339999999999 7.250074999999994 -7.53184 L 7.250074999999994 -0.0006399999999997519 L 2.3281749999999937 -0.0006399999999997519 L 2.3281749999999937 -15.312639999999998 L 7.250074999999994 -15.312639999999998 L 7.250074999999994 -13.078239999999997 C 7.851634999999994 -13.941519999999997 8.539174999999993 -14.593839999999997 9.312574999999994 -15.031339999999997 C 10.093824999999994 -15.468839999999997 10.953174999999995 -15.687589999999997 11.890674999999995 -15.687589999999997 C 12.953174999999995 -15.687589999999997 13.890674999999995 -15.429779999999997 14.703174999999995 -14.921969999999996 C 15.515674999999995 -14.410249999999996 16.128974999999993 -13.691469999999997 16.546974999999996 -12.765769999999996 z" stroke-linecap="round" />
</g>
		<g transform="matrix(1.33 0 0 1.33 47.57 361.39)"  >
<path style="stroke: none; stroke-width: 1; stroke-dasharray: none; stroke-linecap: butt; stroke-dashoffset: 0; stroke-linejoin: miter; stroke-miterlimit: 4; fill: rgb(155,107,67); fill-rule: nonzero; opacity: 1;" vector-effect="non-scaling-stroke"  transform=" translate(-4.8, 10.64)" d="M 2.3594 -15.312 L 7.25 -15.312 L 7.25 0 L 2.3594 0 z M 2.3594 -21.2808 L 7.25 -21.2808 L 7.25 -17.2808 L 2.3594 -17.2808 z" stroke-linecap="round" />
</g>
		<g transform="matrix(1.33 0 0 1.33 60.37 361.39)"  >
<path style="stroke: none; stroke-width: 1; stroke-dasharray: none; stroke-linecap: butt; stroke-dashoffset: 0; stroke-linejoin: miter; stroke-miterlimit: 4; fill: rgb(155,107,67); fill-rule: nonzero; opacity: 1;" vector-effect="non-scaling-stroke"  transform=" translate(-4.8, 10.64)" d="M 2.3594 -21.281 L 7.25 -21.281 L 7.25 0 L 2.3594 0 z" stroke-linecap="round" />
</g>
		<g transform="matrix(1.33 0 0 1.33 78.81 369.4)"  >
<path style="stroke: none; stroke-width: 1; stroke-dasharray: none; stroke-linecap: butt; stroke-dashoffset: 0; stroke-linejoin: miter; stroke-miterlimit: 4; fill: rgb(155,107,67); fill-rule: nonzero; opacity: 1;" vector-effect="non-scaling-stroke"  transform=" translate(-9.05, 4.63)" d="M 0.34375 -15.312 L 5.23435 -15.312 L 9.35935 -4.920999999999999 L 12.85935 -15.312 L 17.74995 -15.312 L 11.312449999999998 1.4539999999999988 C 10.664009999999998 3.149299999999999 9.910149999999998 4.336799999999998 9.04685 5.016499999999999 C 8.179659999999998 5.703999999999999 7.046849999999999 6.047699999999999 5.640649999999999 6.047699999999999 L 2.796849999999999 6.047699999999999 L 2.796849999999999 2.828899999999999 L 4.328049999999999 2.828899999999999 C 5.160079999999999 2.828899999999999 5.765549999999999 2.692179999999999 6.140549999999999 2.422649999999999 C 6.523359999999999 2.160929999999999 6.820239999999999 1.6921799999999991 7.0311699999999995 1.0164499999999992 L 7.17179 0.5945699999999992 z" stroke-linecap="round" />
</g>
		<g transform="matrix(1.33 0 0 1.33 119.79 361.97)"  >
<path style="stroke: none; stroke-width: 1; stroke-dasharray: none; stroke-linecap: butt; stroke-dashoffset: 0; stroke-linejoin: miter; stroke-miterlimit: 4; fill: rgb(155,107,67); fill-rule: nonzero; opacity: 1;" vector-effect="non-scaling-stroke"  transform=" translate(-11.79, 10.2)" d="M 10.047 -11.359 C 11.1486 -11.359 11.941500000000001 -11.56212 12.422 -11.96838 C 12.89856 -12.382439999999999 13.14075 -13.06218 13.14075 -13.99958 C 13.14075 -14.92536 12.89856 -15.58548 12.422 -15.983979999999999 C 11.94153 -16.39023 11.1486 -16.59336 10.047 -16.59336 L 7.828200000000001 -16.59336 L 7.828200000000001 -11.35896 z M 7.828200000000001 -7.7184 L 7.828200000000001 0.00039999999999995595 L 2.5782000000000007 0.00039999999999995595 L 2.5782000000000007 -20.4056 L 10.6094 -20.4056 C 13.2969 -20.4056 15.265600000000001 -19.95248 16.5156 -19.0462 C 17.7734 -18.147759999999998 18.4062 -16.7259 18.4062 -14.7806 C 18.4062 -13.4251 18.07808 -12.3158 17.421819999999997 -11.4525 C 16.773379999999996 -10.58531 15.796819999999997 -9.9525 14.484319999999997 -9.5463 C 15.203069999999997 -9.37833 15.843719999999998 -9.00333 16.406219999999998 -8.4213 C 16.976529999999997 -7.84708 17.554619999999996 -6.9721 18.14062 -5.7963000000000005 L 21.00002 0.0005999999999994898 L 15.390619999999998 0.0005999999999994898 L 12.906219999999998 -5.077500000000001 C 12.406219999999998 -6.097 11.894519999999998 -6.788400000000001 11.375019999999997 -7.155600000000001 C 10.863299999999997 -7.530600000000001 10.179719999999998 -7.718100000000001 9.328119999999998 -7.718100000000001 z" stroke-linecap="round" />
</g>
		<g transform="matrix(1.33 0 0 1.33 144.75 365.39)"  >
<path style="stroke: none; stroke-width: 1; stroke-dasharray: none; stroke-linecap: butt; stroke-dashoffset: 0; stroke-linejoin: miter; stroke-miterlimit: 4; fill: rgb(155,107,67); fill-rule: nonzero; opacity: 1;" vector-effect="non-scaling-stroke"  transform=" translate(-8.95, 7.65)" d="M 9.2188 -6.8906 C 8.1954 -6.8906 7.4258 -6.71872 6.9063 -6.37498 C 6.3945799999999995 -6.03123 6.14068 -5.51951 6.14068 -4.84378 C 6.14068 -4.21878 6.347709999999999 -3.72658 6.76568 -3.37498 C 7.17974 -3.03123 7.753959999999999 -2.8593599999999997 8.48448 -2.8593599999999997 C 9.41026 -2.8593599999999997 10.18758 -3.18748 10.81258 -3.8437399999999995 C 11.44539 -4.5078 11.7657 -5.335939999999999 11.7657 -6.328139999999999 L 11.7657 -6.890639999999999 z M 16.6876 -8.7344 L 16.6876 0 L 11.765699999999999 0 L 11.765699999999999 -2.2656 C 11.109449999999999 -1.3359100000000002 10.367299999999998 -0.6601000000000001 9.546899999999999 -0.23439999999999994 C 8.722679999999999 0.17966000000000004 7.722699999999999 0.39060000000000006 6.546899999999999 0.39060000000000006 C 4.9609999999999985 0.39060000000000006 3.675799999999999 -0.06642999999999993 2.687499999999999 -0.9843999999999999 C 1.6953099999999992 -1.91018 1.2030999999999992 -3.1132999999999997 1.2030999999999992 -4.5938 C 1.2030999999999992 -6.382899999999999 1.8163799999999992 -7.695399999999999 3.046899999999999 -8.5313 C 4.285199999999999 -9.37505 6.2265999999999995 -9.7969 8.875 -9.7969 L 11.7656 -9.7969 L 11.7656 -10.187520000000001 C 11.7656 -10.95705 11.457009999999999 -11.519520000000002 10.84372 -11.875020000000001 C 10.226529999999999 -12.2383 9.27342 -12.4219 7.984319999999999 -12.4219 C 6.92962 -12.4219 5.953119999999999 -12.31643 5.046819999999999 -12.1094 C 4.1483799999999995 -11.89846 3.3163199999999993 -11.58596 2.5468199999999994 -11.1719 L 2.5468199999999994 -14.906300000000002 C 3.5859199999999993 -15.156300000000002 4.632719999999999 -15.347710000000001 5.6874199999999995 -15.484420000000002 C 6.7499199999999995 -15.617230000000001 7.8124199999999995 -15.687540000000002 8.87492 -15.687540000000002 C 11.632719999999999 -15.687540000000002 13.62492 -15.140660000000002 14.84372 -14.046940000000003 C 16.07032 -12.961040000000002 16.68752 -11.191440000000004 16.68752 -8.734440000000003 z" stroke-linecap="round" />
</g>
		<g transform="matrix(1.33 0 0 1.33 170.66 369.17)"  >
<path style="stroke: none; stroke-width: 1; stroke-dasharray: none; stroke-linecap: butt; stroke-dashoffset: 0; stroke-linejoin: miter; stroke-miterlimit: 4; fill: rgb(155,107,67); fill-rule: nonzero; opacity: 1;" vector-effect="non-scaling-stroke"  transform=" translate(-9.48, 4.8)" d="M 12.766 -2.5938 C 12.09803 -1.70708 11.3598 -1.0508 10.5472 -0.6249999999999998 C 9.7347 -0.20702999999999977 8.7894 2.220446049250313e-16 7.7191 2.220446049250313e-16 C 5.8519000000000005 2.220446049250313e-16 4.3129 -0.7343799999999998 3.0941 -2.2031 C 1.8753 -3.6797 1.266 -5.5547 1.266 -7.8281 C 1.266 -10.1172 1.87538 -11.9922 3.0941 -13.4531 C 4.3129 -14.921899999999999 5.8519000000000005 -15.656199999999998 7.7191 -15.656199999999998 C 8.7894 -15.656199999999998 9.7347 -15.441359999999998 10.5472 -15.015579999999998 C 11.3597 -14.597609999999998 12.098 -13.941379999999999 12.766 -13.046779999999998 L 12.766 -15.312379999999997 L 17.6879 -15.312379999999997 L 17.6879 -1.5463799999999974 C 17.6879 0.9106200000000024 16.91056 2.789520000000002 15.3598 4.094220000000003 C 13.8051 5.395020000000002 11.5512 6.047320000000003 8.5942 6.047320000000003 C 7.64498 6.047320000000003 6.7231000000000005 5.973101000000002 5.828600000000001 5.828570000000003 C 4.930160000000001 5.680130000000003 4.031700000000001 5.457480000000003 3.1255000000000006 5.156690000000003 L 3.1255000000000006 1.3441900000000029 C 3.9887800000000007 1.832470000000003 4.828600000000001 2.195750000000003 5.641100000000001 2.4379900000000028 C 6.461410000000001 2.676270000000003 7.2895 2.7973700000000026 8.1255 2.7973700000000026 C 9.7271 2.7973700000000026 10.898900000000001 2.4458100000000025 11.641100000000002 1.7504700000000026 C 12.391100000000002 1.0512500000000027 12.766100000000002 -0.04642999999999731 12.766100000000002 -1.5464299999999973 z M 9.5472 -12.125 C 8.5355 -12.125 7.7425 -11.75 7.1722 -11 C 6.6097 -10.25781 6.32845 -9.2031 6.32845 -7.8281 C 6.32845 -6.4297 6.59798 -5.3672 7.14095 -4.6406 C 7.69173 -3.92185 8.49255 -3.5625 9.54715 -3.5625 C 10.566650000000001 -3.5625 11.35965 -3.92969 11.92215 -4.6719 C 12.48465 -5.4219 12.7659 -6.4727 12.7659 -7.8281 C 12.7659 -9.2031 12.48465 -10.2578 11.92215 -11 C 11.35965 -11.75 10.566650000000001 -12.125 9.54715 -12.125 z" stroke-linecap="round" />
</g>
		<g transform="matrix(1.33 0 0 1.33 191.16 361.39)"  >
<path style="stroke: none; stroke-width: 1; stroke-dasharray: none; stroke-linecap: butt; stroke-dashoffset: 0; stroke-linejoin: miter; stroke-miterlimit: 4; fill: rgb(155,107,67); fill-rule: nonzero; opacity: 1;" vector-effect="non-scaling-stroke"  transform=" translate(-4.8, 10.64)" d="M 2.3594 -21.281 L 7.25 -21.281 L 7.25 0 L 2.3594 0 z" stroke-linecap="round" />
</g>
		<g transform="matrix(1.33 0 0 1.33 210.1 365.39)"  >
<path style="stroke: none; stroke-width: 1; stroke-dasharray: none; stroke-linecap: butt; stroke-dashoffset: 0; stroke-linejoin: miter; stroke-miterlimit: 4; fill: rgb(155,107,67); fill-rule: nonzero; opacity: 1;" vector-effect="non-scaling-stroke"  transform=" translate(-9.42, 7.65)" d="M 17.641 -7.7031 L 17.641 -6.2969 L 6.187999999999999 -6.2969 C 6.312999999999999 -5.1485 6.727059999999999 -4.2890999999999995 7.437999999999999 -3.7188 C 8.145029999999998 -3.14458 9.141099999999998 -2.85942 10.4224 -2.85942 C 11.4536 -2.85942 12.5044 -3.00786 13.5786 -3.3125400000000003 C 14.6606 -3.6250400000000003 15.77 -4.08598 16.9067 -4.70314 L 16.9067 -0.9375400000000003 C 15.7505 -0.5000400000000003 14.5942 -0.1719200000000003 13.4379 0.04683999999999977 C 12.2817 0.27339999999999975 11.1254 0.39058999999999977 9.969100000000001 0.39058999999999977 C 7.1957 0.39058999999999977 5.0394000000000005 -0.3125300000000002 3.500300000000001 -1.7188100000000002 C 1.9691000000000012 -3.12501 1.2034000000000011 -5.09771 1.2034000000000011 -7.64071 C 1.2034000000000011 -10.14071 1.957310000000001 -12.10161 3.469000000000001 -13.531310000000001 C 4.976800000000001 -14.968810000000001 7.051000000000001 -15.687510000000001 9.687800000000001 -15.687510000000001 C 12.094000000000001 -15.687510000000001 14.0198 -14.957040000000001 15.469000000000001 -13.500010000000001 C 16.9143 -12.050810000000002 17.640900000000002 -10.117210000000002 17.640900000000002 -7.7031100000000015 z M 12.609799999999998 -9.3281 C 12.609799999999998 -10.253879999999999 12.336359999999997 -11 11.797299999999998 -11.5625 C 11.254329999999998 -12.13281 10.547299999999998 -12.42188 9.672299999999998 -12.42188 C 8.723079999999998 -12.42188 7.953499999999998 -12.15626 7.359799999999998 -11.625 C 6.766099999999998 -11.09374 6.394959999999998 -10.3281 6.250399999999998 -9.3281 z" stroke-linecap="round" />
</g>
		<g transform="matrix(1.33 0 0 1.33 -257.87 398.72)"  >
<path style="stroke: none; stroke-width: 1; stroke-dasharray: none; stroke-linecap: butt; stroke-dashoffset: 0; stroke-linejoin: miter; stroke-miterlimit: 4; fill: rgb(155,107,67); fill-rule: nonzero; opacity: 1;" vector-effect="non-scaling-stroke"  transform=" translate(-6.48, 10.64)" d="M 12.422 -21.281 L 12.422 -18.062199999999997 L 9.718900000000001 -18.062199999999997 C 9.031400000000001 -18.062199999999997 8.547 -17.937199999999997 8.265800000000002 -17.687199999999997 C 7.992360000000002 -17.437199999999997 7.859550000000002 -16.999699999999997 7.859550000000002 -16.374699999999997 L 7.859550000000002 -15.312199999999997 L 12.047050000000002 -15.312199999999997 L 12.047050000000002 -11.812199999999997 L 7.859550000000002 -11.812199999999997 L 7.859550000000002 -0.00019999999999775753 L 2.968950000000002 -0.00019999999999775753 L 2.968950000000002 -11.812199999999997 L 0.5314500000000022 -11.812199999999997 L 0.5314500000000022 -15.312199999999997 L 2.968950000000002 -15.312199999999997 L 2.968950000000002 -16.374699999999997 C 2.968950000000002 -18.0388 3.429890000000002 -19.273099999999996 4.359550000000002 -20.077799999999996 C 5.285330000000002 -20.878579999999996 6.726750000000003 -21.280899999999995 8.687650000000001 -21.280899999999995 z" stroke-linecap="round" />
</g>
		<g transform="matrix(1.33 0 0 1.33 -239.54 402.46)"  >
<path style="stroke: none; stroke-width: 1; stroke-dasharray: none; stroke-linecap: butt; stroke-dashoffset: 0; stroke-linejoin: miter; stroke-miterlimit: 4; fill: rgb(155,107,67); fill-rule: nonzero; opacity: 1;" vector-effect="non-scaling-stroke"  transform=" translate(-8.05, 7.84)" d="M 13.734 -11.141 C 13.2965 -11.33631 12.86291 -11.48475 12.437100000000001 -11.5785 C 12.01913 -11.68006 11.59726 -11.73475 11.171500000000002 -11.73475 C 9.909800000000002 -11.73475 8.941000000000003 -11.3285 8.265300000000002 -10.51595 C 7.585610000000002 -9.71126 7.249700000000002 -8.562850000000001 7.249700000000002 -7.06285 L 7.249700000000002 -0.0003500000000000725 L 2.3591000000000015 -0.0003500000000000725 L 2.3591000000000015 -15.312349999999999 L 7.249700000000002 -15.312349999999999 L 7.249700000000002 -12.79675 C 7.874700000000002 -13.79675 8.593500000000002 -14.523349999999999 9.405900000000003 -14.98425 C 10.226210000000002 -15.453 11.206700000000003 -15.68737 12.343400000000003 -15.68737 C 12.507460000000002 -15.68737 12.687150000000003 -15.675651 12.874650000000003 -15.65612 C 13.069960000000002 -15.644401 13.351210000000002 -15.617058 13.718400000000003 -15.577995 z" stroke-linecap="round" />
</g>
		<g transform="matrix(1.33 0 0 1.33 -219.04 402.72)"  >
<path style="stroke: none; stroke-width: 1; stroke-dasharray: none; stroke-linecap: butt; stroke-dashoffset: 0; stroke-linejoin: miter; stroke-miterlimit: 4; fill: rgb(155,107,67); fill-rule: nonzero; opacity: 1;" vector-effect="non-scaling-stroke"  transform=" translate(-9.62, 7.65)" d="M 9.6406 -12.188 C 8.554699999999999 -12.188 7.7265 -11.79738 7.156199999999999 -11.016100000000002 C 6.58198 -10.234850000000002 6.296819999999999 -9.109900000000001 6.296819999999999 -7.641100000000002 C 6.296819999999999 -6.172300000000002 6.58198 -5.047300000000002 7.156199999999999 -4.266100000000002 C 7.726509999999999 -3.4926600000000017 8.554599999999999 -3.1099000000000014 9.6406 -3.1099000000000014 C 10.7031 -3.1099000000000014 11.5156 -3.4927100000000015 12.0781 -4.266100000000002 C 12.648409999999998 -5.047350000000002 12.937479999999999 -6.172300000000002 12.937479999999999 -7.641100000000002 C 12.937479999999999 -9.109900000000001 12.64842 -10.234900000000001 12.0781 -11.016100000000002 C 11.5156 -11.797350000000002 10.7031 -12.188000000000002 9.6406 -12.188000000000002 z M 9.6406 -15.688 C 12.273399999999999 -15.688 14.331999999999999 -14.97316 15.8125 -13.5474 C 17.2891 -12.1294 18.0313 -10.1607 18.0313 -7.6411999999999995 C 18.0313 -5.1295 17.28911 -3.1606999999999994 15.812500000000002 -1.7349999999999994 C 14.332000000000003 -0.3169999999999995 12.273400000000002 0.39000000000000057 9.640600000000003 0.39000000000000057 C 6.992200000000002 0.39000000000000057 4.925800000000002 -0.3170299999999995 3.4375000000000027 -1.7349999999999994 C 1.9453000000000027 -3.160799999999999 1.2031000000000027 -5.129499999999999 1.2031000000000027 -7.6411999999999995 C 1.2031000000000027 -10.160699999999999 1.9452900000000026 -12.1295 3.4375000000000027 -13.5474 C 4.925800000000002 -14.9732 6.992200000000002 -15.687999999999999 9.640600000000003 -15.687999999999999 z" stroke-linecap="round" />
</g>
		<g transform="matrix(1.33 0 0 1.33 -186.7 402.46)"  >
<path style="stroke: none; stroke-width: 1; stroke-dasharray: none; stroke-linecap: butt; stroke-dashoffset: 0; stroke-linejoin: miter; stroke-miterlimit: 4; fill: rgb(155,107,67); fill-rule: nonzero; opacity: 1;" vector-effect="non-scaling-stroke"  transform=" translate(-14.65, 7.84)" d="M 16.547 -12.766 C 17.16028 -13.71131 17.8947 -14.437899999999999 18.7501 -14.937899999999999 C 19.60166 -15.437899999999999 20.5392 -15.687899999999999 21.5626 -15.687899999999999 C 23.3204 -15.687899999999999 24.6603 -15.14102 25.5782 -14.0473 C 26.50398 -12.9614 26.968799999999998 -11.3911 26.968799999999998 -9.3285 L 26.968799999999998 -0.0004000000000008441 L 22.046899999999997 -0.0004000000000008441 L 22.046899999999997 -7.984800000000001 L 22.046899999999997 -8.344180000000001 C 22.054712999999996 -8.47699 22.062524999999997 -8.66449 22.062524999999997 -8.906680000000001 C 22.062524999999997 -9.988680000000002 21.898464999999998 -10.769980000000002 21.578144999999996 -11.250480000000001 C 21.265644999999996 -11.738760000000001 20.753924999999995 -11.984860000000001 20.046944999999997 -11.984860000000001 C 19.117254999999997 -11.984860000000001 18.398545 -11.59814 17.890744999999995 -10.828660000000001 C 17.379024999999995 -10.06694 17.117304999999995 -8.96146 17.109494999999995 -7.516160000000001 L 17.109494999999995 -0.0005600000000010041 L 12.187594999999995 -0.0005600000000010041 L 12.187594999999995 -7.984960000000001 C 12.187594999999995 -9.68026 12.039154999999994 -10.77016 11.750094999999995 -11.25056 C 11.457124999999994 -11.73884 10.937594999999995 -11.98494 10.187594999999995 -11.98494 C 9.250094999999995 -11.98494 8.523494999999995 -11.59822 8.015694999999994 -10.82874 C 7.503974999999993 -10.06702 7.250074999999994 -8.969339999999999 7.250074999999994 -7.53184 L 7.250074999999994 -0.0006399999999997519 L 2.3281749999999937 -0.0006399999999997519 L 2.3281749999999937 -15.312639999999998 L 7.250074999999994 -15.312639999999998 L 7.250074999999994 -13.078239999999997 C 7.851634999999994 -13.941519999999997 8.539174999999993 -14.593839999999997 9.312574999999994 -15.031339999999997 C 10.093824999999994 -15.468839999999997 10.953174999999995 -15.687589999999997 11.890674999999995 -15.687589999999997 C 12.953174999999995 -15.687589999999997 13.890674999999995 -15.429779999999997 14.703174999999995 -14.921969999999996 C 15.515674999999995 -14.410249999999996 16.128974999999993 -13.691469999999997 16.546974999999996 -12.765769999999996 z" stroke-linecap="round" />
</g>
		<g transform="matrix(1.33 0 0 1.33 -145.56 399.81)"  >
<path style="stroke: none; stroke-width: 1; stroke-dasharray: none; stroke-linecap: butt; stroke-dashoffset: 0; stroke-linejoin: miter; stroke-miterlimit: 4; fill: rgb(155,107,67); fill-rule: nonzero; opacity: 1;" vector-effect="non-scaling-stroke"  transform=" translate(-6.56, 9.83)" d="M 7.7031 -19.656 L 7.7031 -15.312199999999999 L 12.75 -15.312199999999999 L 12.75 -11.812199999999999 L 7.7031 -11.812199999999999 L 7.7031 -5.312199999999999 C 7.7031 -4.601259999999999 7.84372 -4.124699999999999 8.12498 -3.874699999999999 C 8.40624 -3.624699999999999 8.960920000000002 -3.499699999999999 9.796880000000002 -3.499699999999999 L 12.31248 -3.499699999999999 L 12.31248 0.0003000000000010772 L 8.12498 0.0003000000000010772 C 6.187480000000001 0.0003000000000010772 4.812480000000001 -0.39813999999999894 3.9999800000000008 -1.202799999999999 C 3.195290000000001 -2.015299999999999 2.7968800000000007 -3.382499999999999 2.7968800000000007 -5.312199999999999 L 2.7968800000000007 -11.812199999999999 L 0.37498000000000076 -11.812199999999999 L 0.37498000000000076 -15.312199999999999 L 2.7968800000000007 -15.312199999999999 L 2.7968800000000007 -19.656 z" stroke-linecap="round" />
</g>
		<g transform="matrix(1.33 0 0 1.33 -123.07 398.72)"  >
<path style="stroke: none; stroke-width: 1; stroke-dasharray: none; stroke-linecap: butt; stroke-dashoffset: 0; stroke-linejoin: miter; stroke-miterlimit: 4; fill: rgb(155,107,67); fill-rule: nonzero; opacity: 1;" vector-effect="non-scaling-stroke"  transform=" translate(-10.05, 10.64)" d="M 17.75 -9.3281 L 17.75 0 L 12.8281 0 L 12.8281 -7.1094 C 12.8281 -8.4532 12.79685 -9.375 12.73435 -9.875 C 12.67185 -10.375 12.566379999999999 -10.74219 12.42185 -10.9844 C 12.23435 -11.2969 11.972629999999999 -11.539090000000002 11.6406 -11.71878 C 11.316379999999999 -11.89456 10.94529 -11.9844 10.531199999999998 -11.9844 C 9.507799999999998 -11.9844 8.706999999999999 -11.58596 8.124999999999998 -10.7969 C 7.539059999999998 -10.01565 7.249999999999998 -8.9258 7.249999999999998 -7.531300000000001 L 7.249999999999998 -0.00010000000000065512 L 2.359399999999998 -0.00010000000000065512 L 2.359399999999998 -21.2811 L 7.249999999999998 -21.2811 L 7.249999999999998 -13.078 C 7.988279999999998 -13.960809999999999 8.769499999999999 -14.617099999999999 9.593799999999998 -15.0468 C 10.425829999999998 -15.472579999999999 11.343799999999998 -15.68742 12.343799999999998 -15.68742 C 14.113299999999999 -15.68742 15.457099999999999 -15.14054 16.375 -14.04682 C 17.28906 -12.96092 17.75 -11.39062 17.75 -9.32802 z" stroke-linecap="round" />
</g>
		<g transform="matrix(1.33 0 0 1.33 -97.33 402.72)"  >
<path style="stroke: none; stroke-width: 1; stroke-dasharray: none; stroke-linecap: butt; stroke-dashoffset: 0; stroke-linejoin: miter; stroke-miterlimit: 4; fill: rgb(155,107,67); fill-rule: nonzero; opacity: 1;" vector-effect="non-scaling-stroke"  transform=" translate(-9.42, 7.65)" d="M 17.641 -7.7031 L 17.641 -6.2969 L 6.187999999999999 -6.2969 C 6.312999999999999 -5.1485 6.727059999999999 -4.2890999999999995 7.437999999999999 -3.7188 C 8.145029999999998 -3.14458 9.141099999999998 -2.85942 10.4224 -2.85942 C 11.4536 -2.85942 12.5044 -3.00786 13.5786 -3.3125400000000003 C 14.6606 -3.6250400000000003 15.77 -4.08598 16.9067 -4.70314 L 16.9067 -0.9375400000000003 C 15.7505 -0.5000400000000003 14.5942 -0.1719200000000003 13.4379 0.04683999999999977 C 12.2817 0.27339999999999975 11.1254 0.39058999999999977 9.969100000000001 0.39058999999999977 C 7.1957 0.39058999999999977 5.0394000000000005 -0.3125300000000002 3.500300000000001 -1.7188100000000002 C 1.9691000000000012 -3.12501 1.2034000000000011 -5.09771 1.2034000000000011 -7.64071 C 1.2034000000000011 -10.14071 1.957310000000001 -12.10161 3.469000000000001 -13.531310000000001 C 4.976800000000001 -14.968810000000001 7.051000000000001 -15.687510000000001 9.687800000000001 -15.687510000000001 C 12.094000000000001 -15.687510000000001 14.0198 -14.957040000000001 15.469000000000001 -13.500010000000001 C 16.9143 -12.050810000000002 17.640900000000002 -10.117210000000002 17.640900000000002 -7.7031100000000015 z M 12.609799999999998 -9.3281 C 12.609799999999998 -10.253879999999999 12.336359999999997 -11 11.797299999999998 -11.5625 C 11.254329999999998 -12.13281 10.547299999999998 -12.42188 9.672299999999998 -12.42188 C 8.723079999999998 -12.42188 7.953499999999998 -12.15626 7.359799999999998 -11.625 C 6.766099999999998 -11.09374 6.394959999999998 -10.3281 6.250399999999998 -9.3281 z" stroke-linecap="round" />
</g>
		<g transform="matrix(1.33 0 0 1.33 -55.95 399.31)"  >
<path style="stroke: none; stroke-width: 1; stroke-dasharray: none; stroke-linecap: butt; stroke-dashoffset: 0; stroke-linejoin: miter; stroke-miterlimit: 4; fill: rgb(155,107,67); fill-rule: nonzero; opacity: 1;" vector-effect="non-scaling-stroke"  transform=" translate(-11.72, 10.2)" d="M 2.5781 -20.406 L 8.4531 -20.406 L 15.875 -6.405999999999999 L 15.875 -20.406 L 20.8594 -20.406 L 20.8594 0 L 14.9844 0 L 7.562500000000001 -14 L 7.562500000000001 0 L 2.578100000000001 0 z" stroke-linecap="round" />
</g>
		<g transform="matrix(1.33 0 0 1.33 -27.51 402.72)"  >
<path style="stroke: none; stroke-width: 1; stroke-dasharray: none; stroke-linecap: butt; stroke-dashoffset: 0; stroke-linejoin: miter; stroke-miterlimit: 4; fill: rgb(155,107,67); fill-rule: nonzero; opacity: 1;" vector-effect="non-scaling-stroke"  transform=" translate(-9.62, 7.65)" d="M 9.6406 -12.188 C 8.554699999999999 -12.188 7.7265 -11.79738 7.156199999999999 -11.016100000000002 C 6.58198 -10.234850000000002 6.296819999999999 -9.109900000000001 6.296819999999999 -7.641100000000002 C 6.296819999999999 -6.172300000000002 6.58198 -5.047300000000002 7.156199999999999 -4.266100000000002 C 7.726509999999999 -3.4926600000000017 8.554599999999999 -3.1099000000000014 9.6406 -3.1099000000000014 C 10.7031 -3.1099000000000014 11.5156 -3.4927100000000015 12.0781 -4.266100000000002 C 12.648409999999998 -5.047350000000002 12.937479999999999 -6.172300000000002 12.937479999999999 -7.641100000000002 C 12.937479999999999 -9.109900000000001 12.64842 -10.234900000000001 12.0781 -11.016100000000002 C 11.5156 -11.797350000000002 10.7031 -12.188000000000002 9.6406 -12.188000000000002 z M 9.6406 -15.688 C 12.273399999999999 -15.688 14.331999999999999 -14.97316 15.8125 -13.5474 C 17.2891 -12.1294 18.0313 -10.1607 18.0313 -7.6411999999999995 C 18.0313 -5.1295 17.28911 -3.1606999999999994 15.812500000000002 -1.7349999999999994 C 14.332000000000003 -0.3169999999999995 12.273400000000002 0.39000000000000057 9.640600000000003 0.39000000000000057 C 6.992200000000002 0.39000000000000057 4.925800000000002 -0.3170299999999995 3.4375000000000027 -1.7349999999999994 C 1.9453000000000027 -3.160799999999999 1.2031000000000027 -5.129499999999999 1.2031000000000027 -7.6411999999999995 C 1.2031000000000027 -10.160699999999999 1.9452900000000026 -12.1295 3.4375000000000027 -13.5474 C 4.925800000000002 -14.9732 6.992200000000002 -15.687999999999999 9.640600000000003 -15.687999999999999 z" stroke-linecap="round" />
</g>
		<g transform="matrix(1.33 0 0 1.33 -1.51 402.97)"  >
<path style="stroke: none; stroke-width: 1; stroke-dasharray: none; stroke-linecap: butt; stroke-dashoffset: 0; stroke-linejoin: miter; stroke-miterlimit: 4; fill: rgb(155,107,67); fill-rule: nonzero; opacity: 1;" vector-effect="non-scaling-stroke"  transform=" translate(-9.88, 7.46)" d="M 2.1875 -5.9688 L 2.1875 -15.3126 L 7.1094 -15.3126 L 7.1094 -13.7814 C 7.1094 -12.945459999999999 7.101587 -11.9064 7.093775 -10.6564 C 7.082056 -9.4064 7.07815 -8.5705 7.07815 -8.1564 C 7.07815 -6.914199999999999 7.1094 -6.0236 7.1719 -5.4845 C 7.242213 -4.94153 7.35159 -4.55091 7.50002 -4.3126 C 7.70705 -3.98838 7.97268 -3.73838 8.2969 -3.5625999999999998 C 8.61721 -3.39463 8.98831 -3.3125999999999998 9.406300000000002 -3.3125999999999998 C 10.425800000000002 -3.3125999999999998 11.226600000000001 -3.70322 11.812500000000002 -4.4845 C 12.394530000000001 -5.26575 12.687500000000002 -6.351699999999999 12.687500000000002 -7.7501 L 12.687500000000002 -15.3126 L 17.578100000000003 -15.3126 L 17.578100000000003 -0.000600000000000378 L 12.687500000000004 -0.000600000000000378 L 12.687500000000004 -2.2194000000000003 C 11.945310000000003 -1.3209600000000004 11.164100000000003 -0.6608000000000003 10.343700000000004 -0.23500000000000032 C 9.519480000000003 0.17905999999999966 8.609300000000005 0.3899999999999997 7.609300000000004 0.3899999999999997 C 5.8476000000000035 0.3899999999999997 4.503800000000004 -0.1490600000000003 3.5781000000000036 -1.2350000000000003 C 2.6484100000000037 -2.317 2.1875000000000036 -3.8952000000000004 2.1875000000000036 -5.9694 z" stroke-linecap="round" />
</g>
		<g transform="matrix(1.33 0 0 1.33 25.3 402.46)"  >
<path style="stroke: none; stroke-width: 1; stroke-dasharray: none; stroke-linecap: butt; stroke-dashoffset: 0; stroke-linejoin: miter; stroke-miterlimit: 4; fill: rgb(155,107,67); fill-rule: nonzero; opacity: 1;" vector-effect="non-scaling-stroke"  transform=" translate(-10.05, 7.84)" d="M 17.75 -9.3281 L 17.75 0 L 12.8281 0 L 12.8281 -7.1406 C 12.8281 -8.4609 12.79685 -9.375 12.73435 -9.875 C 12.67185 -10.375 12.566379999999999 -10.74219 12.42185 -10.9844 C 12.23435 -11.2969 11.972629999999999 -11.539090000000002 11.6406 -11.71878 C 11.316379999999999 -11.89456 10.94529 -11.9844 10.531199999999998 -11.9844 C 9.507799999999998 -11.9844 8.706999999999999 -11.58596 8.124999999999998 -10.7969 C 7.539059999999998 -10.01565 7.249999999999998 -8.9258 7.249999999999998 -7.531300000000001 L 7.249999999999998 -0.00010000000000065512 L 2.359399999999998 -0.00010000000000065512 L 2.359399999999998 -15.312100000000001 L 7.249999999999998 -15.312100000000001 L 7.249999999999998 -13.0777 C 7.988279999999998 -13.96051 8.769499999999999 -14.6168 9.593799999999998 -15.0465 C 10.425829999999998 -15.47228 11.343799999999998 -15.68712 12.343799999999998 -15.68712 C 14.113299999999999 -15.68712 15.457099999999999 -15.14024 16.375 -14.046520000000001 C 17.28906 -12.96062 17.75 -11.390320000000001 17.75 -9.327720000000001 z" stroke-linecap="round" />
</g>
		<g transform="matrix(1.33 0 0 1.33 66.1 399.31)"  >
<path style="stroke: none; stroke-width: 1; stroke-dasharray: none; stroke-linecap: butt; stroke-dashoffset: 0; stroke-linejoin: miter; stroke-miterlimit: 4; fill: rgb(155,107,67); fill-rule: nonzero; opacity: 1;" vector-effect="non-scaling-stroke"  transform=" translate(-10.98, 10.2)" d="M 2.5781 -20.406 L 11.3125 -20.406 C 13.9063 -20.406 15.8945 -19.82788 17.2813 -18.671599999999998 C 18.675800000000002 -17.5232 19.375100000000003 -15.882499999999999 19.375100000000003 -13.749699999999997 C 19.375100000000003 -11.612999999999998 18.675880000000003 -9.968499999999997 17.2813 -8.812199999999997 C 15.894600000000002 -7.655999999999997 13.906300000000002 -7.077799999999997 11.312500000000002 -7.077799999999997 L 7.828100000000002 -7.077799999999997 L 7.828100000000002 0.00030000000000285354 L 2.578100000000002 0.00030000000000285354 z M 7.8281 -16.5935 L 7.8281 -10.8904 L 10.75 -10.8904 C 11.7695 -10.8904 12.5547 -11.1404 13.1094 -11.6404 C 13.6719 -12.1404 13.95315 -12.843499999999999 13.95315 -13.7498 C 13.95315 -14.66386 13.6719 -15.367 13.1094 -15.859200000000001 C 12.55471 -16.34748 11.7696 -16.593580000000003 10.75 -16.593580000000003 z" stroke-linecap="round" />
</g>
		<g transform="matrix(1.33 0 0 1.33 89.57 402.46)"  >
<path style="stroke: none; stroke-width: 1; stroke-dasharray: none; stroke-linecap: butt; stroke-dashoffset: 0; stroke-linejoin: miter; stroke-miterlimit: 4; fill: rgb(155,107,67); fill-rule: nonzero; opacity: 1;" vector-effect="non-scaling-stroke"  transform=" translate(-8.05, 7.84)" d="M 13.734 -11.141 C 13.2965 -11.33631 12.86291 -11.48475 12.437100000000001 -11.5785 C 12.01913 -11.68006 11.59726 -11.73475 11.171500000000002 -11.73475 C 9.909800000000002 -11.73475 8.941000000000003 -11.3285 8.265300000000002 -10.51595 C 7.585610000000002 -9.71126 7.249700000000002 -8.562850000000001 7.249700000000002 -7.06285 L 7.249700000000002 -0.0003500000000000725 L 2.3591000000000015 -0.0003500000000000725 L 2.3591000000000015 -15.312349999999999 L 7.249700000000002 -15.312349999999999 L 7.249700000000002 -12.79675 C 7.874700000000002 -13.79675 8.593500000000002 -14.523349999999999 9.405900000000003 -14.98425 C 10.226210000000002 -15.453 11.206700000000003 -15.68737 12.343400000000003 -15.68737 C 12.507460000000002 -15.68737 12.687150000000003 -15.675651 12.874650000000003 -15.65612 C 13.069960000000002 -15.644401 13.351210000000002 -15.617058 13.718400000000003 -15.577995 z" stroke-linecap="round" />
</g>
		<g transform="matrix(1.33 0 0 1.33 110.06 402.72)"  >
<path style="stroke: none; stroke-width: 1; stroke-dasharray: none; stroke-linecap: butt; stroke-dashoffset: 0; stroke-linejoin: miter; stroke-miterlimit: 4; fill: rgb(155,107,67); fill-rule: nonzero; opacity: 1;" vector-effect="non-scaling-stroke"  transform=" translate(-9.62, 7.65)" d="M 9.6406 -12.188 C 8.554699999999999 -12.188 7.7265 -11.79738 7.156199999999999 -11.016100000000002 C 6.58198 -10.234850000000002 6.296819999999999 -9.109900000000001 6.296819999999999 -7.641100000000002 C 6.296819999999999 -6.172300000000002 6.58198 -5.047300000000002 7.156199999999999 -4.266100000000002 C 7.726509999999999 -3.4926600000000017 8.554599999999999 -3.1099000000000014 9.6406 -3.1099000000000014 C 10.7031 -3.1099000000000014 11.5156 -3.4927100000000015 12.0781 -4.266100000000002 C 12.648409999999998 -5.047350000000002 12.937479999999999 -6.172300000000002 12.937479999999999 -7.641100000000002 C 12.937479999999999 -9.109900000000001 12.64842 -10.234900000000001 12.0781 -11.016100000000002 C 11.5156 -11.797350000000002 10.7031 -12.188000000000002 9.6406 -12.188000000000002 z M 9.6406 -15.688 C 12.273399999999999 -15.688 14.331999999999999 -14.97316 15.8125 -13.5474 C 17.2891 -12.1294 18.0313 -10.1607 18.0313 -7.6411999999999995 C 18.0313 -5.1295 17.28911 -3.1606999999999994 15.812500000000002 -1.7349999999999994 C 14.332000000000003 -0.3169999999999995 12.273400000000002 0.39000000000000057 9.640600000000003 0.39000000000000057 C 6.992200000000002 0.39000000000000057 4.925800000000002 -0.3170299999999995 3.4375000000000027 -1.7349999999999994 C 1.9453000000000027 -3.160799999999999 1.2031000000000027 -5.129499999999999 1.2031000000000027 -7.6411999999999995 C 1.2031000000000027 -10.160699999999999 1.9452900000000026 -12.1295 3.4375000000000027 -13.5474 C 4.925800000000002 -14.9732 6.992200000000002 -15.687999999999999 9.640600000000003 -15.687999999999999 z" stroke-linecap="round" />
</g>
		<g transform="matrix(1.33 0 0 1.33 127.11 402.74)"  >
<path style="stroke: none; stroke-width: 1; stroke-dasharray: none; stroke-linecap: butt; stroke-dashoffset: 0; stroke-linejoin: miter; stroke-miterlimit: 4; fill: rgb(155,107,67); fill-rule: nonzero; opacity: 1;" vector-effect="non-scaling-stroke"  transform=" translate(-3.16, 7.62)" d="M 2.3594 -15.312 L 7.25 -15.312 L 7.25 -0.2809999999999988 C 7.25 1.7698000000000014 6.75391 3.336200000000001 5.7656 4.422100000000001 C 4.7851300000000005 5.504100000000001 3.3594 6.047100000000001 1.4844 6.047100000000001 L -0.9375 6.047100000000001 L -0.9375 2.8283000000000014 L -0.07811999999999997 2.8283000000000014 C 0.8476600000000001 2.8283000000000014 1.48438 2.6173600000000015 1.82808 2.2033000000000014 C 2.17964 1.7853300000000014 2.35933 0.9572000000000014 2.35933 -0.2810999999999986 z M 2.3594 -21.2808 L 7.25 -21.2808 L 7.25 -17.2808 L 2.3594 -17.2808 z" stroke-linecap="round" />
</g>
		<g transform="matrix(1.33 0 0 1.33 148.25 402.72)"  >
<path style="stroke: none; stroke-width: 1; stroke-dasharray: none; stroke-linecap: butt; stroke-dashoffset: 0; stroke-linejoin: miter; stroke-miterlimit: 4; fill: rgb(155,107,67); fill-rule: nonzero; opacity: 1;" vector-effect="non-scaling-stroke"  transform=" translate(-9.42, 7.65)" d="M 17.641 -7.7031 L 17.641 -6.2969 L 6.187999999999999 -6.2969 C 6.312999999999999 -5.1485 6.727059999999999 -4.2890999999999995 7.437999999999999 -3.7188 C 8.145029999999998 -3.14458 9.141099999999998 -2.85942 10.4224 -2.85942 C 11.4536 -2.85942 12.5044 -3.00786 13.5786 -3.3125400000000003 C 14.6606 -3.6250400000000003 15.77 -4.08598 16.9067 -4.70314 L 16.9067 -0.9375400000000003 C 15.7505 -0.5000400000000003 14.5942 -0.1719200000000003 13.4379 0.04683999999999977 C 12.2817 0.27339999999999975 11.1254 0.39058999999999977 9.969100000000001 0.39058999999999977 C 7.1957 0.39058999999999977 5.0394000000000005 -0.3125300000000002 3.500300000000001 -1.7188100000000002 C 1.9691000000000012 -3.12501 1.2034000000000011 -5.09771 1.2034000000000011 -7.64071 C 1.2034000000000011 -10.14071 1.957310000000001 -12.10161 3.469000000000001 -13.531310000000001 C 4.976800000000001 -14.968810000000001 7.051000000000001 -15.687510000000001 9.687800000000001 -15.687510000000001 C 12.094000000000001 -15.687510000000001 14.0198 -14.957040000000001 15.469000000000001 -13.500010000000001 C 16.9143 -12.050810000000002 17.640900000000002 -10.117210000000002 17.640900000000002 -7.7031100000000015 z M 12.609799999999998 -9.3281 C 12.609799999999998 -10.253879999999999 12.336359999999997 -11 11.797299999999998 -11.5625 C 11.254329999999998 -12.13281 10.547299999999998 -12.42188 9.672299999999998 -12.42188 C 8.723079999999998 -12.42188 7.953499999999998 -12.15626 7.359799999999998 -11.625 C 6.766099999999998 -11.09374 6.394959999999998 -10.3281 6.250399999999998 -9.3281 z" stroke-linecap="round" />
</g>
		<g transform="matrix(1.33 0 0 1.33 171.63 402.72)"  >
<path style="stroke: none; stroke-width: 1; stroke-dasharray: none; stroke-linecap: butt; stroke-dashoffset: 0; stroke-linejoin: miter; stroke-miterlimit: 4; fill: rgb(155,107,67); fill-rule: nonzero; opacity: 1;" vector-effect="non-scaling-stroke"  transform=" translate(-7.96, 7.65)" d="M 14.719 -14.828 L 14.719 -10.843599999999999 C 14.06275 -11.300629999999998 13.3948 -11.640479999999998 12.719 -11.859199999999998 C 12.051029999999999 -12.077949999999998 11.3596 -12.187319999999998 10.640899999999998 -12.187319999999998 C 9.273699999999998 -12.187319999999998 8.207299999999998 -11.784979999999997 7.437799999999998 -10.984219999999997 C 6.676079999999999 -10.191249999999997 6.297199999999998 -9.078019999999997 6.297199999999998 -7.640419999999997 C 6.297199999999998 -6.210719999999997 6.676109999999999 -5.097419999999997 7.437799999999998 -4.296619999999997 C 8.207329999999999 -3.5036499999999973 9.273699999999998 -3.109119999999997 10.640899999999998 -3.109119999999997 C 11.398709999999998 -3.109119999999997 12.1253 -3.218499999999997 12.8128 -3.4372399999999974 C 13.5003 -3.6637999999999975 14.133099999999999 -4.003649999999998 14.719 -4.4528399999999975 L 14.719 -0.45283999999999747 C 13.957279999999999 -0.17158999999999747 13.1799 0.035440000000002525 12.390899999999998 0.17216000000000253 C 11.609649999999998 0.3166900000000025 10.816699999999999 0.39091000000000253 10.015899999999998 0.39091000000000253 C 7.254199999999999 0.39091000000000253 5.0939999999999985 -0.3161199999999975 3.5314999999999985 -1.7340899999999975 C 1.9767999999999986 -3.1481899999999974 1.2033999999999985 -5.116889999999998 1.2033999999999985 -7.640289999999998 C 1.2033999999999985 -10.171489999999999 1.9768399999999984 -12.144189999999998 3.5314999999999985 -13.562189999999998 C 5.0939999999999985 -14.976289999999997 7.254199999999999 -15.687189999999998 10.015899999999998 -15.687189999999998 C 10.816679999999998 -15.687189999999998 11.609699999999998 -15.612970999999998 12.390899999999998 -15.468439999999998 C 13.172149999999998 -15.331719999999997 13.945599999999999 -15.116879999999998 14.718999999999998 -14.827819999999997 z" stroke-linecap="round" />
</g>
		<g transform="matrix(1.33 0 0 1.33 191.89 399.81)"  >
<path style="stroke: none; stroke-width: 1; stroke-dasharray: none; stroke-linecap: butt; stroke-dashoffset: 0; stroke-linejoin: miter; stroke-miterlimit: 4; fill: rgb(155,107,67); fill-rule: nonzero; opacity: 1;" vector-effect="non-scaling-stroke"  transform=" translate(-6.56, 9.83)" d="M 7.7031 -19.656 L 7.7031 -15.312199999999999 L 12.75 -15.312199999999999 L 12.75 -11.812199999999999 L 7.7031 -11.812199999999999 L 7.7031 -5.312199999999999 C 7.7031 -4.601259999999999 7.84372 -4.124699999999999 8.12498 -3.874699999999999 C 8.40624 -3.624699999999999 8.960920000000002 -3.499699999999999 9.796880000000002 -3.499699999999999 L 12.31248 -3.499699999999999 L 12.31248 0.0003000000000010772 L 8.12498 0.0003000000000010772 C 6.187480000000001 0.0003000000000010772 4.812480000000001 -0.39813999999999894 3.9999800000000008 -1.202799999999999 C 3.195290000000001 -2.015299999999999 2.7968800000000007 -3.382499999999999 2.7968800000000007 -5.312199999999999 L 2.7968800000000007 -11.812199999999999 L 0.37498000000000076 -11.812199999999999 L 0.37498000000000076 -15.312199999999999 L 2.7968800000000007 -15.312199999999999 L 2.7968800000000007 -19.656 z" stroke-linecap="round" />
</g>
</g>
</g>
<g transform="matrix(NaN NaN NaN NaN 0 0)"  >
<g style=""   >
</g>
</g>
<g transform="matrix(NaN NaN NaN NaN 0 0)"  >
<g style=""   >
</g>
</g>
<g transform="matrix(1 0 0 1 556.81 576.22)" style="" id="8729ab62-a1a4-4eee-a938-51c607f2e2d0"  >
		<text xml:space="preserve" font-family="Alegreya" font-size="80" font-style="normal" font-weight="700" style="stroke: none; stroke-width: 1; stroke-dasharray: none; stroke-linecap: butt; stroke-dashoffset: 0; stroke-linejoin: miter; stroke-miterlimit: 4; fill: rgb(155,107,67); fill-rule: nonzero; opacity: 1; white-space: pre;" ><tspan x="-78.96" y="25.13" >J &amp; P</tspan></text>
</g>
</svg>