
<!DOCTYPE svg PUBLIC "-//W3C//DTD SVG 20010904//EN"
 "http://www.w3.org/TR/2001/REC-SVG-20010904/DTD/svg10.dtd">
<svg version="1.0" xmlns="http://www.w3.org/2000/svg"
 width="500.000000pt" height="525.000000pt" viewBox="0 0 300.000000 225.000000"
 preserveAspectRatio="xMidYMid meet">
<metadata>
Created by potrace 1.10, written by Peter Selinger 2001-2011
</metadata>
<g transform="translate(0.000000,225.000000) scale(0.100000,-0.100000)"
fill="#000000" stroke="none">
<path d="M2462 2030 c5 -14 -7 -16 -86 -14 -88 3 -156 -9 -156 -26 0 -10 -57
-25 -80 -22 -9 2 -29 -12 -45 -29 -17 -18 -24 -29 -18 -25 9 5 11 2 7 -8 -3
-8 -12 -12 -19 -10 -16 6 -29 -12 -15 -21 5 -3 10 -12 10 -18 0 -8 -3 -7 -9 2
-7 11 -13 10 -30 -6 -21 -19 -84 -133 -74 -133 3 0 19 11 35 26 17 14 37 23
44 20 8 -3 14 0 14 7 0 8 4 6 10 -3 8 -12 10 -12 10 -1 0 8 7 11 20 8 11 -3
22 -2 25 3 3 4 -4 10 -15 13 -11 3 -23 1 -26 -4 -6 -11 -24 -2 -24 12 0 6 5 7
12 3 7 -4 8 -3 4 4 -4 8 -2 10 7 6 8 -3 18 -1 22 5 9 16 15 52 7 47 -4 -2 -15
2 -25 9 -16 12 -14 13 18 10 31 -3 35 -1 24 11 -9 12 -9 20 1 39 14 25 30 33
30 15 0 -7 6 -7 20 0 14 8 26 8 41 -1 16 -8 28 -8 46 0 28 13 36 14 29 3 -2
-4 11 -12 29 -18 19 -6 32 -7 29 -2 -3 4 4 8 15 8 11 0 23 -4 26 -10 3 -5 1
-10 -6 -10 -7 0 -10 -3 -7 -6 4 -3 18 2 33 12 27 17 28 17 44 -2 9 -10 25 -26
35 -34 18 -14 19 -14 6 10 -7 13 -20 31 -27 39 -25 24 8 34 34 9 l22 -20 -6
21 c-3 11 -9 19 -13 16 -5 -3 -11 -1 -15 4 -3 6 -12 8 -19 5 -7 -3 -20 2 -29
10 -8 8 -17 13 -21 11 -3 -3 -2 1 4 7 8 10 21 6 58 -13 41 -22 47 -29 48 -57
1 -40 4 -43 32 -35 18 4 20 8 10 20 -10 13 -13 13 -18 -3 -4 -11 -9 -14 -13
-7 -4 6 0 18 8 27 14 13 13 17 -7 37 l-23 22 35 -21 c19 -12 34 -29 34 -37 -1
-8 2 -15 7 -15 5 0 9 6 10 13 0 6 4 2 9 -10 5 -13 14 -23 20 -23 5 0 10 -12
11 -27 0 -16 3 -23 5 -16 3 7 13 9 22 6 13 -4 14 -3 3 5 -8 6 -11 18 -7 30 4
11 2 23 -4 27 -5 3 -10 1 -10 -4 0 -6 -9 -3 -19 7 -11 9 -31 25 -45 35 -15 10
-24 22 -22 26 5 8 -3 10 -48 14 -13 1 -22 5 -20 8 2 4 -4 13 -13 20 -14 12
-16 12 -11 -1z m-113 -35 c2 -3 -1 -11 -8 -18 -9 -8 -15 -8 -17 -2 -2 6 -22 9
-44 7 -43 -4 -57 13 -17 21 24 5 77 0 86 -8z m56 -25 c12 -19 -5 -30 -25 -17
-11 6 -20 15 -20 19 0 12 38 10 45 -2z m-355 -139 c0 -5 -7 -14 -15 -21 -8 -7
-13 -16 -10 -20 3 -4 -4 -10 -15 -13 -23 -6 -22 11 2 34 10 9 15 19 11 23 -3
3 1 6 10 6 10 0 17 -4 17 -9z"/>
<path d="M2666 1933 c8 -14 13 -31 10 -39 -4 -10 2 -13 19 -12 14 1 25 7 26
13 0 5 4 0 10 -13 5 -13 13 -21 18 -18 5 3 14 -1 21 -9 17 -20 30 -19 30 4 0
13 -7 19 -25 19 -32 0 -44 10 -25 22 13 8 13 10 1 10 -8 0 -25 10 -38 22 -13
12 -32 22 -43 23 -19 2 -19 0 -4 -22z"/>
<path d="M2120 1926 c-16 -16 -12 -30 4 -16 13 10 14 7 10 -16 -4 -24 -3 -26
11 -14 8 7 13 15 11 18 -3 2 5 13 17 23 l22 19 -33 -2 c-18 -1 -37 -7 -42 -12z"/>
<path d="M2223 1917 c-17 -7 -35 -16 -40 -21 -14 -14 61 5 77 20 17 17 7 17
-37 1z"/>
<path d="M2573 1895 c-18 -20 -16 -30 2 -15 12 10 15 10 15 -3 0 -9 4 -18 8
-21 12 -7 8 32 -4 43 -5 6 -14 4 -21 -4z"/>
<path d="M2110 1851 c0 -5 4 -11 10 -13 14 -4 19 -87 6 -92 -6 -2 0 -5 14 -5
20 -1 22 -3 10 -11 -9 -6 -10 -10 -3 -10 6 0 13 -8 15 -17 3 -16 4 -16 10 -2
4 9 0 28 -7 43 -8 15 -11 24 -6 22 4 -3 2 14 -6 39 -13 38 -43 70 -43 46z"/>
<path d="M2667 1843 c-4 -3 -7 -13 -6 -22 0 -12 3 -11 9 4 8 18 10 16 14 -14
2 -15 16 -25 16 -12 0 7 5 9 10 6 18 -11 10 10 -10 28 -23 19 -24 20 -33 10z"/>
<path d="M2735 1840 c-5 -9 -4 -15 3 -18 7 -2 12 -10 12 -18 0 -19 16 -18 24
2 8 22 8 24 -8 24 -8 0 -16 5 -18 12 -3 9 -7 8 -13 -2z"/>
<path d="M2789 1820 c-3 -20 -4 -25 -12 -38 -5 -7 -13 -9 -19 -6 -7 4 -8 2 -4
-4 4 -7 16 -12 26 -12 29 0 50 -11 50 -26 0 -13 34 -54 45 -54 2 0 2 7 -2 16
-5 14 -3 14 16 3 11 -8 21 -21 21 -30 0 -19 28 -89 36 -89 3 0 2 16 -2 36 -6
31 -4 36 12 32 19 -3 25 -42 9 -67 -6 -11 -4 -13 8 -8 21 8 23 -27 3 -63 l-14
-24 -12 42 -13 41 -59 -3 c-32 -2 -62 -6 -66 -11 -4 -4 0 -6 8 -3 8 3 21 -2
27 -11 11 -14 14 -14 23 -1 12 19 13 8 0 -24 -11 -31 -4 -33 18 -6 29 34 66
-14 38 -49 -9 -12 -8 -13 7 -8 16 6 16 5 0 -20 l-18 -27 -5 24 c-3 16 -13 26
-27 28 -13 2 -23 -1 -23 -7 0 -6 6 -8 13 -5 7 2 13 -4 14 -16 1 -11 -2 -20 -6
-20 -12 0 -20 -49 -10 -56 5 -3 9 -13 9 -22 0 -13 -2 -14 -9 -4 -6 10 -10 10
-21 -2 -7 -9 -16 -13 -22 -10 -5 3 -4 12 3 20 6 8 9 17 6 20 -3 3 -10 -4 -17
-15 -6 -12 -7 -21 -3 -21 4 0 -1 -6 -11 -13 -11 -8 -16 -21 -14 -33 4 -16 7
-14 18 11 7 17 14 25 17 17 3 -7 -2 -23 -11 -36 -14 -22 -14 -25 0 -30 8 -3
12 -2 9 3 -6 11 13 26 22 17 10 -10 -18 -36 -39 -36 -11 0 -22 -9 -25 -20 -3
-11 -9 -17 -14 -14 -5 3 -9 2 -8 -3 3 -19 -2 -27 -10 -14 -6 9 -8 5 -8 -13 0
-15 -9 -36 -19 -47 -14 -15 -15 -20 -4 -17 8 2 23 13 32 25 14 16 26 21 51 18
21 -3 27 -1 18 4 -11 7 -9 11 7 20 12 6 27 30 33 52 7 22 21 46 31 53 12 8 16
19 12 30 -6 15 -8 14 -18 -5 -14 -29 -32 -34 -40 -14 -9 24 5 41 16 20 9 -15
11 -15 22 6 8 16 10 30 4 42 -12 24 6 47 33 40 15 -4 18 -2 13 11 -8 20 9 21
26 1 25 -30 -30 -61 -58 -33 -16 16 -15 -4 1 -27 10 -12 16 -14 21 -7 4 7 17
12 28 12 21 0 21 0 3 -20 -10 -12 -25 -18 -32 -15 -8 2 -12 1 -9 -4 3 -5 15
-11 26 -14 11 -3 17 -1 14 5 -3 5 2 18 12 29 10 11 19 33 20 48 1 22 -4 32
-25 41 -15 7 -21 15 -13 17 6 3 12 16 12 29 0 13 4 24 8 24 17 0 33 70 27 113
-8 55 -16 68 -43 70 -17 1 -21 6 -17 26 9 48 -28 79 -55 46 -12 -14 -15 -14
-31 1 -26 23 -25 47 1 39 17 -5 19 -3 11 17 -4 13 -13 23 -19 23 -6 0 -14 3
-18 8 -11 10 -34 9 -35 -3z m45 -621 c-10 -11 -27 -25 -36 -30 -16 -9 -17 -7
-7 15 6 13 17 22 24 20 7 -3 16 -1 20 5 3 6 9 11 12 11 3 0 -2 -9 -13 -21z"/>
<path d="M1045 1815 c24 -8 116 -12 103 -4 -7 5 -35 8 -63 8 -27 0 -45 -2 -40
-4z"/>
<path d="M2378 1775 c10 -20 12 -27 12 -45 0 -19 16 -10 17 9 1 11 -8 27 -19
38 -20 18 -21 18 -10 -2z"/>
<path d="M1115 1757 c-27 -8 -61 -19 -75 -27 -37 -19 -151 -111 -180 -144 -62
-72 -129 -226 -154 -356 -16 -89 -21 -236 -7 -245 6 -3 8 -11 5 -17 -9 -14
-11 -166 -3 -179 13 -21 -2 -47 -22 -42 -23 6 -89 -26 -89 -42 0 -22 -22 -35
-43 -24 -14 8 -18 8 -12 0 4 -7 1 -18 -5 -26 -14 -17 1 -20 17 -4 19 19 35 1
22 -24 -16 -29 -14 -28 -33 -21 -9 3 -13 10 -10 15 9 15 -13 10 -25 -5 -9 -11
-8 -17 6 -28 10 -7 34 -31 52 -53 19 -22 32 -32 28 -22 -4 10 -7 29 -7 42 0
18 -4 22 -19 18 -14 -4 -10 6 17 36 21 22 38 36 40 31 2 -5 12 0 24 12 15 15
22 17 28 8 4 -7 10 -8 13 -3 3 4 -1 17 -9 28 -11 15 -14 16 -14 3 0 -20 -34
-29 -54 -14 -11 8 -13 15 -6 26 5 8 10 11 10 6 0 -5 7 -3 15 4 8 7 22 10 30 6
18 -7 20 10 3 18 -7 3 3 4 22 3 l35 -2 11 73 c6 39 7 72 3 72 -8 0 -1 178 8
193 4 6 1 7 -7 2 -8 -5 -11 -2 -7 11 3 11 9 58 13 106 3 48 9 86 13 83 4 -2 6
8 5 23 -2 28 27 92 43 94 4 1 20 28 34 62 30 71 66 132 75 128 3 -2 12 5 20
15 13 17 13 17 14 0 0 -10 -5 -27 -10 -38 -6 -10 -8 -19 -5 -19 3 0 15 21 28
47 22 46 67 85 154 134 l36 21 -18 -29 -18 -28 24 22 c13 12 38 24 54 27 26 6
27 5 8 -3 -34 -15 -28 -21 9 -10 42 12 61 11 53 -1 -3 -6 4 -10 16 -10 12 0
19 -3 16 -7 -12 -11 14 -33 39 -33 12 0 26 -5 30 -11 3 -6 15 -9 25 -6 11 3
19 2 19 -2 0 -4 12 -13 26 -19 20 -10 24 -17 19 -34 -6 -18 -5 -19 8 -7 8 8
12 18 9 23 -8 13 63 0 101 -19 l32 -16 -40 41 c-22 22 -45 38 -52 36 -7 -3
-15 0 -19 6 -4 7 -3 8 4 4 7 -4 12 -5 12 -1 0 3 -10 9 -22 14 -17 6 -27 4 -36
-8 -11 -14 -12 -13 -7 7 4 13 2 22 -4 22 -6 0 -11 -4 -11 -9 0 -12 -54 -3 -58
10 -2 5 -9 9 -16 9 -8 0 -24 11 -38 24 -30 31 -120 41 -193 23z"/>
<path d="M2005 1714 c20 -16 20 -16 0 -14 -11 1 -24 1 -30 0 -5 -2 -18 -3 -27
-4 -10 -1 -18 -5 -18 -11 0 -10 8 -12 58 -14 15 -1 22 -7 22 -21 0 -21 14 -27
24 -11 4 5 0 12 -6 14 -7 3 1 6 18 6 42 1 49 -9 18 -29 -14 -10 -25 -20 -24
-24 2 -15 -30 -36 -55 -36 -18 0 -40 13 -64 38 l-38 37 -53 -58 c-47 -51 -52
-61 -42 -78 14 -22 15 -32 3 -25 -4 3 -19 -6 -32 -21 -13 -14 -18 -23 -11 -19
6 4 12 2 12 -3 0 -6 -5 -11 -12 -11 -6 0 -9 -3 -6 -6 3 -3 15 0 27 8 25 15 53
-4 34 -23 -8 -8 -6 -22 9 -51 11 -21 18 -41 16 -44 -3 -2 -24 14 -48 37 -34
33 -41 37 -35 17 5 -12 15 -28 23 -34 20 -14 25 -46 9 -56 -9 -6 -9 -8 1 -8 8
0 27 13 43 29 29 30 37 51 19 51 -5 0 -7 6 -4 13 3 8 0 40 -6 73 -23 123 -23
117 3 142 24 23 25 23 38 4 8 -10 39 -35 69 -55 64 -43 113 -48 154 -16 33 26
50 56 36 64 -6 4 -10 3 -9 -2 1 -4 1 -15 0 -23 -1 -13 -3 -13 -12 0 -9 13 -10
12 -5 -2 8 -26 -34 -50 -81 -46 l-38 3 35 16 c20 9 49 32 64 50 29 34 63 45
58 19 -1 -9 6 -5 18 9 11 13 20 28 20 35 0 6 -7 3 -14 -6 -19 -26 -25 -22 -21
16 1 18 0 38 -4 43 -9 13 -41 24 -41 14 0 -5 -9 -7 -20 -4 -11 3 -20 0 -20 -6
0 -6 7 -8 17 -4 11 4 14 3 9 -5 -4 -7 -21 -12 -37 -12 -28 0 -29 1 -14 17 16
15 15 17 -7 29 -32 18 -47 17 -23 -2z m130 -44 c3 -6 -1 -13 -9 -16 -9 -3 -13
-10 -10 -15 3 -5 -1 -12 -9 -15 -9 -3 -21 -19 -27 -35 -7 -16 -19 -29 -27 -29
-8 0 -12 -4 -9 -9 9 -14 -12 -18 -64 -11 -55 7 -128 56 -110 74 8 8 16 5 29
-10 19 -24 59 -48 81 -49 26 -1 69 24 81 48 7 12 19 27 27 33 12 9 12 13 2 19
-10 6 -9 9 1 16 19 12 36 11 44 -1z"/>
<path d="M2839 1658 c3 -24 6 -35 9 -25 2 9 8 17 13 17 11 0 8 -38 -4 -57 -12
-19 6 -15 23 5 20 22 15 73 -6 65 -10 -4 -17 2 -21 16 -9 37 -19 23 -14 -21z"/>
<path d="M2803 1658 c3 -21 2 -38 -4 -38 -5 0 -9 -4 -9 -10 0 -5 7 -10 15 -10
11 0 14 10 11 40 -2 22 -7 44 -11 48 -4 4 -5 -10 -2 -30z"/>
<path d="M2198 1599 c-25 -24 -27 -28 -8 -17 22 13 28 13 63 -6 26 -14 34 -22
23 -24 -9 -2 -16 -10 -16 -18 0 -8 -11 -19 -25 -26 -13 -6 -22 -15 -19 -20 4
-5 16 0 28 11 12 12 26 18 30 14 4 -4 4 1 0 11 -5 14 -4 17 4 12 7 -4 12 -2
12 3 0 6 3 10 8 10 4 -1 19 -1 33 0 21 1 27 6 27 26 0 14 -5 25 -10 25 -5 0
-6 -4 -3 -10 10 -16 -7 -12 -28 8 -11 9 -17 11 -13 4 9 -16 -20 -28 -37 -14
-6 6 -16 10 -22 10 -5 0 -11 5 -13 10 -2 6 6 8 19 5 15 -4 20 -3 15 5 -12 20
-34 14 -68 -19z"/>
<path d="M1480 1592 c0 -4 9 -13 20 -20 12 -7 18 -18 14 -24 -5 -7 -3 -8 6 -3
8 5 21 -3 36 -21 27 -34 31 -52 7 -33 -10 8 -3 -4 15 -26 17 -22 32 -43 32
-48 0 -4 11 -18 25 -30 18 -15 27 -35 30 -65 3 -27 1 -40 -5 -37 -6 4 -8 10
-6 14 3 4 -4 17 -14 29 -11 12 -20 25 -20 30 0 6 -12 13 -26 16 -33 9 -51 27
-60 60 -3 14 -11 26 -17 26 -6 0 -7 3 -4 7 4 3 -1 15 -10 26 -14 15 -15 21 -5
24 10 4 9 9 -4 24 -24 27 -37 13 -19 -22 9 -16 13 -29 10 -29 -3 0 2 -11 11
-25 9 -14 12 -25 6 -25 -6 0 -6 -9 1 -25 7 -14 18 -25 25 -25 6 0 12 -5 12
-11 0 -12 29 -38 43 -39 5 0 5 6 1 13 -4 6 8 -3 25 -22 18 -18 29 -36 26 -39
-3 -3 -11 0 -17 6 -27 27 -198 4 -198 -27 0 -5 -3 -16 -6 -24 -4 -12 3 -11 35
5 51 25 155 36 176 18 10 -9 15 -31 15 -75 0 -34 7 -82 15 -105 8 -23 15 -63
15 -89 0 -39 -7 -70 -42 -191 -3 -8 -3 -12 -1 -7 3 4 8 5 12 2 5 -2 19 7 31
20 18 20 21 28 12 37 -22 22 -14 48 16 49 l27 0 -22 16 c-24 16 -30 47 -12 59
6 3 9 17 6 30 -5 31 4 37 37 24 43 -16 29 -1 -21 23 -40 18 -49 28 -56 60 -14
57 -3 87 32 87 16 0 34 7 41 15 10 12 7 15 -14 21 -24 6 -25 9 -20 48 3 22 7
46 9 53 2 6 0 24 -5 40 -6 21 -9 23 -10 8 -1 -20 -1 -20 -9 0 -5 11 -14 20
-21 20 -8 0 -18 16 -23 35 -7 30 -42 85 -87 138 -12 13 -70 17 -70 4z"/>
<path d="M1275 1579 c-16 -5 -34 -18 -40 -31 -11 -24 -37 -38 -33 -16 2 7 8
16 13 20 7 5 7 8 0 8 -29 0 -95 -88 -134 -177 -37 -84 -40 -107 -9 -67 13 16
32 37 43 47 11 10 14 16 8 12 -7 -3 -1 18 14 47 14 29 26 58 26 64 0 7 5 10
11 8 6 -2 29 10 51 26 22 17 55 37 73 45 17 8 32 17 32 18 0 6 -24 4 -55 -4z"/>
<path d="M1365 1580 c-4 -6 -1 -9 6 -8 6 2 13 -2 16 -8 4 -12 -48 -57 -107
-90 -32 -19 -56 -39 -145 -119 l-30 -27 32 22 c18 11 35 25 38 30 3 5 43 35
88 66 45 32 94 69 110 82 l27 26 20 -22 c26 -27 30 -27 23 -2 -3 11 -11 20
-19 20 -8 0 -11 6 -7 17 4 11 3 14 -6 9 -6 -4 -18 -3 -26 4 -9 8 -15 8 -20 0z"/>
<path d="M2400 1551 c-8 -6 -18 -7 -24 -4 -5 3 -6 1 -2 -5 3 -6 0 -14 -7 -19
-8 -4 -19 -19 -26 -33 -9 -18 -3 -15 21 13 31 35 65 55 38 22 -14 -16 -3 -20
19 -6 9 6 10 11 2 15 -6 4 -9 12 -6 17 8 11 4 11 -15 0z"/>
<path d="M2176 1495 c-3 -8 -1 -17 5 -21 6 -4 6 -12 -3 -22 -10 -14 -10 -15 2
-5 11 10 16 9 26 -5 7 -9 15 -14 18 -11 4 3 -5 17 -19 32 -17 16 -22 26 -13
29 8 3 9 6 1 11 -6 4 -13 0 -17 -8z"/>
<path d="M2420 1469 c0 -5 -4 -7 -10 -4 -6 3 -7 -1 -4 -10 4 -9 -2 -25 -11
-35 -11 -12 -13 -20 -7 -20 7 0 12 4 12 9 0 5 18 12 40 16 22 4 43 11 46 17 4
7 9 6 13 -1 5 -8 13 -7 27 4 18 13 18 14 -6 9 -20 -5 -22 -3 -10 5 9 7 10 11
3 11 -6 0 -15 -4 -18 -10 -9 -15 -25 -12 -25 5 0 8 -5 15 -11 15 -5 0 -7 -4
-4 -10 3 -5 0 -10 -7 -10 -9 0 -9 -3 2 -10 12 -7 10 -9 -8 -7 -16 1 -21 6 -16
19 3 10 3 18 0 18 -3 0 -6 -5 -6 -11z"/>
<path d="M2050 1439 c0 -21 22 -40 35 -31 6 4 17 16 25 27 15 20 14 20 -8 1
-22 -19 -23 -19 -37 0 -12 16 -14 16 -15 3z"/>
<path d="M2802 1420 c-15 -25 -15 -33 1 -23 6 4 20 6 30 5 11 -2 17 3 16 15 0
10 -3 13 -6 6 -2 -7 -9 -13 -15 -13 -6 0 -8 7 -4 15 8 22 -7 18 -22 -5z"/>
<path d="M2210 1345 c99 -107 96 -104 72 -70 -11 17 -49 57 -83 90 -62 59 -62
58 11 -20z"/>
<path d="M787 1343 c4 -10 2 -14 -5 -9 -6 3 -14 1 -18 -5 -5 -8 -3 -9 6 -4 9
6 11 0 6 -26 -9 -44 9 -17 19 29 4 20 3 32 -4 32 -6 0 -7 -7 -4 -17z"/>
<path d="M2390 1349 c0 -15 70 -79 87 -79 25 0 -10 41 -39 47 -16 3 -28 11
-28 19 0 7 -4 16 -10 19 -5 3 -10 1 -10 -6z"/>
<path d="M2000 1289 c0 -6 9 -13 20 -16 11 -3 20 -8 20 -12 0 -4 18 -18 41
-30 24 -14 52 -42 71 -72 16 -27 34 -46 39 -43 6 3 4 15 -6 27 -8 12 -20 32
-25 45 -23 54 -160 141 -160 101z"/>
<path d="M1073 1279 c-13 -4 -23 -5 -23 -1 -1 10 -18 -21 -36 -64 -8 -20 -10
-33 -5 -29 6 3 11 12 11 19 0 43 99 61 209 39 40 -8 75 -12 77 -10 2 2 -8 14
-22 28 -22 21 -36 24 -107 26 -45 0 -92 -3 -104 -8z"/>
<path d="M2477 1247 c-8 -6 -5 -7 7 -3 16 6 17 4 6 -9 -8 -10 -9 -15 -1 -15 6
0 11 -5 11 -11 0 -5 -4 -7 -10 -4 -5 3 -20 -1 -32 -9 -21 -15 -21 -16 -2 -16
27 0 66 29 57 43 -4 7 1 6 10 -2 10 -8 20 -11 24 -7 3 3 1 6 -5 6 -7 0 -11 3
-11 8 5 28 -26 39 -54 19z"/>
<path d="M1917 1243 c-16 -15 -4 -23 45 -29 41 -6 48 -9 33 -16 -17 -7 -15 -8
7 -5 22 3 26 0 22 -16 -2 -11 -6 -22 -8 -25 -12 -11 17 -42 39 -42 14 0 25 -6
25 -13 0 -7 14 -29 30 -47 29 -32 40 -28 21 8 -6 9 -12 30 -16 45 -9 42 -87
122 -134 135 -44 14 -55 15 -64 5z m180 -116 c24 -48 10 -38 -25 16 -24 36
-27 46 -12 32 12 -11 29 -33 37 -48z"/>
<path d="M1503 1233 c4 -6 -6 -15 -21 -22 -25 -11 -26 -10 -8 4 23 17 14 20
-15 4 -11 -5 -17 -14 -14 -20 4 -5 1 -8 -7 -7 -7 2 -16 10 -20 18 -5 11 -7 9
-7 -7 -1 -27 12 -32 78 -25 41 4 52 2 47 -7 -6 -9 2 -11 31 -6 65 11 66 12 40
41 -24 25 -118 50 -104 27z"/>
<path d="M1100 1195 c-31 -16 -58 -62 -44 -74 13 -12 76 7 68 21 -5 8 6 9 39
5 29 -4 47 -3 47 3 0 6 17 10 38 10 l37 1 -39 14 c-21 7 -43 18 -49 24 -15 15
-67 13 -97 -4z"/>
<path d="M2723 1195 c-18 -8 -33 -19 -33 -25 0 -18 24 -11 49 15 27 29 27 29
-16 10z"/>
<path d="M973 1092 c-13 -45 -24 -116 -27 -170 -2 -51 -9 -99 -16 -106 -8 -11
-7 -14 7 -12 12 1 26 -18 46 -59 16 -33 33 -62 38 -63 5 -2 15 -9 22 -15 6 -7
29 -23 49 -37 20 -13 34 -29 31 -34 -3 -5 -1 -6 4 -3 12 8 64 -13 108 -43 17
-11 36 -20 44 -20 20 0 -39 42 -124 90 -141 78 -168 125 -171 298 -2 62 2 142
8 178 5 36 8 67 6 69 -2 2 -13 -31 -25 -73z"/>
<path d="M1930 1157 c0 -9 5 -17 11 -19 5 -2 11 -11 13 -21 2 -18 46 -64 46
-49 0 5 -7 15 -15 22 -8 7 -19 26 -23 43 -8 32 -32 50 -32 24z"/>
<path d="M2401 1149 c-16 -13 -19 -24 -14 -52 6 -42 30 -41 35 1 2 22 8 27 30
27 14 -1 24 3 22 7 -3 4 -12 8 -21 8 -28 0 -4 14 28 16 52 4 44 12 -10 11 -29
-1 -58 -9 -70 -18z"/>
<path d="M2578 1151 c3 -9 1 -12 -6 -7 -6 3 -14 1 -18 -5 -4 -8 -3 -9 4 -5 7
4 12 2 12 -4 0 -15 17 -4 29 18 7 14 5 18 -9 18 -11 0 -16 -5 -12 -15z"/>
<path d="M760 1103 c-7 -27 -14 -70 -16 -98 -2 -27 -6 -66 -9 -85 -4 -19 -3
-31 1 -27 5 5 16 56 25 115 8 59 19 115 23 125 5 10 4 17 -2 17 -5 0 -15 -21
-22 -47z"/>
<path d="M2780 1066 c0 -24 16 -36 49 -36 10 0 26 -9 36 -20 10 -11 15 -20 10
-20 -10 0 58 -60 69 -60 4 0 5 -12 2 -26 l-7 -26 26 26 c14 14 25 31 25 39 0
22 -169 147 -199 147 -6 0 -11 -11 -11 -24z"/>
<path d="M2486 1058 c-8 -12 -13 -25 -10 -30 7 -11 -47 1 -64 15 -9 7 -11 5
-6 -8 5 -12 4 -16 -4 -11 -14 8 -52 -14 -52 -32 0 -7 -7 -15 -15 -18 -8 -4
-15 -15 -15 -25 0 -16 5 -18 28 -13 15 4 47 15 72 27 25 11 52 21 60 22 8 1
37 8 65 14 44 11 51 10 62 -5 7 -10 13 -21 13 -25 0 -15 -52 -68 -73 -75 -12
-3 -49 -19 -83 -35 -74 -36 -155 -48 -175 -27 -12 13 -21 11 -71 -14 -31 -15
-68 -28 -81 -28 -14 0 -42 -6 -64 -14 -66 -23 -216 -39 -327 -34 l-105 5 -6
-46 c-3 -25 -8 -57 -11 -69 -3 -15 -1 -21 6 -17 5 3 10 19 10 34 0 15 5 43 11
61 10 27 13 30 21 16 5 -9 14 -13 21 -9 31 20 35 10 16 -39 -13 -34 -16 -48
-7 -45 7 2 12 10 11 16 -2 6 2 11 7 11 6 0 10 6 10 13 0 7 9 18 20 24 16 11
21 10 29 -5 9 -15 10 -15 11 -1 0 17 40 34 40 17 0 -5 6 -6 13 -1 51 32 116
-11 202 -137 21 -30 47 -67 57 -81 11 -14 25 -43 33 -65 9 -26 19 -39 32 -39
24 0 75 -28 115 -64 18 -15 61 -43 96 -61 49 -25 62 -37 62 -56 0 -12 -8 -28
-17 -34 -28 -17 25 -1 63 19 l31 17 -23 11 c-16 8 -22 8 -17 1 3 -7 1 -8 -5
-4 -7 4 -12 12 -12 18 0 14 -24 32 -80 63 -25 13 -56 34 -70 47 -14 13 -40 31
-57 39 -18 7 -33 17 -33 21 0 5 -6 8 -13 8 -8 0 -48 51 -90 113 -42 62 -90
126 -107 142 -16 16 -30 34 -30 40 0 5 37 19 83 29 45 11 107 28 137 39 36 14
82 21 135 21 74 1 87 5 176 48 74 37 102 56 123 87 18 25 33 38 42 34 11 -4
10 2 -3 26 -17 30 -18 30 -25 8 -4 -14 -6 -16 -7 -6 -1 9 -10 19 -21 22 -13 3
-20 14 -20 29 -1 21 -2 22 -14 5 -10 -13 -21 -16 -40 -11 -14 3 -23 10 -20 15
3 5 2 9 -3 8 -20 -3 -27 2 -13 11 9 6 10 10 3 10 -6 0 -19 -10 -27 -22z"/>
<path d="M2713 1041 c-3 -13 -11 -18 -21 -15 -14 4 -13 3 1 -6 10 -6 25 -9 34
-6 13 5 13 9 2 23 -12 15 -12 16 4 10 11 -4 16 -3 12 3 -10 16 -27 11 -32 -9z"/>
<path d="M1488 1013 c12 -8 22 -24 22 -34 0 -22 16 -34 25 -18 8 12 -42 69
-59 68 -6 0 -1 -7 12 -16z"/>
<path d="M778 981 c-5 -18 -8 -59 -7 -90 l1 -56 9 45 c5 25 8 65 7 90 -3 45
-3 45 -10 11z"/>
<path d="M1451 947 c-6 -8 -8 -17 -5 -20 9 -8 44 11 44 23 0 15 -26 12 -39 -3z"/>
<path d="M2532 935 c-13 -29 -6 -32 26 -9 27 18 29 34 4 34 -11 0 -24 -11 -30
-25z"/>
<path d="M1333 938 c-24 -11 -31 -28 -13 -28 6 0 19 6 30 13 17 10 22 9 30 -3
5 -8 12 -12 15 -8 6 6 -22 38 -33 37 -4 0 -17 -5 -29 -11z"/>
<path d="M2395 900 c8 -13 35 -13 55 0 11 7 5 10 -23 10 -23 0 -36 -4 -32 -10z"/>
<path d="M1166 871 c-15 -16 -23 -31 -18 -35 9 -5 57 52 50 60 -3 2 -17 -9
-32 -25z"/>
<path d="M325 854 c-317 -27 -325 -29 -325 -50 0 -8 4 -13 8 -10 9 5 85 16
162 22 30 2 79 8 110 14 50 8 104 14 243 25 33 3 47 0 47 -9 0 -8 -15 -13 -42
-14 -23 -1 -50 -4 -59 -7 -10 -3 -20 -1 -24 5 -3 6 -12 7 -18 3 -7 -4 -21 -9
-31 -10 -55 -9 -19 -14 77 -11 103 3 107 4 107 26 0 12 6 22 14 22 8 0 18 5
21 10 3 6 3 9 -2 9 -4 -1 -134 -12 -288 -25z"/>
<path d="M2942 808 c-12 -24 -31 -58 -43 -75 -11 -18 -18 -33 -15 -33 3 0 18
19 32 42 15 24 33 49 41 56 11 12 19 52 10 52 -2 0 -13 -19 -25 -42z"/>
<path d="M1520 831 c0 -15 -29 -21 -128 -26 -71 -3 -88 -2 -62 5 19 5 40 7 47
5 7 -2 15 1 19 7 5 8 -11 9 -57 2 -35 -4 -81 -8 -101 -8 -21 -1 -38 -4 -38 -8
0 -17 184 -30 235 -17 17 4 44 9 60 10 35 4 57 17 49 30 -7 12 -24 12 -24 0z"/>
<path d="M319 816 c-2 -2 -47 -7 -99 -10 -52 -4 -99 -11 -104 -16 -7 -7 5 -8
34 -5 39 5 125 11 195 14 17 1 17 3 5 11 -16 11 -24 12 -31 6z"/>
<path d="M1581 734 c-22 -32 -31 -54 -27 -69 13 -50 -58 -243 -113 -312 -33
-41 -97 -82 -169 -107 -32 -12 -55 -13 -109 -4 -37 5 -73 10 -80 11 -7 0 -15
13 -18 29 -9 37 -25 36 -25 -2 0 -16 5 -30 10 -30 6 0 10 -6 10 -13 0 -8 9
-22 20 -32 11 -10 17 -22 14 -27 -8 -12 26 -49 38 -42 4 3 7 2 6 -3 -1 -4 6
-23 15 -40 l18 -33 -36 0 c-37 0 -74 14 -87 34 -5 6 -8 2 -8 -11 0 -12 4 -25
10 -28 20 -12 124 -25 130 -15 3 5 21 5 42 1 25 -6 35 -5 34 3 -3 21 -17 36
-27 30 -6 -3 -28 14 -51 38 -22 23 -44 42 -49 41 -4 -2 -5 5 -2 14 5 13 2 15
-11 10 -9 -4 -15 -3 -11 2 3 5 1 20 -4 34 -9 22 -7 24 10 20 11 -3 21 -8 24
-12 2 -4 34 -6 72 -5 55 2 81 9 132 36 64 33 155 114 146 129 -3 4 1 11 8 16
12 7 39 63 43 88 1 6 10 28 19 50 l18 40 10 -44 c9 -39 7 -49 -22 -108 -17
-35 -28 -62 -23 -59 4 2 19 28 32 56 21 45 25 49 32 31 8 -24 0 -81 -13 -81
-14 0 -79 -105 -67 -109 6 -2 20 7 30 20 42 57 53 68 60 61 10 -10 -17 -114
-42 -167 -19 -40 -19 -40 0 -17 28 33 61 145 67 224 5 56 8 65 22 61 9 -4 13
-3 9 2 -6 7 52 89 75 106 5 3 9 10 10 15 1 5 9 8 17 6 10 -2 9 2 -4 13 -11 8
-24 15 -29 15 -4 0 -6 3 -4 8 3 4 -6 7 -19 7 -13 0 -24 -3 -24 -7 0 -5 6 -8
14 -8 24 0 28 -18 9 -39 -30 -33 -40 -46 -55 -75 -14 -27 -15 -25 -36 87 -26
137 -26 136 -6 158 11 12 13 23 7 33 -7 13 -15 8 -42 -30z m34 -204 c16 -92
18 -117 9 -108 -10 11 -44 181 -43 217 l1 36 9 -30 c5 -16 16 -68 24 -115z"/>
<path d="M407 763 c18 -2 50 -2 70 0 21 2 7 4 -32 4 -38 0 -55 -2 -38 -4z"/>
<path d="M235 753 c-16 -1 -74 -8 -127 -14 -54 -6 -95 -15 -93 -20 3 -4 11 -6
18 -3 7 2 38 6 68 8 61 3 222 26 228 32 5 4 -48 3 -94 -3z"/>
<path d="M440 739 c-47 -5 -101 -10 -120 -13 -19 -3 -48 -5 -64 -5 -16 -1 -26
-4 -22 -8 9 -10 134 -5 198 7 29 6 56 6 62 1 6 -5 26 -3 46 5 19 7 30 13 23
13 -6 1 -17 3 -25 4 -7 2 -51 0 -98 -4z"/>
<path d="M1370 740 c0 -12 24 -12 60 0 21 7 19 8 -17 9 -24 1 -43 -3 -43 -9z"/>
<path d="M122 702 c-7 -5 7 -9 37 -10 28 0 53 3 56 9 7 11 -75 12 -93 1z"/>
<path d="M80 663 c-19 -3 -39 -9 -45 -15 -7 -7 0 -9 24 -4 18 3 46 6 62 6 16
0 29 5 29 10 0 10 -6 10 -70 3z"/>
<path d="M1753 621 c0 -11 9 -22 19 -24 23 -6 28 2 17 28 -4 11 -8 14 -8 6 -1
-11 -4 -11 -15 -1 -12 9 -15 8 -13 -9z"/>
<path d="M412 570 c-34 -32 -61 -50 -77 -50 -22 0 -24 -4 -22 -32 2 -24 7 -32
24 -33 17 -1 20 3 17 21 -5 25 27 54 58 54 11 0 15 5 12 14 -7 18 31 40 53 32
11 -5 13 -2 9 10 -3 8 -6 20 -6 25 0 18 -15 8 -68 -41z"/>
<path d="M1915 581 c3 -5 1 -12 -4 -15 -5 -4 -9 -33 -8 -66 1 -32 3 -57 6 -55
2 3 10 -3 17 -13 12 -16 13 -16 14 3 0 11 -4 35 -9 53 -5 17 -7 32 -3 32 4 0
7 16 8 35 0 24 -4 35 -13 35 -8 0 -12 -4 -8 -9z"/>
<path d="M1477 552 c-11 -12 -16 -25 -13 -31 22 -35 -119 -170 -161 -154 -8 3
-18 1 -22 -6 -12 -18 -111 -24 -140 -9 -14 7 -29 27 -34 43 -5 17 -15 44 -23
62 -8 17 -14 36 -14 42 0 6 -4 11 -10 11 -15 0 -12 -16 9 -58 10 -20 18 -48
16 -62 -1 -14 -3 -33 -4 -43 0 -10 -6 -15 -12 -11 -7 4 -10 -1 -7 -12 5 -27
38 -30 45 -4 4 15 10 19 22 14 64 -26 192 -5 265 44 29 20 51 47 75 93 36 73
41 118 8 81z"/>
<path d="M71 536 c2 -2 31 -6 64 -9 39 -4 50 -3 30 2 -31 9 -102 14 -94 7z"/>
<path d="M485 471 l20 -24 -22 5 c-13 4 -23 3 -23 -1 0 -3 -19 -15 -42 -25
-24 -10 -37 -21 -30 -23 7 -3 23 2 35 10 12 8 42 17 67 21 56 8 88 26 48 26
-16 0 -28 5 -28 12 0 6 -3 8 -7 5 -3 -4 -13 -1 -22 5 -9 7 -7 2 4 -11z"/>
<path d="M1736 459 c3 -6 -3 -24 -15 -40 -12 -16 -19 -34 -16 -39 3 -6 1 -10
-4 -10 -6 0 -11 -7 -11 -15 0 -8 4 -15 9 -15 8 0 39 32 33 34 -4 1 7 37 19 58
13 26 11 38 -7 38 -8 0 -12 -5 -8 -11z"/>
<path d="M320 385 c-14 -8 -53 -24 -88 -35 -34 -12 -60 -26 -57 -30 9 -15 -55
-55 -81 -52 -13 2 -24 -2 -24 -8 0 -6 -4 -9 -9 -5 -5 3 -12 1 -15 -4 -6 -9 80
-8 90 1 8 9 63 -12 104 -39 22 -15 49 -23 75 -23 23 0 46 -5 53 -12 9 -9 12
-8 12 4 0 12 15 18 60 23 33 4 60 11 60 16 0 5 -12 6 -27 2 -16 -5 -66 -8
-113 -7 -65 1 -96 6 -132 23 -27 12 -48 25 -48 28 0 4 3 4 6 1 3 -4 15 3 26
14 12 12 28 18 39 15 10 -3 21 -1 24 4 3 4 13 5 22 2 11 -4 14 -3 9 5 -9 15
-51 16 -77 2 -12 -7 -19 -7 -19 -1 0 13 39 25 69 22 15 -2 21 1 17 8 -4 7 1
11 13 11 22 0 40 20 19 20 -7 1 1 7 17 15 17 7 23 14 15 14 -8 0 -26 -6 -40
-14z"/>
<path d="M380 369 c-31 -7 -29 -8 17 -5 29 2 55 0 59 -3 3 -3 17 -6 30 -6 13
-1 21 2 16 6 -13 12 -86 17 -122 8z"/>
<path d="M2092 306 c-30 -79 -27 -95 4 -21 13 32 23 63 21 69 -2 5 -13 -17
-25 -48z"/>
<path d="M2167 353 c-19 -18 15 -104 47 -119 23 -11 72 6 58 21 -4 4 0 5 8 3
8 -3 14 -11 13 -17 -2 -6 2 -11 7 -11 6 0 10 6 10 13 0 14 -63 67 -80 67 -6 0
-9 4 -6 9 3 5 0 14 -8 20 -10 9 -13 5 -14 -19 0 -17 2 -30 6 -30 4 0 13 -9 19
-19 10 -16 9 -19 -5 -17 -9 2 -15 6 -14 11 2 4 -1 11 -8 15 -6 4 -12 21 -14
38 -2 34 -9 46 -19 35z"/>
<path d="M1851 305 c-1 -5 -5 -21 -7 -34 -2 -14 -11 -50 -18 -80 -8 -31 -17
-75 -21 -98 -4 -23 -13 -44 -20 -47 -14 -5 -9 -46 6 -46 14 0 11 28 -3 34 -7
3 -4 4 7 3 15 -1 20 4 22 23 2 38 11 71 22 84 7 9 7 16 -1 24 -9 9 -9 12 0 12
7 0 12 6 11 13 -1 6 1 19 5 28 4 9 6 34 3 55 -2 22 -5 35 -6 29z"/>
<path d="M2005 276 c2 -20 0 -36 -4 -36 -3 0 -6 -15 -7 -34 0 -24 3 -33 12
-29 10 4 11 10 4 23 -5 9 -7 20 -4 22 2 3 9 19 13 36 7 23 6 34 -4 42 -11 9
-13 5 -10 -24z"/>
<path d="M1526 246 c-21 -12 -38 -25 -37 -29 1 -4 1 -13 1 -19 0 -7 8 -1 18
15 10 15 21 25 24 22 2 -3 13 4 23 15 22 25 20 24 -29 -4z"/>
<path d="M70 196 c-13 -25 -27 -43 -30 -41 -3 2 -6 -5 -6 -16 0 -30 11 -22 31
21 10 22 24 45 32 51 14 12 18 29 5 29 -4 0 -18 -20 -32 -44z"/>
<path d="M1927 213 c-10 -9 -7 -174 3 -198 6 -13 9 21 8 93 -1 61 -2 112 -3
112 -1 0 -5 -3 -8 -7z"/>
<path d="M2245 200 c-4 -6 -3 -10 2 -9 4 1 21 -3 36 -9 28 -12 54 -16 46 -7
-15 15 -79 34 -84 25z"/>
<path d="M2210 178 c0 -16 31 -108 50 -150 14 -31 35 -36 44 -13 3 8 1 15 -4
15 -6 0 -10 13 -10 29 0 27 3 29 57 36 31 4 68 11 82 17 55 22 91 43 95 55 7
17 0 16 -59 -6 -103 -39 -181 -34 -237 17 -16 13 -18 13 -18 0z"/>
<path d="M301 174 c-1 -6 8 -19 19 -29 11 -10 20 -23 19 -29 -1 -6 -1 -16 0
-22 1 -13 51 -37 51 -25 0 5 -9 11 -20 14 -17 4 -19 11 -14 31 4 19 2 26 -9
26 -8 0 -22 10 -30 23 -9 12 -16 17 -16 11z"/>
<path d="M1460 165 c0 -8 -5 -15 -12 -15 -6 0 -9 -2 -6 -5 9 -9 59 14 53 25
-10 15 -35 12 -35 -5z"/>
<path d="M2023 129 c-16 -29 -36 -66 -45 -83 -17 -31 -25 -61 -10 -40 4 6 16
16 27 22 11 6 14 12 7 12 -10 0 -9 8 5 33 10 17 21 34 24 37 8 7 29 70 24 70
-3 0 -17 -23 -32 -51z"/>
<path d="M172 123 c20 -16 44 -40 54 -55 11 -16 23 -28 27 -28 5 0 -3 14 -18
32 -21 24 -23 33 -13 40 10 7 9 9 -4 5 -9 -3 -28 3 -41 14 -14 10 -29 19 -33
19 -4 0 9 -12 28 -27z"/>
<path d="M1420 123 c-21 -5 -43 -40 -30 -48 6 -3 10 0 10 7 0 9 3 9 10 -2 8
-13 10 -12 10 3 0 9 6 17 14 17 8 0 17 4 20 9 7 11 -13 19 -34 14z"/>
<path d="M28 81 c-3 -20 1 -45 8 -60 12 -22 14 -23 13 -6 0 11 -4 38 -8 60
l-7 40 -6 -34z"/>
<path d="M1595 87 c-11 -12 -29 -33 -40 -47 -16 -20 -16 -22 -2 -11 19 15 24
2 6 -16 -9 -9 -7 -12 10 -10 16 1 21 8 21 28 0 31 15 39 70 39 21 0 42 5 46
12 4 6 3 8 -4 5 -14 -9 -43 3 -36 14 8 14 -4 11 -32 -7 -22 -15 -24 -15 -18 0
8 21 3 20 -21 -7z"/>
<path d="M1333 73 c-18 -7 -16 -23 3 -23 8 0 12 -4 9 -10 -3 -6 -1 -10 5 -10
7 0 9 7 6 17 -4 9 -1 20 6 25 10 6 10 8 -2 7 -8 0 -21 -3 -27 -6z"/>
<path d="M986 33 c-9 -18 -12 -33 -7 -33 13 0 33 38 28 53 -2 7 -11 -3 -21
-20z"/>
<path d="M1668 23 c-37 -6 -36 -23 2 -23 20 0 30 5 30 15 0 8 -1 14 -2 14 -2
-1 -15 -4 -30 -6z"/>
</g>
</svg>
