<?xml version="1.0" encoding="UTF-8" standalone="no" ?>
<!DOCTYPE svg PUBLIC "-//W3C//DTD SVG 1.1//EN" "http://www.w3.org/Graphics/SVG/1.1/DTD/svg11.dtd">
<svg xmlns="http://www.w3.org/2000/svg" xmlns:xlink="http://www.w3.org/1999/xlink" version="1.1" width="1080" height="1080" viewBox="0 0 1080 1080" xml:space="preserve">
<desc>Created with Fabric.js 5.2.4</desc>
<defs>
</defs>
<rect x="0" y="0" width="100%" height="100%" fill="transparent"></rect>
<g transform="matrix(1 0 0 1 540 540)" id="5286439f-35ea-4eb8-bd47-bbf9306bb881"  >
</g>
<g transform="matrix(1 0 0 1 540 540)" id="3bbdf7a6-d1ac-4e77-a134-989b3abaacf0"  >
<rect style="stroke: none; stroke-width: 1; stroke-dasharray: none; stroke-linecap: butt; stroke-dashoffset: 0; stroke-linejoin: miter; stroke-miterlimit: 4; fill: rgb(255,255,255); fill-rule: nonzero; opacity: 1; visibility: hidden;" vector-effect="non-scaling-stroke"  x="-540" y="-540" rx="0" ry="0" width="1080" height="1080" />
</g>
<g transform="matrix(1 0 0 1 540 238.46)" style="" id="35d0b4f2-a6a7-45c3-938c-fb0468dec174"  >
		<text xml:space="preserve" font-family="Raleway" font-size="84" font-style="normal" font-weight="400" style="stroke: none; stroke-width: 1; stroke-dasharray: none; stroke-linecap: butt; stroke-dashoffset: 0; stroke-linejoin: miter; stroke-miterlimit: 4; fill: rgb(155,107,67); fill-rule: nonzero; opacity: 1; white-space: pre;" ><tspan x="-255.82" y="26.39" >Jeremy &amp; Pat</tspan></text>
</g>
<g transform="matrix(1 0 0 1 540 925.01)" style="" id="ed774534-6197-4a08-847a-55ae4a740053"  >
		<text xml:space="preserve" font-family="Raleway" font-size="76" font-style="normal" font-weight="400" style="stroke: none; stroke-width: 1; stroke-dasharray: none; stroke-linecap: butt; stroke-dashoffset: 0; stroke-linejoin: miter; stroke-miterlimit: 4; fill: rgb(155,107,67); fill-rule: nonzero; opacity: 1; white-space: pre;" ><tspan x="-145.5" y="23.87" >09.09.23</tspan></text>
</g>
<g transform="matrix(2.07 0 0 2.07 540 575.15)"  >
<g style="" vector-effect="non-scaling-stroke"   >
		<g transform="matrix(0.13 0 0 -0.13 106.68 -115.27)"  >
<path style="stroke: none; stroke-width: 1; stroke-dasharray: none; stroke-linecap: butt; stroke-dashoffset: 0; stroke-linejoin: miter; stroke-miterlimit: 4; fill: rgb(155,107,67); fill-rule: nonzero; opacity: 1;" vector-effect="non-scaling-stroke"  transform=" translate(-2307.25, -1879.94)" d="M 2462 2030 C 2467 2016 2455 2014 2376 2016 C 2288 2019 2220 2007 2220 1990 C 2220 1980 2163 1965 2140 1968 C 2131 1970 2111 1956 2095 1939 C 2078 1921 2071 1910 2077 1914 C 2086 1919 2088 1916 2084 1906 C 2081 1898 2072 1894 2065 1896 C 2049 1902 2036 1884 2050 1875 C 2055 1872 2060 1863 2060 1857 C 2060 1849 2057 1850 2051 1859 C 2044 1870 2038 1869 2021 1853 C 2000 1834 1937 1720 1947 1720 C 1950 1720 1966 1731 1982 1746 C 1999 1760 2019 1769 2026 1766 C 2034 1763 2040 1766 2040 1773 C 2040 1781 2044 1779 2050 1770 C 2058 1758 2060 1758 2060 1769 C 2060 1777 2067 1780 2080 1777 C 2091 1774 2102 1775 2105 1780 C 2108 1784 2101 1790 2090 1793 C 2079 1796 2067 1794 2064 1789 C 2058 1778 2040 1787 2040 1801 C 2040 1807 2045 1808 2052 1804 C 2059 1800 2060 1801 2056 1808 C 2052 1816 2054 1818 2063 1814 C 2071 1811 2081 1813 2085 1819 C 2094 1835 2100 1871 2092 1866 C 2088 1864 2077 1868 2067 1875 C 2051 1887 2053 1888 2085 1885 C 2116 1882 2120 1884 2109 1896 C 2100 1908 2100 1916 2110 1935 C 2124 1960 2140 1968 2140 1950 C 2140 1943 2146 1943 2160 1950 C 2174 1958 2186 1958 2201 1949 C 2217 1941 2229 1941 2247 1949 C 2275 1962 2283 1963 2276 1952 C 2274 1948 2287 1940 2305 1934 C 2324 1928 2337 1927 2334 1932 C 2331 1936 2338 1940 2349 1940 C 2360 1940 2372 1936 2375 1930 C 2378 1925 2376 1920 2369 1920 C 2362 1920 2359 1917 2362 1914 C 2366 1911 2380 1916 2395 1926 C 2422 1943 2423 1943 2439 1924 C 2448 1914 2464 1898 2474 1890 C 2492 1876 2493 1876 2480 1900 C 2473 1913 2460 1931 2453 1939 C 2428 1963 2461 1973 2487 1948 L 2509 1928 L 2503 1949 C 2500 1960 2494 1968 2490 1965 C 2485 1962 2479 1964 2475 1969 C 2472 1975 2463 1977 2456 1974 C 2449 1971 2436 1976 2427 1984 C 2419 1992 2410 1997 2406 1995 C 2403 1992 2404 1996 2410 2002 C 2418 2012 2431 2008 2468 1989 C 2509 1967 2515 1960 2516 1932 C 2517 1892 2520 1889 2548 1897 C 2566 1901 2568 1905 2558 1917 C 2548 1930 2545 1930 2540 1914 C 2536 1903 2531 1900 2527 1907 C 2523 1913 2527 1925 2535 1934 C 2549 1947 2548 1951 2528 1971 L 2505 1993 L 2540 1972 C 2559 1960 2574 1943 2574 1935 C 2573 1927 2576 1920 2581 1920 C 2586 1920 2590 1926 2591 1933 C 2591 1939 2595 1935 2600 1923 C 2605 1910 2614 1900 2620 1900 C 2625 1900 2630 1888 2631 1873 C 2631 1857 2634 1850 2636 1857 C 2639 1864 2649 1866 2658 1863 C 2671 1859 2672 1860 2661 1868 C 2653 1874 2650 1886 2654 1898 C 2658 1909 2656 1921 2650 1925 C 2645 1928 2640 1926 2640 1921 C 2640 1915 2631 1918 2621 1928 C 2610 1937 2590 1953 2576 1963 C 2561 1973 2552 1985 2554 1989 C 2559 1997 2551 1999 2506 2003 C 2493 2004 2484 2008 2486 2011 C 2488 2015 2482 2024 2473 2031 C 2459 2043 2457 2043 2462 2030 z M 2349 1995 C 2351 1992 2348 1984 2341 1977 C 2332 1969 2326 1969 2324 1975 C 2322 1981 2302 1984 2280 1982 C 2237 1978 2223 1995 2263 2003 C 2287 2008 2340 2003 2349 1995 z M 2405 1970 C 2417 1951 2400 1940 2380 1953 C 2369 1959 2360 1968 2360 1972 C 2360 1984 2398 1982 2405 1970 z M 2050 1831 C 2050 1826 2043 1817 2035 1810 C 2027 1803 2022 1794 2025 1790 C 2028 1786 2021 1780 2010 1777 C 1987 1771 1988 1788 2012 1811 C 2022 1820 2027 1830 2023 1834 C 2020 1837 2024 1840 2033 1840 C 2043 1840 2050 1836 2050 1831 z" stroke-linecap="round" />
</g>
		<g transform="matrix(0.13 0 0 -0.13 163.69 -117.36)"  >
<path style="stroke: none; stroke-width: 1; stroke-dasharray: none; stroke-linecap: butt; stroke-dashoffset: 0; stroke-linejoin: miter; stroke-miterlimit: 4; fill: rgb(155,107,67); fill-rule: nonzero; opacity: 1;" vector-effect="non-scaling-stroke"  transform=" translate(-2727.6, -1898.21)" d="M 2666 1933 C 2674 1919 2679 1902 2676 1894 C 2672 1884 2678 1881 2695 1882 C 2709 1883 2720 1889 2721 1895 C 2721 1900 2725 1895 2731 1882 C 2736 1869 2744 1861 2749 1864 C 2754 1867 2763 1863 2770 1855 C 2787 1835 2800 1836 2800 1859 C 2800 1872 2793 1878 2775 1878 C 2743 1878 2731 1888 2750 1900 C 2763 1908 2763 1910 2751 1910 C 2743 1910 2726 1920 2713 1932 C 2700 1944 2681 1954 2670 1955 C 2651 1957 2651 1955 2666 1933 z" stroke-linecap="round" />
</g>
		<g transform="matrix(0.13 0 0 -0.13 87.1 -118.37)"  >
<path style="stroke: none; stroke-width: 1; stroke-dasharray: none; stroke-linecap: butt; stroke-dashoffset: 0; stroke-linejoin: miter; stroke-miterlimit: 4; fill: rgb(155,107,67); fill-rule: nonzero; opacity: 1;" vector-effect="non-scaling-stroke"  transform=" translate(-2152.41, -1906.41)" d="M 2120 1926 C 2104 1910 2108 1896 2124 1910 C 2137 1920 2138 1917 2134 1894 C 2130 1870 2131 1868 2145 1880 C 2153 1887 2158 1895 2156 1898 C 2153 1900 2161 1911 2173 1921 L 2195 1940 L 2162 1938 C 2144 1937 2125 1931 2120 1926 z" stroke-linecap="round" />
</g>
		<g transform="matrix(0.13 0 0 -0.13 96.71 -118.8)"  >
<path style="stroke: none; stroke-width: 1; stroke-dasharray: none; stroke-linecap: butt; stroke-dashoffset: 0; stroke-linejoin: miter; stroke-miterlimit: 4; fill: rgb(155,107,67); fill-rule: nonzero; opacity: 1;" vector-effect="non-scaling-stroke"  transform=" translate(-2224.54, -1909.99)" d="M 2223 1917 C 2206 1910 2188 1901 2183 1896 C 2169 1882 2244 1901 2260 1916 C 2277 1933 2267 1933 2223 1917 z" stroke-linecap="round" />
</g>
		<g transform="matrix(0.13 0 0 -0.13 144.55 -114.66)"  >
<path style="stroke: none; stroke-width: 1; stroke-dasharray: none; stroke-linecap: butt; stroke-dashoffset: 0; stroke-linejoin: miter; stroke-miterlimit: 4; fill: rgb(155,107,67); fill-rule: nonzero; opacity: 1;" vector-effect="non-scaling-stroke"  transform=" translate(-2582.85, -1878.83)" d="M 2573 1895 C 2555 1875 2557 1865 2575 1880 C 2587 1890 2590 1890 2590 1877 C 2590 1868 2594 1859 2598 1856 C 2610 1849 2606 1888 2594 1899 C 2589 1905 2580 1903 2573 1895 z" stroke-linecap="round" />
</g>
		<g transform="matrix(0.13 0 0 -0.13 85.71 -101.02)"  >
<path style="stroke: none; stroke-width: 1; stroke-dasharray: none; stroke-linecap: butt; stroke-dashoffset: 0; stroke-linejoin: miter; stroke-miterlimit: 4; fill: rgb(155,107,67); fill-rule: nonzero; opacity: 1;" vector-effect="non-scaling-stroke"  transform=" translate(-2141.79, -1775.02)" d="M 2110 1851 C 2110 1846 2114 1840 2120 1838 C 2134 1834 2139 1751 2126 1746 C 2120 1744 2126 1741 2140 1741 C 2160 1740 2162 1738 2150 1730 C 2141 1724 2140 1720 2147 1720 C 2153 1720 2160 1712 2162 1703 C 2165 1687 2166 1687 2172 1701 C 2176 1710 2172 1729 2165 1744 C 2157 1759 2154 1768 2159 1766 C 2163 1763 2161 1780 2153 1805 C 2140 1843 2110 1875 2110 1851 z" stroke-linecap="round" />
</g>
		<g transform="matrix(0.13 0 0 -0.13 158.87 -106.98)"  >
<path style="stroke: none; stroke-width: 1; stroke-dasharray: none; stroke-linecap: butt; stroke-dashoffset: 0; stroke-linejoin: miter; stroke-miterlimit: 4; fill: rgb(155,107,67); fill-rule: nonzero; opacity: 1;" vector-effect="non-scaling-stroke"  transform=" translate(-2690.42, -1821.13)" d="M 2667 1843 C 2663 1840 2660 1830 2661 1821 C 2661 1809 2664 1810 2670 1825 C 2678 1843 2680 1841 2684 1811 C 2686 1796 2700 1786 2700 1799 C 2700 1806 2705 1808 2710 1805 C 2728 1794 2720 1815 2700 1833 C 2677 1852 2676 1853 2667 1843 z" stroke-linecap="round" />
</g>
		<g transform="matrix(0.13 0 0 -0.13 167.58 -106.74)"  >
<path style="stroke: none; stroke-width: 1; stroke-dasharray: none; stroke-linecap: butt; stroke-dashoffset: 0; stroke-linejoin: miter; stroke-miterlimit: 4; fill: rgb(155,107,67); fill-rule: nonzero; opacity: 1;" vector-effect="non-scaling-stroke"  transform=" translate(-2755.56, -1819.26)" d="M 2735 1840 C 2730 1831 2731 1825 2738 1822 C 2745 1820 2750 1812 2750 1804 C 2750 1785 2766 1786 2774 1806 C 2782 1828 2782 1830 2766 1830 C 2758 1830 2750 1835 2748 1842 C 2745 1851 2741 1850 2735 1840 z" stroke-linecap="round" />
</g>
		<g transform="matrix(0.13 0 0 -0.13 180.36 -60.04)"  >
<path style="stroke: none; stroke-width: 1; stroke-dasharray: none; stroke-linecap: butt; stroke-dashoffset: 0; stroke-linejoin: miter; stroke-miterlimit: 4; fill: rgb(155,107,67); fill-rule: nonzero; opacity: 1;" vector-effect="non-scaling-stroke"  transform=" translate(-2854.41, -1460.49)" d="M 2789 1820 C 2786 1800 2785 1795 2777 1782 C 2772 1775 2764 1773 2758 1776 C 2751 1780 2750 1778 2754 1772 C 2758 1765 2770 1760 2780 1760 C 2809 1760 2830 1749 2830 1734 C 2830 1721 2864 1680 2875 1680 C 2877 1680 2877 1687 2873 1696 C 2868 1710 2870 1710 2889 1699 C 2900 1691 2910 1678 2910 1669 C 2910 1650 2938 1580 2946 1580 C 2949 1580 2948 1596 2944 1616 C 2938 1647 2940 1652 2956 1648 C 2975 1645 2981 1606 2965 1581 C 2959 1570 2961 1568 2973 1573 C 2994 1581 2996 1546 2976 1510 L 2962 1486 L 2950 1528 L 2937 1569 L 2878 1566 C 2846 1564 2816 1560 2812 1555 C 2808 1551 2812 1549 2820 1552 C 2828 1555 2841 1550 2847 1541 C 2858 1527 2861 1527 2870 1540 C 2882 1559 2883 1548 2870 1516 C 2859 1485 2866 1483 2888 1510 C 2917 1544 2954 1496 2926 1461 C 2917 1449 2918 1448 2933 1453 C 2949 1459 2949 1458 2933 1433 L 2915 1406 L 2910 1430 C 2907 1446 2897 1456 2883 1458 C 2870 1460 2860 1457 2860 1451 C 2860 1445 2866 1443 2873 1446 C 2880 1448 2886 1442 2887 1430 C 2888 1419 2885 1410 2881 1410 C 2869 1410 2861 1361 2871 1354 C 2876 1351 2880 1341 2880 1332 C 2880 1319 2878 1318 2871 1328 C 2865 1338 2861 1338 2850 1326 C 2843 1317 2834 1313 2828 1316 C 2823 1319 2824 1328 2831 1336 C 2837 1344 2840 1353 2837 1356 C 2834 1359 2827 1352 2820 1341 C 2814 1329 2813 1320 2817 1320 C 2821 1320 2816 1314 2806 1307 C 2795 1299 2790 1286 2792 1274 C 2796 1258 2799 1260 2810 1285 C 2817 1302 2824 1310 2827 1302 C 2830 1295 2825 1279 2816 1266 C 2802 1244 2802 1241 2816 1236 C 2824 1233 2828 1234 2825 1239 C 2819 1250 2838 1265 2847 1256 C 2857 1246 2829 1220 2808 1220 C 2797 1220 2786 1211 2783 1200 C 2780 1189 2774 1183 2769 1186 C 2764 1189 2760 1188 2761 1183 C 2764 1164 2759 1156 2751 1169 C 2745 1178 2743 1174 2743 1156 C 2743 1141 2734 1120 2724 1109 C 2710 1094 2709 1089 2720 1092 C 2728 1094 2743 1105 2752 1117 C 2766 1133 2778 1138 2803 1135 C 2824 1132 2830 1134 2821 1139 C 2810 1146 2812 1150 2828 1159 C 2840 1165 2855 1189 2861 1211 C 2868 1233 2882 1257 2892 1264 C 2904 1272 2908 1283 2904 1294 C 2898 1309 2896 1308 2886 1289 C 2872 1260 2854 1255 2846 1275 C 2837 1299 2851 1316 2862 1295 C 2871 1280 2873 1280 2884 1301 C 2892 1317 2894 1331 2888 1343 C 2876 1367 2894 1390 2921 1383 C 2936 1379 2939 1381 2934 1394 C 2926 1414 2943 1415 2960 1395 C 2985 1365 2930 1334 2902 1362 C 2886 1378 2887 1358 2903 1335 C 2913 1323 2919 1321 2924 1328 C 2928 1335 2941 1340 2952 1340 C 2973 1340 2973 1340 2955 1320 C 2945 1308 2930 1302 2923 1305 C 2915 1307 2911 1306 2914 1301 C 2917 1296 2929 1290 2940 1287 C 2951 1284 2957 1286 2954 1292 C 2951 1297 2956 1310 2966 1321 C 2976 1332 2985 1354 2986 1369 C 2987 1391 2982 1401 2961 1410 C 2946 1417 2940 1425 2948 1427 C 2954 1430 2960 1443 2960 1456 C 2960 1469 2964 1480 2968 1480 C 2985 1480 3001 1550 2995 1593 C 2987 1648 2979 1661 2952 1663 C 2935 1664 2931 1669 2935 1689 C 2944 1737 2907 1768 2880 1735 C 2868 1721 2865 1721 2849 1736 C 2823 1759 2824 1783 2850 1775 C 2867 1770 2869 1772 2861 1792 C 2857 1805 2848 1815 2842 1815 C 2836 1815 2828 1818 2824 1823 C 2813 1833 2790 1832 2789 1820 z M 2834 1199 C 2824 1188 2807 1174 2798 1169 C 2782 1160 2781 1162 2791 1184 C 2797 1197 2808 1206 2815 1204 C 2822 1201 2831 1203 2835 1209 C 2838 1215 2844 1220 2847 1220 C 2850 1220 2845 1211 2834 1199 z" stroke-linecap="round" />
</g>
		<g transform="matrix(0.13 0 0 -0.13 -53.7 -105.81)"  >
<path style="stroke: none; stroke-width: 1; stroke-dasharray: none; stroke-linecap: butt; stroke-dashoffset: 0; stroke-linejoin: miter; stroke-miterlimit: 4; fill: rgb(155,107,67); fill-rule: nonzero; opacity: 1;" vector-effect="non-scaling-stroke"  transform=" translate(-1096.71, -1812.82)" d="M 1045 1815 C 1069 1807 1161 1803 1148 1811 C 1141 1816 1113 1819 1085 1819 C 1058 1819 1040 1817 1045 1815 z" stroke-linecap="round" />
</g>
		<g transform="matrix(0.13 0 0 -0.13 118.72 -98.18)"  >
<path style="stroke: none; stroke-width: 1; stroke-dasharray: none; stroke-linecap: butt; stroke-dashoffset: 0; stroke-linejoin: miter; stroke-miterlimit: 4; fill: rgb(155,107,67); fill-rule: nonzero; opacity: 1;" vector-effect="non-scaling-stroke"  transform=" translate(-2389.04, -1754.87)" d="M 2378 1775 C 2388 1755 2390 1748 2390 1730 C 2390 1711 2406 1720 2407 1739 C 2408 1750 2399 1766 2388 1777 C 2368 1795 2367 1795 2378 1775 z" stroke-linecap="round" />
</g>
		<g transform="matrix(0.13 0 0 -0.13 -62.24 -17.84)"  >
<path style="stroke: none; stroke-width: 1; stroke-dasharray: none; stroke-linecap: butt; stroke-dashoffset: 0; stroke-linejoin: miter; stroke-miterlimit: 4; fill: rgb(155,107,67); fill-rule: nonzero; opacity: 1;" vector-effect="non-scaling-stroke"  transform=" translate(-1045.09, -1137.52)" d="M 1115 1757 C 1088 1749 1054 1738 1040 1730 C 1003 1711 889 1619 860 1586 C 798 1514 731 1360 706 1230 C 690 1141 685 994 699 985 C 705 982 707 974 704 968 C 695 954 693 802 701 789 C 714 768 699 742 679 747 C 656 753 590 721 590 705 C 590 683 568 670 547 681 C 533 689 529 689 535 681 C 539 674 536 663 530 655 C 516 638 531 635 547 651 C 566 670 582 652 569 627 C 553 598 555 599 536 606 C 527 609 523 616 526 621 C 535 636 513 631 501 616 C 492 605 493 599 507 588 C 517 581 541 557 559 535 C 578 513 591 503 587 513 C 583 523 580 542 580 555 C 580 573 576 577 561 573 C 547 569 551 579 578 609 C 599 631 616 645 618 640 C 620 635 630 640 642 652 C 657 667 664 669 670 660 C 674 653 680 652 683 657 C 686 661 682 674 674 685 C 663 700 660 701 660 688 C 660 668 626 659 606 674 C 595 682 593 689 600 700 C 605 708 610 711 610 706 C 610 701 617 703 625 710 C 633 717 647 720 655 716 C 673 709 675 726 658 734 C 651 737 661 738 680 737 L 715 735 L 726 808 C 732 847 733 880 729 880 C 721 880 728 1058 737 1073 C 741 1079 738 1080 730 1075 C 722 1070 719 1073 723 1086 C 726 1097 732 1144 736 1192 C 739 1240 745 1278 749 1275 C 753 1273 755 1283 754 1298 C 752 1326 781 1390 797 1392 C 801 1393 817 1420 831 1454 C 861 1525 897 1586 906 1582 C 909 1580 918 1587 926 1597 C 939 1614 939 1614 940 1597 C 940 1587 935 1570 930 1559 C 924 1549 922 1540 925 1540 C 928 1540 940 1561 953 1587 C 975 1633 1020 1672 1107 1721 L 1143 1742 L 1125 1713 L 1107 1685 L 1131 1707 C 1144 1719 1169 1731 1185 1734 C 1211 1740 1212 1739 1193 1731 C 1159 1716 1165 1710 1202 1721 C 1244 1733 1263 1732 1255 1720 C 1252 1714 1259 1710 1271 1710 C 1283 1710 1290 1707 1287 1703 C 1275 1692 1301 1670 1326 1670 C 1338 1670 1352 1665 1356 1659 C 1359 1653 1371 1650 1381 1653 C 1392 1656 1400 1655 1400 1651 C 1400 1647 1412 1638 1426 1632 C 1446 1622 1450 1615 1445 1598 C 1439 1580 1440 1579 1453 1591 C 1461 1599 1465 1609 1462 1614 C 1454 1627 1525 1614 1563 1595 L 1595 1579 L 1555 1620 C 1533 1642 1510 1658 1503 1656 C 1496 1653 1488 1656 1484 1662 C 1480 1669 1481 1670 1488 1666 C 1495 1662 1500 1661 1500 1665 C 1500 1668 1490 1674 1478 1679 C 1461 1685 1451 1683 1442 1671 C 1431 1657 1430 1658 1435 1678 C 1439 1691 1437 1700 1431 1700 C 1425 1700 1420 1696 1420 1691 C 1420 1679 1366 1688 1362 1701 C 1360 1706 1353 1710 1346 1710 C 1338 1710 1322 1721 1308 1734 C 1278 1765 1188 1775 1115 1757 z" stroke-linecap="round" />
</g>
		<g transform="matrix(0.13 0 0 -0.13 60.91 -64.76)"  >
<path style="stroke: none; stroke-width: 1; stroke-dasharray: none; stroke-linecap: butt; stroke-dashoffset: 0; stroke-linejoin: miter; stroke-miterlimit: 4; fill: rgb(155,107,67); fill-rule: nonzero; opacity: 1;" vector-effect="non-scaling-stroke"  transform=" translate(-1960.41, -1499.45)" d="M 2005 1714 C 2025 1698 2025 1698 2005 1700 C 1994 1701 1981 1701 1975 1700 C 1970 1698 1957 1697 1948 1696 C 1938 1695 1930 1691 1930 1685 C 1930 1675 1938 1673 1988 1671 C 2003 1670 2010 1664 2010 1650 C 2010 1629 2024 1623 2034 1639 C 2038 1644 2034 1651 2028 1653 C 2021 1656 2029 1659 2046 1659 C 2088 1660 2095 1650 2064 1630 C 2050 1620 2039 1610 2040 1606 C 2042 1591 2010 1570 1985 1570 C 1967 1570 1945 1583 1921 1608 L 1883 1645 L 1830 1587 C 1783 1536 1778 1526 1788 1509 C 1802 1487 1803 1477 1791 1484 C 1787 1487 1772 1478 1759 1463 C 1746 1449 1741 1440 1748 1444 C 1754 1448 1760 1446 1760 1441 C 1760 1435 1755 1430 1748 1430 C 1742 1430 1739 1427 1742 1424 C 1745 1421 1757 1424 1769 1432 C 1794 1447 1822 1428 1803 1409 C 1795 1401 1797 1387 1812 1358 C 1823 1337 1830 1317 1828 1314 C 1825 1312 1804 1328 1780 1351 C 1746 1384 1739 1388 1745 1368 C 1750 1356 1760 1340 1768 1334 C 1788 1320 1793 1288 1777 1278 C 1768 1272 1768 1270 1778 1270 C 1786 1270 1805 1283 1821 1299 C 1850 1329 1858 1350 1840 1350 C 1835 1350 1833 1356 1836 1363 C 1839 1371 1836 1403 1830 1436 C 1807 1559 1807 1553 1833 1578 C 1857 1601 1858 1601 1871 1582 C 1879 1572 1910 1547 1940 1527 C 2004 1484 2053 1479 2094 1511 C 2127 1537 2144 1567 2130 1575 C 2124 1579 2120 1578 2121 1573 C 2122 1569 2122 1558 2121 1550 C 2120 1537 2118 1537 2109 1550 C 2100 1563 2099 1562 2104 1548 C 2112 1522 2070 1498 2023 1502 L 1985 1505 L 2020 1521 C 2040 1530 2069 1553 2084 1571 C 2113 1605 2147 1616 2142 1590 C 2141 1581 2148 1585 2160 1599 C 2171 1612 2180 1627 2180 1634 C 2180 1640 2173 1637 2166 1628 C 2147 1602 2141 1606 2145 1644 C 2146 1662 2145 1682 2141 1687 C 2132 1700 2100 1711 2100 1701 C 2100 1696 2091 1694 2080 1697 C 2069 1700 2060 1697 2060 1691 C 2060 1685 2067 1683 2077 1687 C 2088 1691 2091 1690 2086 1682 C 2082 1675 2065 1670 2049 1670 C 2021 1670 2020 1671 2035 1687 C 2051 1702 2050 1704 2028 1716 C 1996 1734 1981 1733 2005 1714 z M 2135 1670 C 2138 1664 2134 1657 2126 1654 C 2117 1651 2113 1644 2116 1639 C 2119 1634 2115 1627 2107 1624 C 2098 1621 2086 1605 2080 1589 C 2073 1573 2061 1560 2053 1560 C 2045 1560 2041 1556 2044 1551 C 2053 1537 2032 1533 1980 1540 C 1925 1547 1852 1596 1870 1614 C 1878 1622 1886 1619 1899 1604 C 1918 1580 1958 1556 1980 1555 C 2006 1554 2049 1579 2061 1603 C 2068 1615 2080 1630 2088 1636 C 2100 1645 2100 1649 2090 1655 C 2080 1661 2081 1664 2091 1671 C 2110 1683 2127 1682 2135 1670 z" stroke-linecap="round" />
</g>
		<g transform="matrix(0.13 0 0 -0.13 182.17 -83.01)"  >
<path style="stroke: none; stroke-width: 1; stroke-dasharray: none; stroke-linecap: butt; stroke-dashoffset: 0; stroke-linejoin: miter; stroke-miterlimit: 4; fill: rgb(155,107,67); fill-rule: nonzero; opacity: 1;" vector-effect="non-scaling-stroke"  transform=" translate(-2865.16, -1640.47)" d="M 2839 1658 C 2842 1634 2845 1623 2848 1633 C 2850 1642 2856 1650 2861 1650 C 2872 1650 2869 1612 2857 1593 C 2845 1574 2863 1578 2880 1598 C 2900 1620 2895 1671 2874 1663 C 2864 1659 2857 1665 2853 1679 C 2844 1716 2834 1702 2839 1658 z" stroke-linecap="round" />
</g>
		<g transform="matrix(0.13 0 0 -0.13 174.01 -83.47)"  >
<path style="stroke: none; stroke-width: 1; stroke-dasharray: none; stroke-linecap: butt; stroke-dashoffset: 0; stroke-linejoin: miter; stroke-miterlimit: 4; fill: rgb(155,107,67); fill-rule: nonzero; opacity: 1;" vector-effect="non-scaling-stroke"  transform=" translate(-2803.55, -1644.34)" d="M 2803 1658 C 2806 1637 2805 1620 2799 1620 C 2794 1620 2790 1616 2790 1610 C 2790 1605 2797 1600 2805 1600 C 2816 1600 2819 1610 2816 1640 C 2814 1662 2809 1684 2805 1688 C 2801 1692 2800 1678 2803 1658 z" stroke-linecap="round" />
</g>
		<g transform="matrix(0.13 0 0 -0.13 102.3 -72.02)"  >
<path style="stroke: none; stroke-width: 1; stroke-dasharray: none; stroke-linecap: butt; stroke-dashoffset: 0; stroke-linejoin: miter; stroke-miterlimit: 4; fill: rgb(155,107,67); fill-rule: nonzero; opacity: 1;" vector-effect="non-scaling-stroke"  transform=" translate(-2267.64, -1557.77)" d="M 2198 1599 C 2173 1575 2171 1571 2190 1582 C 2212 1595 2218 1595 2253 1576 C 2279 1562 2287 1554 2276 1552 C 2267 1550 2260 1542 2260 1534 C 2260 1526 2249 1515 2235 1508 C 2222 1502 2213 1493 2216 1488 C 2220 1483 2232 1488 2244 1499 C 2256 1511 2270 1517 2274 1513 C 2278 1509 2278 1514 2274 1524 C 2269 1538 2270 1541 2278 1536 C 2285 1532 2290 1534 2290 1539 C 2290 1545 2293 1549 2298 1549 C 2302 1548 2317 1548 2331 1549 C 2352 1550 2358 1555 2358 1575 C 2358 1589 2353 1600 2348 1600 C 2343 1600 2342 1596 2345 1590 C 2355 1574 2338 1578 2317 1598 C 2306 1607 2300 1609 2304 1602 C 2313 1586 2284 1574 2267 1588 C 2261 1594 2251 1598 2245 1598 C 2240 1598 2234 1603 2232 1608 C 2230 1614 2238 1616 2251 1613 C 2266 1609 2271 1610 2266 1618 C 2254 1638 2232 1632 2198 1599 z" stroke-linecap="round" />
</g>
		<g transform="matrix(0.13 0 0 -0.13 11.18 -25.46)"  >
<path style="stroke: none; stroke-width: 1; stroke-dasharray: none; stroke-linecap: butt; stroke-dashoffset: 0; stroke-linejoin: miter; stroke-miterlimit: 4; fill: rgb(155,107,67); fill-rule: nonzero; opacity: 1;" vector-effect="non-scaling-stroke"  transform=" translate(-1586.29, -1200.39)" d="M 1480 1592 C 1480 1588 1489 1579 1500 1572 C 1512 1565 1518 1554 1514 1548 C 1509 1541 1511 1540 1520 1545 C 1528 1550 1541 1542 1556 1524 C 1583 1490 1587 1472 1563 1491 C 1553 1499 1560 1487 1578 1465 C 1595 1443 1610 1422 1610 1417 C 1610 1413 1621 1399 1635 1387 C 1653 1372 1662 1352 1665 1322 C 1668 1295 1666 1282 1660 1285 C 1654 1289 1652 1295 1654 1299 C 1657 1303 1650 1316 1640 1328 C 1629 1340 1620 1353 1620 1358 C 1620 1364 1608 1371 1594 1374 C 1561 1383 1543 1401 1534 1434 C 1531 1448 1523 1460 1517 1460 C 1511 1460 1510 1463 1513 1467 C 1517 1470 1512 1482 1503 1493 C 1489 1508 1488 1514 1498 1517 C 1508 1521 1507 1526 1494 1541 C 1470 1568 1457 1554 1475 1519 C 1484 1503 1488 1490 1485 1490 C 1482 1490 1487 1479 1496 1465 C 1505 1451 1508 1440 1502 1440 C 1496 1440 1496 1431 1503 1415 C 1510 1401 1521 1390 1528 1390 C 1534 1390 1540 1385 1540 1379 C 1540 1367 1569 1341 1583 1340 C 1588 1340 1588 1346 1584 1353 C 1580 1359 1592 1350 1609 1331 C 1627 1313 1638 1295 1635 1292 C 1632 1289 1624 1292 1618 1298 C 1591 1325 1420 1302 1420 1271 C 1420 1266 1417 1255 1414 1247 C 1410 1235 1417 1236 1449 1252 C 1500 1277 1604 1288 1625 1270 C 1635 1261 1640 1239 1640 1195 C 1640 1161 1647 1113 1655 1090 C 1663 1067 1670 1027 1670 1001 C 1670 962 1663 931 1628 810 C 1625 802 1625 798 1627 803 C 1630 807 1635 808 1639 805 C 1644 803 1658 812 1670 825 C 1688 845 1691 853 1682 862 C 1660 884 1668 910 1698 911 L 1725 911 L 1703 927 C 1679 943 1673 974 1691 986 C 1697 989 1700 1003 1697 1016 C 1692 1047 1701 1053 1734 1040 C 1777 1024 1763 1039 1713 1063 C 1673 1081 1664 1091 1657 1123 C 1643 1180 1654 1210 1689 1210 C 1705 1210 1723 1217 1730 1225 C 1740 1237 1737 1240 1716 1246 C 1692 1252 1691 1255 1696 1294 C 1699 1316 1703 1340 1705 1347 C 1707 1353 1705 1371 1700 1387 C 1694 1408 1691 1410 1690 1395 C 1689 1375 1689 1375 1681 1395 C 1676 1406 1667 1415 1660 1415 C 1652 1415 1642 1431 1637 1450 C 1630 1480 1595 1535 1550 1588 C 1538 1601 1480 1605 1480 1592 z" stroke-linecap="round" />
</g>
		<g transform="matrix(0.13 0 0 -0.13 -41.5 -56.79)"  >
<path style="stroke: none; stroke-width: 1; stroke-dasharray: none; stroke-linecap: butt; stroke-dashoffset: 0; stroke-linejoin: miter; stroke-miterlimit: 4; fill: rgb(155,107,67); fill-rule: nonzero; opacity: 1;" vector-effect="non-scaling-stroke"  transform=" translate(-1190.4, -1441.69)" d="M 1275 1579 C 1259 1574 1241 1561 1235 1548 C 1224 1524 1198 1510 1202 1532 C 1204 1539 1210 1548 1215 1552 C 1222 1557 1222 1560 1215 1560 C 1186 1560 1120 1472 1081 1383 C 1044 1299 1041 1276 1072 1316 C 1085 1332 1104 1353 1115 1363 C 1126 1373 1129 1379 1123 1375 C 1116 1372 1122 1393 1137 1422 C 1151 1451 1163 1480 1163 1486 C 1163 1493 1168 1496 1174 1494 C 1180 1492 1203 1504 1225 1520 C 1247 1537 1280 1557 1298 1565 C 1315 1573 1330 1582 1330 1583 C 1330 1589 1306 1587 1275 1579 z" stroke-linecap="round" />
</g>
		<g transform="matrix(0.13 0 0 -0.13 -30.25 -58.77)"  >
<path style="stroke: none; stroke-width: 1; stroke-dasharray: none; stroke-linecap: butt; stroke-dashoffset: 0; stroke-linejoin: miter; stroke-miterlimit: 4; fill: rgb(155,107,67); fill-rule: nonzero; opacity: 1;" vector-effect="non-scaling-stroke"  transform=" translate(-1275.53, -1457)" d="M 1365 1580 C 1361 1574 1364 1571 1371 1572 C 1377 1574 1384 1570 1387 1564 C 1391 1552 1339 1507 1280 1474 C 1248 1455 1224 1435 1135 1355 L 1105 1328 L 1137 1350 C 1155 1361 1172 1375 1175 1380 C 1178 1385 1218 1415 1263 1446 C 1308 1478 1357 1515 1373 1528 L 1400 1554 L 1420 1532 C 1446 1505 1450 1505 1443 1530 C 1440 1541 1432 1550 1424 1550 C 1416 1550 1413 1556 1417 1567 C 1421 1578 1420 1581 1411 1576 C 1405 1572 1393 1573 1385 1580 C 1376 1588 1370 1588 1365 1580 z" stroke-linecap="round" />
</g>
		<g transform="matrix(0.13 0 0 -0.13 117.66 -66.75)"  >
<path style="stroke: none; stroke-width: 1; stroke-dasharray: none; stroke-linecap: butt; stroke-dashoffset: 0; stroke-linejoin: miter; stroke-miterlimit: 4; fill: rgb(155,107,67); fill-rule: nonzero; opacity: 1;" vector-effect="non-scaling-stroke"  transform=" translate(-2381.73, -1518.99)" d="M 2400 1551 C 2392 1545 2382 1544 2376 1547 C 2371 1550 2370 1548 2374 1542 C 2377 1536 2374 1528 2367 1523 C 2359 1519 2348 1504 2341 1490 C 2332 1472 2338 1475 2362 1503 C 2393 1538 2427 1558 2400 1525 C 2386 1509 2397 1505 2419 1519 C 2428 1525 2429 1530 2421 1534 C 2415 1538 2412 1546 2415 1551 C 2423 1562 2419 1562 2400 1551 z" stroke-linecap="round" />
</g>
		<g transform="matrix(0.13 0 0 -0.13 93.2 -59.84)"  >
<path style="stroke: none; stroke-width: 1; stroke-dasharray: none; stroke-linecap: butt; stroke-dashoffset: 0; stroke-linejoin: miter; stroke-miterlimit: 4; fill: rgb(155,107,67); fill-rule: nonzero; opacity: 1;" vector-effect="non-scaling-stroke"  transform=" translate(-2197.84, -1467.35)" d="M 2176 1495 C 2173 1487 2175 1478 2181 1474 C 2187 1470 2187 1462 2178 1452 C 2168 1438 2168 1437 2180 1447 C 2191 1457 2196 1456 2206 1442 C 2213 1433 2221 1428 2224 1431 C 2228 1434 2219 1448 2205 1463 C 2188 1479 2183 1489 2192 1492 C 2200 1495 2201 1498 2193 1503 C 2187 1507 2180 1503 2176 1495 z" stroke-linecap="round" />
</g>
		<g transform="matrix(0.13 0 0 -0.13 128.22 -56.21)"  >
<path style="stroke: none; stroke-width: 1; stroke-dasharray: none; stroke-linecap: butt; stroke-dashoffset: 0; stroke-linejoin: miter; stroke-miterlimit: 4; fill: rgb(155,107,67); fill-rule: nonzero; opacity: 1;" vector-effect="non-scaling-stroke"  transform=" translate(-2461.75, -1440)" d="M 2420 1469 C 2420 1464 2416 1462 2410 1465 C 2404 1468 2403 1464 2406 1455 C 2410 1446 2404 1430 2395 1420 C 2384 1408 2382 1400 2388 1400 C 2395 1400 2400 1404 2400 1409 C 2400 1414 2418 1421 2440 1425 C 2462 1429 2483 1436 2486 1442 C 2490 1449 2495 1448 2499 1441 C 2504 1433 2512 1434 2526 1445 C 2544 1458 2544 1459 2520 1454 C 2500 1449 2498 1451 2510 1459 C 2519 1466 2520 1470 2513 1470 C 2507 1470 2498 1466 2495 1460 C 2486 1445 2470 1448 2470 1465 C 2470 1473 2465 1480 2459 1480 C 2454 1480 2452 1476 2455 1470 C 2458 1465 2455 1460 2448 1460 C 2439 1460 2439 1457 2450 1450 C 2462 1443 2460 1441 2442 1443 C 2426 1444 2421 1449 2426 1462 C 2429 1472 2429 1480 2426 1480 C 2423 1480 2420 1475 2420 1469 z" stroke-linecap="round" />
</g>
		<g transform="matrix(0.13 0 0 -0.13 78.14 -54.54)"  >
<path style="stroke: none; stroke-width: 1; stroke-dasharray: none; stroke-linecap: butt; stroke-dashoffset: 0; stroke-linejoin: miter; stroke-miterlimit: 4; fill: rgb(155,107,67); fill-rule: nonzero; opacity: 1;" vector-effect="non-scaling-stroke"  transform=" translate(-2085.04, -1427.92)" d="M 2050 1439 C 2050 1418 2072 1399 2085 1408 C 2091 1412 2102 1424 2110 1435 C 2125 1455 2124 1455 2102 1436 C 2080 1417 2079 1417 2065 1436 C 2053 1452 2051 1452 2050 1439 z" stroke-linecap="round" />
</g>
		<g transform="matrix(0.13 0 0 -0.13 176.15 -52.97)"  >
<path style="stroke: none; stroke-width: 1; stroke-dasharray: none; stroke-linecap: butt; stroke-dashoffset: 0; stroke-linejoin: miter; stroke-miterlimit: 4; fill: rgb(155,107,67); fill-rule: nonzero; opacity: 1;" vector-effect="non-scaling-stroke"  transform=" translate(-2819.99, -1416.18)" d="M 2802 1420 C 2787 1395 2787 1387 2803 1397 C 2809 1401 2823 1403 2833 1402 C 2844 1400 2850 1405 2849 1417 C 2849 1427 2846 1430 2843 1423 C 2841 1416 2834 1410 2828 1410 C 2822 1410 2820 1417 2824 1425 C 2832 1447 2817 1443 2802 1420 z" stroke-linecap="round" />
</g>
		<g transform="matrix(0.13 0 0 -0.13 96.66 -41.71)"  >
<path style="stroke: none; stroke-width: 1; stroke-dasharray: none; stroke-linecap: butt; stroke-dashoffset: 0; stroke-linejoin: miter; stroke-miterlimit: 4; fill: rgb(155,107,67); fill-rule: nonzero; opacity: 1;" vector-effect="non-scaling-stroke"  transform=" translate(-2224.9, -1330.34)" d="M 2210 1345 C 2309 1238 2306 1241 2282 1275 C 2271 1292 2233 1332 2199 1365 C 2137 1424 2137 1423 2210 1345 z" stroke-linecap="round" />
</g>
		<g transform="matrix(0.13 0 0 -0.13 -95.9 -39.99)"  >
<path style="stroke: none; stroke-width: 1; stroke-dasharray: none; stroke-linecap: butt; stroke-dashoffset: 0; stroke-linejoin: miter; stroke-miterlimit: 4; fill: rgb(155,107,67); fill-rule: nonzero; opacity: 1;" vector-effect="non-scaling-stroke"  transform=" translate(-779.33, -1318.33)" d="M 787 1343 C 791 1333 789 1329 782 1334 C 776 1337 768 1335 764 1329 C 759 1321 761 1320 770 1325 C 779 1331 781 1325 776 1299 C 767 1255 785 1282 795 1328 C 799 1348 798 1360 791 1360 C 785 1360 784 1353 787 1343 z" stroke-linecap="round" />
</g>
		<g transform="matrix(0.13 0 0 -0.13 125.12 -39.31)"  >
<path style="stroke: none; stroke-width: 1; stroke-dasharray: none; stroke-linecap: butt; stroke-dashoffset: 0; stroke-linejoin: miter; stroke-miterlimit: 4; fill: rgb(155,107,67); fill-rule: nonzero; opacity: 1;" vector-effect="non-scaling-stroke"  transform=" translate(-2437.77, -1313.17)" d="M 2390 1349 C 2390 1334 2460 1270 2477 1270 C 2502 1270 2467 1311 2438 1317 C 2422 1320 2410 1328 2410 1336 C 2410 1343 2406 1352 2400 1355 C 2395 1358 2390 1356 2390 1349 z" stroke-linecap="round" />
</g>
		<g transform="matrix(0.13 0 0 -0.13 79.54 -25.37)"  >
<path style="stroke: none; stroke-width: 1; stroke-dasharray: none; stroke-linecap: butt; stroke-dashoffset: 0; stroke-linejoin: miter; stroke-miterlimit: 4; fill: rgb(155,107,67); fill-rule: nonzero; opacity: 1;" vector-effect="non-scaling-stroke"  transform=" translate(-2097.19, -1207.44)" d="M 2000 1289 C 2000 1283 2009 1276 2020 1273 C 2031 1270 2040 1265 2040 1261 C 2040 1257 2058 1243 2081 1231 C 2105 1217 2133 1189 2152 1159 C 2168 1132 2186 1113 2191 1116 C 2197 1119 2195 1131 2185 1143 C 2177 1155 2165 1175 2160 1188 C 2137 1242 2000 1329 2000 1289 z" stroke-linecap="round" />
</g>
		<g transform="matrix(0.13 0 0 -0.13 -46.08 -29)"  >
<path style="stroke: none; stroke-width: 1; stroke-dasharray: none; stroke-linecap: butt; stroke-dashoffset: 0; stroke-linejoin: miter; stroke-miterlimit: 4; fill: rgb(155,107,67); fill-rule: nonzero; opacity: 1;" vector-effect="non-scaling-stroke"  transform=" translate(-1156.26, -1235.64)" d="M 1073 1279 C 1060 1275 1050 1274 1050 1278 C 1049 1288 1032 1257 1014 1214 C 1006 1194 1004 1181 1009 1185 C 1015 1188 1020 1197 1020 1204 C 1020 1247 1119 1265 1229 1243 C 1269 1235 1304 1231 1306 1233 C 1308 1235 1298 1247 1284 1261 C 1262 1282 1248 1285 1177 1287 C 1132 1287 1085 1284 1073 1279 z" stroke-linecap="round" />
</g>
		<g transform="matrix(0.13 0 0 -0.13 132.77 -26.68)"  >
<path style="stroke: none; stroke-width: 1; stroke-dasharray: none; stroke-linecap: butt; stroke-dashoffset: 0; stroke-linejoin: miter; stroke-miterlimit: 4; fill: rgb(155,107,67); fill-rule: nonzero; opacity: 1;" vector-effect="non-scaling-stroke"  transform=" translate(-2495.18, -1218.6)" d="M 2477 1247 C 2469 1241 2472 1240 2484 1244 C 2500 1250 2501 1248 2490 1235 C 2482 1225 2481 1220 2489 1220 C 2495 1220 2500 1215 2500 1209 C 2500 1204 2496 1202 2490 1205 C 2485 1208 2470 1204 2458 1196 C 2437 1181 2437 1180 2456 1180 C 2483 1180 2522 1209 2513 1223 C 2509 1230 2514 1229 2523 1221 C 2533 1213 2543 1210 2547 1214 C 2550 1217 2548 1220 2542 1220 C 2535 1220 2531 1223 2531 1228 C 2536 1256 2505 1267 2477 1247 z" stroke-linecap="round" />
</g>
		<g transform="matrix(0.13 0 0 -0.13 69.92 -16.3)"  >
<path style="stroke: none; stroke-width: 1; stroke-dasharray: none; stroke-linecap: butt; stroke-dashoffset: 0; stroke-linejoin: miter; stroke-miterlimit: 4; fill: rgb(155,107,67); fill-rule: nonzero; opacity: 1;" vector-effect="non-scaling-stroke"  transform=" translate(-2025.39, -1138.97)" d="M 1917 1243 C 1901 1228 1913 1220 1962 1214 C 2003 1208 2010 1205 1995 1198 C 1978 1191 1980 1190 2002 1193 C 2024 1196 2028 1193 2024 1177 C 2022 1166 2018 1155 2016 1152 C 2004 1141 2033 1110 2055 1110 C 2069 1110 2080 1104 2080 1097 C 2080 1090 2094 1068 2110 1050 C 2139 1018 2150 1022 2131 1058 C 2125 1067 2119 1088 2115 1103 C 2106 1145 2028 1225 1981 1238 C 1937 1252 1926 1253 1917 1243 z M 2097 1127 C 2121 1079 2107 1089 2072 1143 C 2048 1179 2045 1189 2060 1175 C 2072 1164 2089 1142 2097 1127 z" stroke-linecap="round" />
</g>
		<g transform="matrix(0.13 0 0 -0.13 2.15 -24.51)"  >
<path style="stroke: none; stroke-width: 1; stroke-dasharray: none; stroke-linecap: butt; stroke-dashoffset: 0; stroke-linejoin: miter; stroke-miterlimit: 4; fill: rgb(155,107,67); fill-rule: nonzero; opacity: 1;" vector-effect="non-scaling-stroke"  transform=" translate(-1516.93, -1202.2)" d="M 1503 1233 C 1507 1227 1497 1218 1482 1211 C 1457 1200 1456 1201 1474 1215 C 1497 1232 1488 1235 1459 1219 C 1448 1214 1442 1205 1445 1199 C 1449 1194 1446 1191 1438 1192 C 1431 1194 1422 1202 1418 1210 C 1413 1221 1411 1219 1411 1203 C 1410 1176 1423 1171 1489 1178 C 1530 1182 1541 1180 1536 1171 C 1530 1162 1538 1160 1567 1165 C 1632 1176 1633 1177 1607 1206 C 1583 1231 1489 1256 1503 1233 z" stroke-linecap="round" />
</g>
		<g transform="matrix(0.13 0 0 -0.13 -44.33 -19.32)"  >
<path style="stroke: none; stroke-width: 1; stroke-dasharray: none; stroke-linecap: butt; stroke-dashoffset: 0; stroke-linejoin: miter; stroke-miterlimit: 4; fill: rgb(155,107,67); fill-rule: nonzero; opacity: 1;" vector-effect="non-scaling-stroke"  transform=" translate(-1168.6, -1163.15)" d="M 1100 1195 C 1069 1179 1042 1133 1056 1121 C 1069 1109 1132 1128 1124 1142 C 1119 1150 1130 1151 1163 1147 C 1192 1143 1210 1144 1210 1150 C 1210 1156 1227 1160 1248 1160 L 1285 1161 L 1246 1175 C 1225 1182 1203 1193 1197 1199 C 1182 1214 1130 1212 1100 1195 z" stroke-linecap="round" />
</g>
		<g transform="matrix(0.13 0 0 -0.13 163.3 -22.04)"  >
<path style="stroke: none; stroke-width: 1; stroke-dasharray: none; stroke-linecap: butt; stroke-dashoffset: 0; stroke-linejoin: miter; stroke-miterlimit: 4; fill: rgb(155,107,67); fill-rule: nonzero; opacity: 1;" vector-effect="non-scaling-stroke"  transform=" translate(-2723.8, -1184.09)" d="M 2723 1195 C 2705 1187 2690 1176 2690 1170 C 2690 1152 2714 1159 2739 1185 C 2766 1214 2766 1214 2723 1195 z" stroke-linecap="round" />
</g>
		<g transform="matrix(0.13 0 0 -0.13 -53.15 21.86)"  >
<path style="stroke: none; stroke-width: 1; stroke-dasharray: none; stroke-linecap: butt; stroke-dashoffset: 0; stroke-linejoin: miter; stroke-miterlimit: 4; fill: rgb(155,107,67); fill-rule: nonzero; opacity: 1;" vector-effect="non-scaling-stroke"  transform=" translate(-1103.94, -847.54)" d="M 973 1092 C 960 1047 949 976 946 922 C 944 871 937 823 930 816 C 922 805 923 802 937 804 C 949 805 963 786 983 745 C 999 712 1016 683 1021 682 C 1026 680 1036 673 1043 667 C 1049 660 1072 644 1092 630 C 1112 617 1126 601 1123 596 C 1120 591 1122 590 1127 593 C 1139 601 1191 580 1235 550 C 1252 539 1271 530 1279 530 C 1299 530 1240 572 1155 620 C 1014 698 987 745 984 918 C 982 980 986 1060 992 1096 C 997 1132 1000 1163 998 1165 C 996 1167 985 1134 973 1092 z" stroke-linecap="round" />
</g>
		<g transform="matrix(0.13 0 0 -0.13 62.13 -13.21)"  >
<path style="stroke: none; stroke-width: 1; stroke-dasharray: none; stroke-linecap: butt; stroke-dashoffset: 0; stroke-linejoin: miter; stroke-miterlimit: 4; fill: rgb(155,107,67); fill-rule: nonzero; opacity: 1;" vector-effect="non-scaling-stroke"  transform=" translate(-1965, -1117.24)" d="M 1930 1157 C 1930 1148 1935 1140 1941 1138 C 1946 1136 1952 1127 1954 1117 C 1956 1099 2000 1053 2000 1068 C 2000 1073 1993 1083 1985 1090 C 1977 1097 1966 1116 1962 1133 C 1954 1165 1930 1183 1930 1157 z" stroke-linecap="round" />
</g>
		<g transform="matrix(0.13 0 0 -0.13 126.75 -13.12)"  >
<path style="stroke: none; stroke-width: 1; stroke-dasharray: none; stroke-linecap: butt; stroke-dashoffset: 0; stroke-linejoin: miter; stroke-miterlimit: 4; fill: rgb(155,107,67); fill-rule: nonzero; opacity: 1;" vector-effect="non-scaling-stroke"  transform=" translate(-2450.41, -1116.54)" d="M 2401 1149 C 2385 1136 2382 1125 2387 1097 C 2393 1055 2417 1056 2422 1098 C 2424 1120 2430 1125 2452 1125 C 2466 1124 2476 1128 2474 1132 C 2471 1136 2462 1140 2453 1140 C 2425 1140 2449 1154 2481 1156 C 2533 1160 2525 1168 2471 1167 C 2442 1166 2413 1158 2401 1149 z" stroke-linecap="round" />
</g>
		<g transform="matrix(0.13 0 0 -0.13 143.8 -16.75)"  >
<path style="stroke: none; stroke-width: 1; stroke-dasharray: none; stroke-linecap: butt; stroke-dashoffset: 0; stroke-linejoin: miter; stroke-miterlimit: 4; fill: rgb(155,107,67); fill-rule: nonzero; opacity: 1;" vector-effect="non-scaling-stroke"  transform=" translate(-2577.29, -1144.55)" d="M 2578 1151 C 2581 1142 2579 1139 2572 1144 C 2566 1147 2558 1145 2554 1139 C 2550 1131 2551 1130 2558 1134 C 2565 1138 2570 1136 2570 1130 C 2570 1115 2587 1126 2599 1148 C 2606 1162 2604 1166 2590 1166 C 2579 1166 2574 1161 2578 1151 z" stroke-linecap="round" />
</g>
		<g transform="matrix(0.13 0 0 -0.13 -98.53 -0.66)"  >
<path style="stroke: none; stroke-width: 1; stroke-dasharray: none; stroke-linecap: butt; stroke-dashoffset: 0; stroke-linejoin: miter; stroke-miterlimit: 4; fill: rgb(155,107,67); fill-rule: nonzero; opacity: 1;" vector-effect="non-scaling-stroke"  transform=" translate(-759.83, -1021.12)" d="M 760 1103 C 753 1076 746 1033 744 1005 C 742 978 738 939 735 920 C 731 901 732 889 736 893 C 741 898 752 949 761 1008 C 769 1067 780 1123 784 1133 C 789 1143 788 1150 782 1150 C 777 1150 767 1129 760 1103 z" stroke-linecap="round" />
</g>
		<g transform="matrix(0.13 0 0 -0.13 184.56 4.37)"  >
<path style="stroke: none; stroke-width: 1; stroke-dasharray: none; stroke-linecap: butt; stroke-dashoffset: 0; stroke-linejoin: miter; stroke-miterlimit: 4; fill: rgb(155,107,67); fill-rule: nonzero; opacity: 1;" vector-effect="non-scaling-stroke"  transform=" translate(-2885, -984)" d="M 2780 1066 C 2780 1042 2796 1030 2829 1030 C 2839 1030 2855 1021 2865 1010 C 2875 999 2880 990 2875 990 C 2865 990 2933 930 2944 930 C 2948 930 2949 918 2946 904 L 2939 878 L 2965 904 C 2979 918 2990 935 2990 943 C 2990 965 2821 1090 2791 1090 C 2785 1090 2780 1079 2780 1066 z" stroke-linecap="round" />
</g>
		<g transform="matrix(0.13 0 0 -0.13 85.56 51.54)"  >
<path style="stroke: none; stroke-width: 1; stroke-dasharray: none; stroke-linecap: butt; stroke-dashoffset: 0; stroke-linejoin: miter; stroke-miterlimit: 4; fill: rgb(155,107,67); fill-rule: nonzero; opacity: 1;" vector-effect="non-scaling-stroke"  transform=" translate(-2153.11, -621.41)" d="M 2486 1058 C 2478 1046 2473 1033 2476 1028 C 2483 1017 2429 1029 2412 1043 C 2403 1050 2401 1048 2406 1035 C 2411 1023 2410 1019 2402 1024 C 2388 1032 2350 1010 2350 992 C 2350 985 2343 977 2335 974 C 2327 970 2320 959 2320 949 C 2320 933 2325 931 2348 936 C 2363 940 2395 951 2420 963 C 2445 974 2472 984 2480 985 C 2488 986 2517 993 2545 999 C 2589 1010 2596 1009 2607 994 C 2614 984 2620 973 2620 969 C 2620 954 2568 901 2547 894 C 2535 891 2498 875 2464 859 C 2390 823 2309 811 2289 832 C 2277 845 2268 843 2218 818 C 2187 803 2150 790 2137 790 C 2123 790 2095 784 2073 776 C 2007 753 1857 737 1746 742 L 1641 747 L 1635 701 C 1632 676 1627 644 1624 632 C 1621 617 1623 611 1630 615 C 1635 618 1640 634 1640 649 C 1640 664 1645 692 1651 710 C 1661 737 1664 740 1672 726 C 1677 717 1686 713 1693 717 C 1724 737 1728 727 1709 678 C 1696 644 1693 630 1702 633 C 1709 635 1714 643 1713 649 C 1711 655 1715 660 1720 660 C 1726 660 1730 666 1730 673 C 1730 680 1739 691 1750 697 C 1766 708 1771 707 1779 692 C 1788 677 1789 677 1790 691 C 1790 708 1830 725 1830 708 C 1830 703 1836 702 1843 707 C 1894 739 1959 696 2045 570 C 2066 540 2092 503 2102 489 C 2113 475 2127 446 2135 424 C 2144 398 2154 385 2167 385 C 2191 385 2242 357 2282 321 C 2300 306 2343 278 2378 260 C 2427 235 2440 223 2440 204 C 2440 192 2432 176 2423 170 C 2395 153 2448 169 2486 189 L 2517 206 L 2494 217 C 2478 225 2472 225 2477 218 C 2480 211 2478 210 2472 214 C 2465 218 2460 226 2460 232 C 2460 246 2436 264 2380 295 C 2355 308 2324 329 2310 342 C 2296 355 2270 373 2253 381 C 2235 388 2220 398 2220 402 C 2220 407 2214 410 2207 410 C 2199 410 2159 461 2117 523 C 2075 585 2027 649 2010 665 C 1994 681 1980 699 1980 705 C 1980 710 2017 724 2063 734 C 2108 745 2170 762 2200 773 C 2236 787 2282 794 2335 794 C 2409 795 2422 799 2511 842 C 2585 879 2613 898 2634 929 C 2652 954 2667 967 2676 963 C 2687 959 2686 965 2673 989 C 2656 1019 2655 1019 2648 997 C 2644 983 2642 981 2641 991 C 2640 1000 2631 1010 2620 1013 C 2607 1016 2600 1027 2600 1042 C 2599 1063 2598 1064 2586 1047 C 2576 1034 2565 1031 2546 1036 C 2532 1039 2523 1046 2526 1051 C 2529 1056 2528 1060 2523 1059 C 2503 1056 2496 1061 2510 1070 C 2519 1076 2520 1080 2513 1080 C 2507 1080 2494 1070 2486 1058 z" stroke-linecap="round" />
</g>
		<g transform="matrix(0.13 0 0 -0.13 162.03 -2.31)"  >
<path style="stroke: none; stroke-width: 1; stroke-dasharray: none; stroke-linecap: butt; stroke-dashoffset: 0; stroke-linejoin: miter; stroke-miterlimit: 4; fill: rgb(155,107,67); fill-rule: nonzero; opacity: 1;" vector-effect="non-scaling-stroke"  transform=" translate(-2714.18, -1036.16)" d="M 2713 1041 C 2710 1028 2702 1023 2692 1026 C 2678 1030 2679 1029 2693 1020 C 2703 1014 2718 1011 2727 1014 C 2740 1019 2740 1023 2729 1037 C 2717 1052 2717 1053 2733 1047 C 2744 1043 2749 1044 2745 1050 C 2735 1066 2718 1061 2713 1041 z" stroke-linecap="round" />
</g>
		<g transform="matrix(0.13 0 0 -0.13 0.76 3.62)"  >
<path style="stroke: none; stroke-width: 1; stroke-dasharray: none; stroke-linecap: butt; stroke-dashoffset: 0; stroke-linejoin: miter; stroke-miterlimit: 4; fill: rgb(155,107,67); fill-rule: nonzero; opacity: 1;" vector-effect="non-scaling-stroke"  transform=" translate(-1504.67, -991.33)" d="M 1488 1013 C 1500 1005 1510 989 1510 979 C 1510 957 1526 945 1535 961 C 1543 973 1493 1030 1476 1029 C 1470 1029 1475 1022 1488 1013 z" stroke-linecap="round" />
</g>
		<g transform="matrix(0.13 0 0 -0.13 -95.85 12.96)"  >
<path style="stroke: none; stroke-width: 1; stroke-dasharray: none; stroke-linecap: butt; stroke-dashoffset: 0; stroke-linejoin: miter; stroke-miterlimit: 4; fill: rgb(155,107,67); fill-rule: nonzero; opacity: 1;" vector-effect="non-scaling-stroke"  transform=" translate(-779.5, -920.13)" d="M 778 981 C 773 963 770 922 771 891 L 772 835 L 781 880 C 786 905 789 945 788 970 C 785 1015 785 1015 778 981 z" stroke-linecap="round" />
</g>
		<g transform="matrix(0.13 0 0 -0.13 -4.19 10.2)"  >
<path style="stroke: none; stroke-width: 1; stroke-dasharray: none; stroke-linecap: butt; stroke-dashoffset: 0; stroke-linejoin: miter; stroke-miterlimit: 4; fill: rgb(155,107,67); fill-rule: nonzero; opacity: 1;" vector-effect="non-scaling-stroke"  transform=" translate(-1467.31, -942.48)" d="M 1451 947 C 1445 939 1443 930 1446 927 C 1455 919 1490 938 1490 950 C 1490 965 1464 962 1451 947 z" stroke-linecap="round" />
</g>
		<g transform="matrix(0.13 0 0 -0.13 140.51 11.12)"  >
<path style="stroke: none; stroke-width: 1; stroke-dasharray: none; stroke-linecap: butt; stroke-dashoffset: 0; stroke-linejoin: miter; stroke-miterlimit: 4; fill: rgb(155,107,67); fill-rule: nonzero; opacity: 1;" vector-effect="non-scaling-stroke"  transform=" translate(-2552.69, -935.37)" d="M 2532 935 C 2519 906 2526 903 2558 926 C 2585 944 2587 960 2562 960 C 2551 960 2538 949 2532 935 z" stroke-linecap="round" />
</g>
		<g transform="matrix(0.13 0 0 -0.13 -19.51 11.93)"  >
<path style="stroke: none; stroke-width: 1; stroke-dasharray: none; stroke-linecap: butt; stroke-dashoffset: 0; stroke-linejoin: miter; stroke-miterlimit: 4; fill: rgb(155,107,67); fill-rule: nonzero; opacity: 1;" vector-effect="non-scaling-stroke"  transform=" translate(-1352.85, -929.51)" d="M 1333 938 C 1309 927 1302 910 1320 910 C 1326 910 1339 916 1350 923 C 1367 933 1372 932 1380 920 C 1385 912 1392 908 1395 912 C 1401 918 1373 950 1362 949 C 1358 949 1345 944 1333 938 z" stroke-linecap="round" />
</g>
		<g transform="matrix(0.13 0 0 -0.13 123.45 15.87)"  >
<path style="stroke: none; stroke-width: 1; stroke-dasharray: none; stroke-linecap: butt; stroke-dashoffset: 0; stroke-linejoin: miter; stroke-miterlimit: 4; fill: rgb(155,107,67); fill-rule: nonzero; opacity: 1;" vector-effect="non-scaling-stroke"  transform=" translate(-2424.73, -900.13)" d="M 2395 900 C 2403 887 2430 887 2450 900 C 2461 907 2455 910 2427 910 C 2404 910 2391 906 2395 900 z" stroke-linecap="round" />
</g>
		<g transform="matrix(0.13 0 0 -0.13 -43.49 20.37)"  >
<path style="stroke: none; stroke-width: 1; stroke-dasharray: none; stroke-linecap: butt; stroke-dashoffset: 0; stroke-linejoin: miter; stroke-miterlimit: 4; fill: rgb(155,107,67); fill-rule: nonzero; opacity: 1;" vector-effect="non-scaling-stroke"  transform=" translate(-1172.6, -865.96)" d="M 1166 871 C 1151 855 1143 840 1148 836 C 1157 831 1205 888 1198 896 C 1195 898 1181 887 1166 871 z" stroke-linecap="round" />
</g>
		<g transform="matrix(0.13 0 0 -0.13 -159.64 24.3)"  >
<path style="stroke: none; stroke-width: 1; stroke-dasharray: none; stroke-linecap: butt; stroke-dashoffset: 0; stroke-linejoin: miter; stroke-miterlimit: 4; fill: rgb(155,107,67); fill-rule: nonzero; opacity: 1;" vector-effect="non-scaling-stroke"  transform=" translate(-308.52, -836.06)" d="M 325 854 C 8 827 0 825 0 804 C 0 796 4 791 8 794 C 17 799 93 810 170 816 C 200 818 249 824 280 830 C 330 838 384 844 523 855 C 556 858 570 855 570 846 C 570 838 555 833 528 832 C 505 831 478 828 469 825 C 459 822 449 824 445 830 C 442 836 433 837 427 833 C 420 829 406 824 396 823 C 341 814 377 809 473 812 C 576 815 580 816 580 838 C 580 850 586 860 594 860 C 602 860 612 865 615 870 C 618 876 618 879 613 879 C 609 878 479 867 325 854 z" stroke-linecap="round" />
</g>
		<g transform="matrix(0.13 0 0 -0.13 190.38 32.34)"  >
<path style="stroke: none; stroke-width: 1; stroke-dasharray: none; stroke-linecap: butt; stroke-dashoffset: 0; stroke-linejoin: miter; stroke-miterlimit: 4; fill: rgb(155,107,67); fill-rule: nonzero; opacity: 1;" vector-effect="non-scaling-stroke"  transform=" translate(-2927.1, -775)" d="M 2942 808 C 2930 784 2911 750 2899 733 C 2888 715 2881 700 2884 700 C 2887 700 2902 719 2916 742 C 2931 766 2949 791 2957 798 C 2968 810 2976 850 2967 850 C 2965 850 2954 831 2942 808 z" stroke-linecap="round" />
</g>
		<g transform="matrix(0.13 0 0 -0.13 -17.28 27.45)"  >
<path style="stroke: none; stroke-width: 1; stroke-dasharray: none; stroke-linecap: butt; stroke-dashoffset: 0; stroke-linejoin: miter; stroke-miterlimit: 4; fill: rgb(155,107,67); fill-rule: nonzero; opacity: 1;" vector-effect="non-scaling-stroke"  transform=" translate(-1372.82, -812.86)" d="M 1520 831 C 1520 816 1491 810 1392 805 C 1321 802 1304 803 1330 810 C 1349 815 1370 817 1377 815 C 1384 813 1392 816 1396 822 C 1401 830 1385 831 1339 824 C 1304 820 1258 816 1238 816 C 1217 815 1200 812 1200 808 C 1200 791 1384 778 1435 791 C 1452 795 1479 800 1495 801 C 1530 805 1552 818 1544 831 C 1537 843 1520 843 1520 831 z" stroke-linecap="round" />
</g>
		<g transform="matrix(0.13 0 0 -0.13 -168.66 29)"  >
<path style="stroke: none; stroke-width: 1; stroke-dasharray: none; stroke-linecap: butt; stroke-dashoffset: 0; stroke-linejoin: miter; stroke-miterlimit: 4; fill: rgb(155,107,67); fill-rule: nonzero; opacity: 1;" vector-effect="non-scaling-stroke"  transform=" translate(-236.25, -801.53)" d="M 319 816 C 317 814 272 809 220 806 C 168 802 121 795 116 790 C 109 783 121 782 150 785 C 189 790 275 796 345 799 C 362 800 362 802 350 810 C 334 821 326 822 319 816 z" stroke-linecap="round" />
</g>
		<g transform="matrix(0.13 0 0 -0.13 -13.2 80.91)"  >
<path style="stroke: none; stroke-width: 1; stroke-dasharray: none; stroke-linecap: butt; stroke-dashoffset: 0; stroke-linejoin: miter; stroke-miterlimit: 4; fill: rgb(155,107,67); fill-rule: nonzero; opacity: 1;" vector-effect="non-scaling-stroke"  transform=" translate(-1408.36, -403.45)" d="M 1581 734 C 1559 702 1550 680 1554 665 C 1567 615 1496 422 1441 353 C 1408 312 1344 271 1272 246 C 1240 234 1217 233 1163 242 C 1126 247 1090 252 1083 253 C 1076 253 1068 266 1065 282 C 1056 319 1040 318 1040 280 C 1040 264 1045 250 1050 250 C 1056 250 1060 244 1060 237 C 1060 229 1069 215 1080 205 C 1091 195 1097 183 1094 178 C 1086 166 1120 129 1132 136 C 1136 139 1139 138 1138 133 C 1137 129 1144 110 1153 93 L 1171 60 L 1135 60 C 1098 60 1061 74 1048 94 C 1043 100 1040 96 1040 83 C 1040 71 1044 58 1050 55 C 1070 43 1174 30 1180 40 C 1183 45 1201 45 1222 41 C 1247 35 1257 36 1256 44 C 1253 65 1239 80 1229 74 C 1223 71 1201 88 1178 112 C 1156 135 1134 154 1129 153 C 1125 151 1124 158 1127 167 C 1132 180 1129 182 1116 177 C 1107 173 1101 174 1105 179 C 1108 184 1106 199 1101 213 C 1092 235 1094 237 1111 233 C 1122 230 1132 225 1135 221 C 1137 217 1169 215 1207 216 C 1262 218 1288 225 1339 252 C 1403 285 1494 366 1485 381 C 1482 385 1486 392 1493 397 C 1505 404 1532 460 1536 485 C 1537 491 1546 513 1555 535 L 1573 575 L 1583 531 C 1592 492 1590 482 1561 423 C 1544 388 1533 361 1538 364 C 1542 366 1557 392 1570 420 C 1591 465 1595 469 1602 451 C 1610 427 1602 370 1589 370 C 1575 370 1510 265 1522 261 C 1528 259 1542 268 1552 281 C 1594 338 1605 349 1612 342 C 1622 332 1595 228 1570 175 C 1551 135 1551 135 1570 158 C 1598 191 1631 303 1637 382 C 1642 438 1645 447 1659 443 C 1668 439 1672 440 1668 445 C 1662 452 1720 534 1743 551 C 1748 554 1752 561 1753 566 C 1754 571 1762 574 1770 572 C 1780 570 1779 574 1766 585 C 1755 593 1742 600 1737 600 C 1733 600 1731 603 1733 608 C 1736 612 1727 615 1714 615 C 1701 615 1690 612 1690 608 C 1690 603 1696 600 1704 600 C 1728 600 1732 582 1713 561 C 1683 528 1673 515 1658 486 C 1644 459 1643 461 1622 573 C 1596 710 1596 709 1616 731 C 1627 743 1629 754 1623 764 C 1616 777 1608 772 1581 734 z M 1615 530 C 1631 438 1633 413 1624 422 C 1614 433 1580 603 1581 639 L 1582 675 L 1591 645 C 1596 629 1607 577 1615 530 z" stroke-linecap="round" />
</g>
		<g transform="matrix(0.13 0 0 -0.13 -140.76 34.02)"  >
<path style="stroke: none; stroke-width: 1; stroke-dasharray: none; stroke-linecap: butt; stroke-dashoffset: 0; stroke-linejoin: miter; stroke-miterlimit: 4; fill: rgb(155,107,67); fill-rule: nonzero; opacity: 1;" vector-effect="non-scaling-stroke"  transform=" translate(-443.57, -764.25)" d="M 407 763 C 425 761 457 761 477 763 C 498 765 484 767 445 767 C 407 767 390 765 407 763 z" stroke-linecap="round" />
</g>
		<g transform="matrix(0.13 0 0 -0.13 -177.32 37.65)"  >
<path style="stroke: none; stroke-width: 1; stroke-dasharray: none; stroke-linecap: butt; stroke-dashoffset: 0; stroke-linejoin: miter; stroke-miterlimit: 4; fill: rgb(155,107,67); fill-rule: nonzero; opacity: 1;" vector-effect="non-scaling-stroke"  transform=" translate(-172.13, -736.48)" d="M 235 753 C 219 752 161 745 108 739 C 54 733 13 724 15 719 C 18 715 26 713 33 716 C 40 718 71 722 101 724 C 162 727 323 750 329 756 C 334 760 281 759 235 753 z" stroke-linecap="round" />
</g>
		<g transform="matrix(0.13 0 0 -0.13 -147.09 39.1)"  >
<path style="stroke: none; stroke-width: 1; stroke-dasharray: none; stroke-linecap: butt; stroke-dashoffset: 0; stroke-linejoin: miter; stroke-miterlimit: 4; fill: rgb(155,107,67); fill-rule: nonzero; opacity: 1;" vector-effect="non-scaling-stroke"  transform=" translate(-399.12, -725.72)" d="M 440 739 C 393 734 339 729 320 726 C 301 723 272 721 256 721 C 240 720 230 717 234 713 C 243 703 368 708 432 720 C 461 726 488 726 494 721 C 500 716 520 718 540 726 C 559 733 570 739 563 739 C 557 740 546 742 538 743 C 531 745 487 743 440 739 z" stroke-linecap="round" />
</g>
		<g transform="matrix(0.13 0 0 -0.13 -12.31 37.22)"  >
<path style="stroke: none; stroke-width: 1; stroke-dasharray: none; stroke-linecap: butt; stroke-dashoffset: 0; stroke-linejoin: miter; stroke-miterlimit: 4; fill: rgb(155,107,67); fill-rule: nonzero; opacity: 1;" vector-effect="non-scaling-stroke"  transform=" translate(-1406.74, -740.08)" d="M 1370 740 C 1370 728 1394 728 1430 740 C 1451 747 1449 748 1413 749 C 1389 750 1370 746 1370 740 z" stroke-linecap="round" />
</g>
		<g transform="matrix(0.13 0 0 -0.13 -177.53 42.44)"  >
<path style="stroke: none; stroke-width: 1; stroke-dasharray: none; stroke-linecap: butt; stroke-dashoffset: 0; stroke-linejoin: miter; stroke-miterlimit: 4; fill: rgb(155,107,67); fill-rule: nonzero; opacity: 1;" vector-effect="non-scaling-stroke"  transform=" translate(-167.82, -700.88)" d="M 122 702 C 115 697 129 693 159 692 C 187 692 212 695 215 701 C 222 712 140 713 122 702 z" stroke-linecap="round" />
</g>
		<g transform="matrix(0.13 0 0 -0.13 -187.79 48.61)"  >
<path style="stroke: none; stroke-width: 1; stroke-dasharray: none; stroke-linecap: butt; stroke-dashoffset: 0; stroke-linejoin: miter; stroke-miterlimit: 4; fill: rgb(155,107,67); fill-rule: nonzero; opacity: 1;" vector-effect="non-scaling-stroke"  transform=" translate(-91.21, -654.57)" d="M 80 663 C 61 660 41 654 35 648 C 28 641 35 639 59 644 C 77 647 105 650 121 650 C 137 650 150 655 150 660 C 150 670 144 670 80 663 z" stroke-linecap="round" />
</g>
		<g transform="matrix(0.13 0 0 -0.13 36.64 53.81)"  >
<path style="stroke: none; stroke-width: 1; stroke-dasharray: none; stroke-linecap: butt; stroke-dashoffset: 0; stroke-linejoin: miter; stroke-miterlimit: 4; fill: rgb(155,107,67); fill-rule: nonzero; opacity: 1;" vector-effect="non-scaling-stroke"  transform=" translate(-1773.51, -615.36)" d="M 1753 621 C 1753 610 1762 599 1772 597 C 1795 591 1800 599 1789 625 C 1785 636 1781 639 1781 631 C 1780 620 1777 620 1766 630 C 1754 639 1751 638 1753 621 z" stroke-linecap="round" />
</g>
		<g transform="matrix(0.13 0 0 -0.13 -146.69 64.04)"  >
<path style="stroke: none; stroke-width: 1; stroke-dasharray: none; stroke-linecap: butt; stroke-dashoffset: 0; stroke-linejoin: miter; stroke-miterlimit: 4; fill: rgb(155,107,67); fill-rule: nonzero; opacity: 1;" vector-effect="non-scaling-stroke"  transform=" translate(-400.15, -537.1)" d="M 412 570 C 378 538 351 520 335 520 C 313 520 311 516 313 488 C 315 464 320 456 337 455 C 354 454 357 458 354 476 C 349 501 381 530 412 530 C 423 530 427 535 424 544 C 417 562 455 584 477 576 C 488 571 490 574 486 586 C 483 594 480 606 480 611 C 480 629 465 619 412 570 z" stroke-linecap="round" />
</g>
		<g transform="matrix(0.13 0 0 -0.13 56.38 68.29)"  >
<path style="stroke: none; stroke-width: 1; stroke-dasharray: none; stroke-linecap: butt; stroke-dashoffset: 0; stroke-linejoin: miter; stroke-miterlimit: 4; fill: rgb(155,107,67); fill-rule: nonzero; opacity: 1;" vector-effect="non-scaling-stroke"  transform=" translate(-1921.42, -505.18)" d="M 1915 581 C 1918 576 1916 569 1911 566 C 1906 562 1902 533 1903 500 C 1904 468 1906 443 1909 445 C 1911 448 1919 442 1926 432 C 1938 416 1939 416 1940 435 C 1940 446 1936 470 1931 488 C 1926 505 1924 520 1928 520 C 1932 520 1935 536 1936 555 C 1936 579 1932 590 1923 590 C 1915 590 1911 586 1915 581 z" stroke-linecap="round" />
</g>
		<g transform="matrix(0.13 0 0 -0.13 -30.52 77.67)"  >
<path style="stroke: none; stroke-width: 1; stroke-dasharray: none; stroke-linecap: butt; stroke-dashoffset: 0; stroke-linejoin: miter; stroke-miterlimit: 4; fill: rgb(155,107,67); fill-rule: nonzero; opacity: 1;" vector-effect="non-scaling-stroke"  transform=" translate(-1274.86, -433.63)" d="M 1477 552 C 1466 540 1461 527 1464 521 C 1486 486 1345 351 1303 367 C 1295 370 1285 368 1281 361 C 1269 343 1170 337 1141 352 C 1127 359 1112 379 1107 395 C 1102 412 1092 439 1084 457 C 1076 474 1070 493 1070 499 C 1070 505 1066 510 1060 510 C 1045 510 1048 494 1069 452 C 1079 432 1087 404 1085 390 C 1084 376 1082 357 1081 347 C 1081 337 1075 332 1069 336 C 1062 340 1059 335 1062 324 C 1067 297 1100 294 1107 320 C 1111 335 1117 339 1129 334 C 1193 308 1321 329 1394 378 C 1423 398 1445 425 1469 471 C 1505 544 1510 589 1477 552 z" stroke-linecap="round" />
</g>
		<g transform="matrix(0.13 0 0 -0.13 -183.58 64.98)"  >
<path style="stroke: none; stroke-width: 1; stroke-dasharray: none; stroke-linecap: butt; stroke-dashoffset: 0; stroke-linejoin: miter; stroke-miterlimit: 4; fill: rgb(155,107,67); fill-rule: nonzero; opacity: 1;" vector-effect="non-scaling-stroke"  transform=" translate(-122.58, -531.91)" d="M 71 536 C 73 534 102 530 135 527 C 174 523 185 524 165 529 C 134 538 63 543 71 536 z" stroke-linecap="round" />
</g>
		<g transform="matrix(0.13 0 0 -0.13 -137.24 76.64)"  >
<path style="stroke: none; stroke-width: 1; stroke-dasharray: none; stroke-linecap: butt; stroke-dashoffset: 0; stroke-linejoin: miter; stroke-miterlimit: 4; fill: rgb(155,107,67); fill-rule: nonzero; opacity: 1;" vector-effect="non-scaling-stroke"  transform=" translate(-470.99, -443.64)" d="M 485 471 L 505 447 L 483 452 C 470 456 460 455 460 451 C 460 448 441 436 418 426 C 394 416 381 405 388 403 C 395 400 411 405 423 413 C 435 421 465 430 490 434 C 546 442 578 460 538 460 C 522 460 510 465 510 472 C 510 478 507 480 503 477 C 500 473 490 476 481 482 C 472 489 474 484 485 471 z" stroke-linecap="round" />
</g>
		<g transform="matrix(0.13 0 0 -0.13 30.09 81.71)"  >
<path style="stroke: none; stroke-width: 1; stroke-dasharray: none; stroke-linecap: butt; stroke-dashoffset: 0; stroke-linejoin: miter; stroke-miterlimit: 4; fill: rgb(155,107,67); fill-rule: nonzero; opacity: 1;" vector-effect="non-scaling-stroke"  transform=" translate(-1724.69, -405)" d="M 1736 459 C 1739 453 1733 435 1721 419 C 1709 403 1702 385 1705 380 C 1708 374 1706 370 1701 370 C 1695 370 1690 363 1690 355 C 1690 347 1694 340 1699 340 C 1707 340 1738 372 1732 374 C 1728 375 1739 411 1751 432 C 1764 458 1762 470 1744 470 C 1736 470 1732 465 1736 459 z" stroke-linecap="round" />
</g>
		<g transform="matrix(0.13 0 0 -0.13 -164.13 97.47)"  >
<path style="stroke: none; stroke-width: 1; stroke-dasharray: none; stroke-linecap: butt; stroke-dashoffset: 0; stroke-linejoin: miter; stroke-miterlimit: 4; fill: rgb(155,107,67); fill-rule: nonzero; opacity: 1;" vector-effect="non-scaling-stroke"  transform=" translate(-272.85, -285.51)" d="M 320 385 C 306 377 267 361 232 350 C 198 338 172 324 175 320 C 184 305 120 265 94 268 C 81 270 70 266 70 260 C 70 254 66 251 61 255 C 56 258 49 256 46 251 C 40 242 126 243 136 252 C 144 261 199 240 240 213 C 262 198 289 190 315 190 C 338 190 361 185 368 178 C 377 169 380 170 380 182 C 380 194 395 200 440 205 C 473 209 500 216 500 221 C 500 226 488 227 473 223 C 457 218 407 215 360 216 C 295 217 264 222 228 239 C 201 251 180 264 180 267 C 180 271 183 271 186 268 C 189 264 201 271 212 282 C 224 294 240 300 251 297 C 261 294 272 296 275 301 C 278 305 288 306 297 303 C 308 299 311 300 306 308 C 297 323 255 324 229 310 C 217 303 210 303 210 309 C 210 322 249 334 279 331 C 294 329 300 332 296 339 C 292 346 297 350 309 350 C 331 350 349 370 328 370 C 321 371 329 377 345 385 C 362 392 368 399 360 399 C 352 399 334 393 320 385 z" stroke-linecap="round" />
</g>
		<g transform="matrix(0.13 0 0 -0.13 -142.48 87.33)"  >
<path style="stroke: none; stroke-width: 1; stroke-dasharray: none; stroke-linecap: butt; stroke-dashoffset: 0; stroke-linejoin: miter; stroke-miterlimit: 4; fill: rgb(155,107,67); fill-rule: nonzero; opacity: 1;" vector-effect="non-scaling-stroke"  transform=" translate(-431.34, -364.21)" d="M 380 369 C 349 362 351 361 397 364 C 426 366 452 364 456 361 C 459 358 473 355 486 355 C 499 354 507 357 502 361 C 489 373 416 378 380 369 z" stroke-linecap="round" />
</g>
		<g transform="matrix(0.13 0 0 -0.13 79.39 96.26)"  >
<path style="stroke: none; stroke-width: 1; stroke-dasharray: none; stroke-linecap: butt; stroke-dashoffset: 0; stroke-linejoin: miter; stroke-miterlimit: 4; fill: rgb(155,107,67); fill-rule: nonzero; opacity: 1;" vector-effect="non-scaling-stroke"  transform=" translate(-2094.15, -296)" d="M 2092 306 C 2062 227 2065 211 2096 285 C 2109 317 2119 348 2117 354 C 2115 359 2104 337 2092 306 z" stroke-linecap="round" />
</g>
		<g transform="matrix(0.13 0 0 -0.13 98.1 96.58)"  >
<path style="stroke: none; stroke-width: 1; stroke-dasharray: none; stroke-linecap: butt; stroke-dashoffset: 0; stroke-linejoin: miter; stroke-miterlimit: 4; fill: rgb(155,107,67); fill-rule: nonzero; opacity: 1;" vector-effect="non-scaling-stroke"  transform=" translate(-2235.76, -293.48)" d="M 2167 353 C 2148 335 2182 249 2214 234 C 2237 223 2286 240 2272 255 C 2268 259 2272 260 2280 258 C 2288 255 2294 247 2293 241 C 2291 235 2295 230 2300 230 C 2306 230 2310 236 2310 243 C 2310 257 2247 310 2230 310 C 2224 310 2221 314 2224 319 C 2227 324 2224 333 2216 339 C 2206 348 2203 344 2202 320 C 2202 303 2204 290 2208 290 C 2212 290 2221 281 2227 271 C 2237 255 2236 252 2222 254 C 2213 256 2207 260 2208 265 C 2210 269 2207 276 2200 280 C 2194 284 2188 301 2186 318 C 2184 352 2177 364 2167 353 z" stroke-linecap="round" />
</g>
		<g transform="matrix(0.13 0 0 -0.13 42.46 114.98)"  >
<path style="stroke: none; stroke-width: 1; stroke-dasharray: none; stroke-linecap: butt; stroke-dashoffset: 0; stroke-linejoin: miter; stroke-miterlimit: 4; fill: rgb(155,107,67); fill-rule: nonzero; opacity: 1;" vector-effect="non-scaling-stroke"  transform=" translate(-1817.59, -153.23)" d="M 1851 305 C 1850 300 1846 284 1844 271 C 1842 257 1833 221 1826 191 C 1818 160 1809 116 1805 93 C 1801 70 1792 49 1785 46 C 1771 41 1776 0 1791 0 C 1805 0 1802 28 1788 34 C 1781 37 1784 38 1795 37 C 1810 36 1815 41 1817 60 C 1819 98 1828 131 1839 144 C 1846 153 1846 160 1838 168 C 1829 177 1829 180 1838 180 C 1845 180 1850 186 1849 193 C 1848 199 1850 212 1854 221 C 1858 230 1860 255 1857 276 C 1855 298 1852 311 1851 305 z" stroke-linecap="round" />
</g>
		<g transform="matrix(0.13 0 0 -0.13 68.03 103.69)"  >
<path style="stroke: none; stroke-width: 1; stroke-dasharray: none; stroke-linecap: butt; stroke-dashoffset: 0; stroke-linejoin: miter; stroke-miterlimit: 4; fill: rgb(155,107,67); fill-rule: nonzero; opacity: 1;" vector-effect="non-scaling-stroke"  transform=" translate(-2008.76, -240.18)" d="M 2005 276 C 2007 256 2005 240 2001 240 C 1998 240 1995 225 1994 206 C 1994 182 1997 173 2006 177 C 2016 181 2017 187 2010 200 C 2005 209 2003 220 2006 222 C 2008 225 2015 241 2019 258 C 2026 281 2025 292 2015 300 C 2004 309 2002 305 2005 276 z" stroke-linecap="round" />
</g>
		<g transform="matrix(0.13 0 0 -0.13 3.95 104.93)"  >
<path style="stroke: none; stroke-width: 1; stroke-dasharray: none; stroke-linecap: butt; stroke-dashoffset: 0; stroke-linejoin: miter; stroke-miterlimit: 4; fill: rgb(155,107,67); fill-rule: nonzero; opacity: 1;" vector-effect="non-scaling-stroke"  transform=" translate(-1528.69, -231.52)" d="M 1526 246 C 1505 234 1488 221 1489 217 C 1490 213 1490 204 1490 198 C 1490 191 1498 197 1508 213 C 1518 228 1529 238 1532 235 C 1534 232 1545 239 1555 250 C 1577 275 1575 274 1526 246 z" stroke-linecap="round" />
</g>
		<g transform="matrix(0.13 0 0 -0.13 -190.29 111.65)"  >
<path style="stroke: none; stroke-width: 1; stroke-dasharray: none; stroke-linecap: butt; stroke-dashoffset: 0; stroke-linejoin: miter; stroke-miterlimit: 4; fill: rgb(155,107,67); fill-rule: nonzero; opacity: 1;" vector-effect="non-scaling-stroke"  transform=" translate(-71.95, -180.52)" d="M 70 196 C 57 171 43 153 40 155 C 37 157 34 150 34 139 C 34 109 45 117 65 160 C 75 182 89 205 97 211 C 111 223 115 240 102 240 C 98 240 84 220 70 196 z" stroke-linecap="round" />
</g>
		<g transform="matrix(0.13 0 0 -0.13 57.49 120.09)"  >
<path style="stroke: none; stroke-width: 1; stroke-dasharray: none; stroke-linecap: butt; stroke-dashoffset: 0; stroke-linejoin: miter; stroke-miterlimit: 4; fill: rgb(155,107,67); fill-rule: nonzero; opacity: 1;" vector-effect="non-scaling-stroke"  transform=" translate(-1929.51, -116.14)" d="M 1927 213 C 1917 204 1920 39 1930 15 C 1936 2 1939 36 1938 108 C 1937 169 1936 220 1935 220 C 1934 220 1930 217 1927 213 z" stroke-linecap="round" />
</g>
		<g transform="matrix(0.13 0 0 -0.13 104.97 111.04)"  >
<path style="stroke: none; stroke-width: 1; stroke-dasharray: none; stroke-linecap: butt; stroke-dashoffset: 0; stroke-linejoin: miter; stroke-miterlimit: 4; fill: rgb(155,107,67); fill-rule: nonzero; opacity: 1;" vector-effect="non-scaling-stroke"  transform=" translate(-2286.5, -186.21)" d="M 2245 200 C 2241 194 2242 190 2247 191 C 2251 192 2268 188 2283 182 C 2311 170 2337 166 2329 175 C 2314 190 2250 209 2245 200 z" stroke-linecap="round" />
</g>
		<g transform="matrix(0.13 0 0 -0.13 115.46 123.05)"  >
<path style="stroke: none; stroke-width: 1; stroke-dasharray: none; stroke-linecap: butt; stroke-dashoffset: 0; stroke-linejoin: miter; stroke-miterlimit: 4; fill: rgb(155,107,67); fill-rule: nonzero; opacity: 1;" vector-effect="non-scaling-stroke"  transform=" translate(-2368.11, -94.22)" d="M 2210 178 C 2210 162 2241 70 2260 28 C 2274 -3 2295 -8 2304 15 C 2307 23 2305 30 2300 30 C 2294 30 2290 43 2290 59 C 2290 86 2293 88 2347 95 C 2378 99 2415 106 2429 112 C 2484 134 2520 155 2524 167 C 2531 184 2524 183 2465 161 C 2362 122 2284 127 2228 178 C 2212 191 2210 191 2210 178 z" stroke-linecap="round" />
</g>
		<g transform="matrix(0.13 0 0 -0.13 -153.84 119.59)"  >
<path style="stroke: none; stroke-width: 1; stroke-dasharray: none; stroke-linecap: butt; stroke-dashoffset: 0; stroke-linejoin: miter; stroke-miterlimit: 4; fill: rgb(155,107,67); fill-rule: nonzero; opacity: 1;" vector-effect="non-scaling-stroke"  transform=" translate(-345.46, -121.14)" d="M 301 174 C 300 168 309 155 320 145 C 331 135 340 122 339 116 C 338 110 338 100 339 94 C 340 81 390 57 390 69 C 390 74 381 80 370 83 C 353 87 351 94 356 114 C 360 133 358 140 347 140 C 339 140 325 150 317 163 C 308 175 301 180 301 174 z" stroke-linecap="round" />
</g>
		<g transform="matrix(0.13 0 0 -0.13 -4.09 114.36)"  >
<path style="stroke: none; stroke-width: 1; stroke-dasharray: none; stroke-linecap: butt; stroke-dashoffset: 0; stroke-linejoin: miter; stroke-miterlimit: 4; fill: rgb(155,107,67); fill-rule: nonzero; opacity: 1;" vector-effect="non-scaling-stroke"  transform=" translate(-1468.16, -161.32)" d="M 1460 165 C 1460 157 1455 150 1448 150 C 1442 150 1439 148 1442 145 C 1451 136 1501 159 1495 170 C 1485 185 1460 182 1460 165 z" stroke-linecap="round" />
</g>
		<g transform="matrix(0.13 0 0 -0.13 67.81 123.69)"  >
<path style="stroke: none; stroke-width: 1; stroke-dasharray: none; stroke-linecap: butt; stroke-dashoffset: 0; stroke-linejoin: miter; stroke-miterlimit: 4; fill: rgb(155,107,67); fill-rule: nonzero; opacity: 1;" vector-effect="non-scaling-stroke"  transform=" translate(-2007.92, -89.5)" d="M 2023 129 C 2007 100 1987 63 1978 46 C 1961 15 1953 -15 1968 6 C 1972 12 1984 22 1995 28 C 2006 34 2009 40 2002 40 C 1992 40 1993 48 2007 73 C 2017 90 2028 107 2031 110 C 2039 117 2060 180 2055 180 C 2052 180 2038 157 2023 129 z" stroke-linecap="round" />
</g>
		<g transform="matrix(0.13 0 0 -0.13 -173.42 123.07)"  >
<path style="stroke: none; stroke-width: 1; stroke-dasharray: none; stroke-linecap: butt; stroke-dashoffset: 0; stroke-linejoin: miter; stroke-miterlimit: 4; fill: rgb(155,107,67); fill-rule: nonzero; opacity: 1;" vector-effect="non-scaling-stroke"  transform=" translate(-198.88, -95)" d="M 172 123 C 192 107 216 83 226 68 C 237 52 249 40 253 40 C 258 40 250 54 235 72 C 214 96 212 105 222 112 C 232 119 231 121 218 117 C 209 114 190 120 177 131 C 163 141 148 150 144 150 C 140 150 153 138 172 123 z" stroke-linecap="round" />
</g>
		<g transform="matrix(0.13 0 0 -0.13 -10.43 122.8)"  >
<path style="stroke: none; stroke-width: 1; stroke-dasharray: none; stroke-linecap: butt; stroke-dashoffset: 0; stroke-linejoin: miter; stroke-miterlimit: 4; fill: rgb(155,107,67); fill-rule: nonzero; opacity: 1;" vector-effect="non-scaling-stroke"  transform=" translate(-1420.77, -97.73)" d="M 1420 123 C 1399 118 1377 83 1390 75 C 1396 72 1400 75 1400 82 C 1400 91 1403 91 1410 80 C 1418 67 1420 68 1420 83 C 1420 92 1426 100 1434 100 C 1442 100 1451 104 1454 109 C 1461 120 1441 128 1420 123 z" stroke-linecap="round" />
</g>
		<g transform="matrix(0.13 0 0 -0.13 -194.7 127.85)"  >
<path style="stroke: none; stroke-width: 1; stroke-dasharray: none; stroke-linecap: butt; stroke-dashoffset: 0; stroke-linejoin: miter; stroke-miterlimit: 4; fill: rgb(155,107,67); fill-rule: nonzero; opacity: 1;" vector-effect="non-scaling-stroke"  transform=" translate(-38.11, -59.13)" d="M 28 81 C 25 61 29 36 36 21 C 48 -1 50 -2 49 15 C 49 26 45 53 41 75 L 34 115 L 28 81 z" stroke-linecap="round" />
</g>
		<g transform="matrix(0.13 0 0 -0.13 16.71 128.27)"  >
<path style="stroke: none; stroke-width: 1; stroke-dasharray: none; stroke-linecap: butt; stroke-dashoffset: 0; stroke-linejoin: miter; stroke-miterlimit: 4; fill: rgb(155,107,67); fill-rule: nonzero; opacity: 1;" vector-effect="non-scaling-stroke"  transform=" translate(-1625.54, -56.1)" d="M 1595 87 C 1584 75 1566 54 1555 40 C 1539 20 1539 18 1553 29 C 1572 44 1577 31 1559 13 C 1550 4 1552 1 1569 3 C 1585 4 1590 11 1590 31 C 1590 62 1605 70 1660 70 C 1681 70 1702 75 1706 82 C 1710 88 1709 90 1702 87 C 1688 78 1659 90 1666 101 C 1674 115 1662 112 1634 94 C 1612 79 1610 79 1616 94 C 1624 115 1619 114 1595 87 z" stroke-linecap="round" />
</g>
		<g transform="matrix(0.13 0 0 -0.13 -20.51 128.56)"  >
<path style="stroke: none; stroke-width: 1; stroke-dasharray: none; stroke-linecap: butt; stroke-dashoffset: 0; stroke-linejoin: miter; stroke-miterlimit: 4; fill: rgb(155,107,67); fill-rule: nonzero; opacity: 1;" vector-effect="non-scaling-stroke"  transform=" translate(-1344.91, -54.62)" d="M 1333 73 C 1315 66 1317 50 1336 50 C 1344 50 1348 46 1345 40 C 1342 34 1344 30 1350 30 C 1357 30 1359 37 1356 47 C 1352 56 1355 67 1362 72 C 1372 78 1372 80 1360 79 C 1352 79 1339 76 1333 73 z" stroke-linecap="round" />
</g>
		<g transform="matrix(0.13 0 0 -0.13 -67.51 132.15)"  >
<path style="stroke: none; stroke-width: 1; stroke-dasharray: none; stroke-linecap: butt; stroke-dashoffset: 0; stroke-linejoin: miter; stroke-miterlimit: 4; fill: rgb(155,107,67); fill-rule: nonzero; opacity: 1;" vector-effect="non-scaling-stroke"  transform=" translate(-992.19, -27.63)" d="M 986 33 C 977 15 974 0 979 0 C 992 0 1012 38 1007 53 C 1005 60 996 50 986 33 z" stroke-linecap="round" />
</g>
		<g transform="matrix(0.13 0 0 -0.13 22.87 133.94)"  >
<path style="stroke: none; stroke-width: 1; stroke-dasharray: none; stroke-linecap: butt; stroke-dashoffset: 0; stroke-linejoin: miter; stroke-miterlimit: 4; fill: rgb(155,107,67); fill-rule: nonzero; opacity: 1;" vector-effect="non-scaling-stroke"  transform=" translate(-1670.43, -14.5)" d="M 1668 23 C 1631 17 1632 0 1670 0 C 1690 0 1700 5 1700 15 C 1700 23 1699 29 1698 29 C 1696 28 1683 25 1668 23 z" stroke-linecap="round" />
</g>
</g>
</g>
</svg>